<svg width="30" height="30" viewBox="0 0 30 30" fill="none" xmlns="http://www.w3.org/2000/svg">
<path d="M7.22222 26H22.7778C24.0033 26 25 25.0133 25 23.8V13.9001C25.0001 13.7557 24.9715 13.6126 24.9156 13.4791C24.8597 13.3457 24.7778 13.2244 24.6744 13.1224L15.7856 4.32252C15.6825 4.22028 15.56 4.13917 15.4252 4.08383C15.2904 4.02849 15.1459 4 15 4C14.8541 4 14.7096 4.02849 14.5748 4.08383C14.44 4.13917 14.3175 4.22028 14.2144 4.32252L5.32556 13.1224C5.22222 13.2244 5.14027 13.3457 5.0844 13.4791C5.02853 13.6126 4.99985 13.7557 5 13.9001V23.8C5 25.0133 5.99667 26 7.22222 26ZM12.7778 23.8V18.3001H17.2222V23.8H12.7778ZM7.22222 14.3555L15 6.65559L22.7778 14.3555L22.7789 23.8H19.4444V18.3001C19.4444 17.0868 18.4478 16.1001 17.2222 16.1001H12.7778C11.5522 16.1001 10.5556 17.0868 10.5556 18.3001V23.8H7.22222V14.3555Z" fill="#676767"/>
</svg>
