<svg width="30" height="30" viewBox="0 0 30 30" fill="none" xmlns="http://www.w3.org/2000/svg">
<path d="M22 27C21.9 27 21.8 26.98 21.706 26.94C21.474 26.841 16 24.457 16 19.5539V15.5358C16 15.2148 16.204 14.9298 16.509 14.8258L21.759 13.0398C21.915 12.9867 22.085 12.9867 22.241 13.0398L27.491 14.8258C27.796 14.9298 28 15.2148 28 15.5358V19.5539C28 24.457 22.526 26.841 22.294 26.941C22.2 26.98 22.1 27 22 27ZM17.5 16.0728V19.5529C17.5 22.8859 20.956 24.89 22 25.418C23.044 24.89 26.5 22.8859 26.5 19.5529V16.0728L22 14.5418L17.5 16.0728Z"/>
<path d="M21.5385 23C21.3557 23 21.1785 22.9149 21.0492 22.76L19.2029 20.5782C18.9324 20.2585 18.9324 19.7403 19.2029 19.4207C19.4734 19.101 19.9119 19.101 20.1824 19.4207L21.4647 20.936L23.7542 17.3272C23.9813 16.9661 24.417 16.8919 24.7235 17.1647C25.0291 17.4352 25.0909 17.9479 24.8611 18.3101L22.0915 22.6738C21.9715 22.8636 21.7878 22.9815 21.5865 22.9989C21.5708 22.9989 21.5551 23 21.5385 23Z"/>
<path d="M14.2129 24H5.91176C4.30553 24 3 22.767 3 21.25V5.75C3 4.233 4.30553 3 5.91176 3H18.0882C19.6945 3 21 4.233 21 5.75V11.18C21 11.594 20.6442 11.93 20.2059 11.93C19.7675 11.93 19.4118 11.594 19.4118 11.18V5.75C19.4118 5.061 18.8178 4.5 18.0882 4.5H5.91176C5.18224 4.5 4.58824 5.061 4.58824 5.75V21.25C4.58824 21.939 5.18224 22.5 5.91176 22.5H14.2129C14.6513 22.5 15.0071 22.836 15.0071 23.25C15.0071 23.664 14.6513 24 14.2129 24Z"/>
<path d="M17.1818 13H6.81818C6.36655 13 6 12.552 6 12C6 11.448 6.36655 11 6.81818 11H17.1818C17.6335 11 18 11.448 18 12C18 12.552 17.6335 13 17.1818 13Z"/>
<path d="M12.25 17H6.75C6.336 17 6 16.552 6 16C6 15.448 6.336 15 6.75 15H12.25C12.664 15 13 15.448 13 16C13 16.552 12.664 17 12.25 17Z"/>
<path d="M11.25 9H6.75C6.336 9 6 8.552 6 8C6 7.448 6.336 7 6.75 7H11.25C11.664 7 12 7.448 12 8C12 8.552 11.664 9 11.25 9Z"/>
</svg>
