<svg width="30" height="30" viewBox="0 0 30 30" fill="none" xmlns="http://www.w3.org/2000/svg">
<path d="M12.5364 13.0685C11.6347 12.7874 10.6813 13.1423 10.1078 13.9728L6.31627 19.4628C6.14457 19.7114 6.20693 20.052 6.45553 20.2237L9.97779 22.6564C10.5237 23.038 11.2013 22.9496 11.5933 22.3804C11.8351 22.0303 12.0522 21.7205 12.2437 21.4472C14.192 18.8721 13.9186 18.2319 13.9408 15.0056C13.9408 14.0948 13.3895 13.3344 12.5364 13.0685ZM11.008 14.5945C11.3669 14.0748 11.8646 14.0049 12.2108 14.1128C12.3567 14.1583 12.5073 14.2464 12.6254 14.3807L8.52239 20.3217L7.52722 19.6344L11.008 14.5945ZM11.3478 20.8194C11.1552 21.0941 10.937 21.4055 10.6931 21.7587C10.6819 21.775 10.672 21.7855 10.6652 21.7917C10.6524 21.7874 10.6298 21.7773 10.5994 21.7563L9.4225 20.9434L12.8432 15.9903C12.8432 16.0014 12.8432 16.0125 12.8432 16.0236C12.839 18.6914 12.839 18.6914 11.3478 20.8194Z"/>
<path d="M19.7394 8.66833L26.6267 6.66874C26.9167 6.5845 27.0836 6.28126 26.9995 5.99119L26.0789 2.81429C26.0385 2.67492 25.9444 2.55727 25.8173 2.48731C25.6901 2.41729 25.5403 2.40072 25.4011 2.4412L18.1981 4.53251C17.9579 4.60209 17.7336 4.71066 17.5312 4.85523L14.5233 6.83611L14.0452 6.11016C13.7991 5.73641 13.421 5.48065 12.9807 5.38996C12.5403 5.29927 12.0919 5.38492 11.7182 5.63101L9.35267 7.1888C8.97897 7.43494 8.72321 7.81302 8.63252 8.25339C8.54188 8.69376 8.62743 9.14212 8.87357 9.51587L9.35163 10.2418L8.07575 11.082C7.83486 11.2404 7.63177 11.4381 7.47232 11.6692L1.09898 20.8977C0.927233 21.1361 0.993199 21.4964 1.23825 21.6586L3.5111 23.228L1.09898 26.7206C0.710138 27.3319 1.56282 27.9238 1.99915 27.3423L5.48323 22.2974C5.6976 22.4468 5.92033 22.6025 6.15044 22.7635C7.20529 23.5013 8.40098 24.3375 9.38199 24.962C10.5954 25.7343 12.2265 25.4301 13.0181 24.284L17.3225 18.0515C17.3935 17.9486 17.4633 17.8495 17.5311 17.7533C18.1628 16.8569 18.7594 16.0103 18.3916 14.6375C17.9033 12.8151 17.8529 11.2267 18.2361 9.6583L19.7394 8.66833ZM18.1422 5.76272C18.1488 5.75835 18.1554 5.75381 18.1619 5.74916C18.2648 5.67477 18.3794 5.61892 18.5028 5.58315L25.1805 3.64444L25.7966 5.7706L19.355 7.64077C19.3024 7.65603 19.2524 7.67912 19.2067 7.70925L17.9147 8.56008L16.6986 6.71337L18.1422 5.76272ZM9.78719 8.91425C9.70175 8.78456 9.67221 8.62823 9.70399 8.47409C9.73572 8.3199 9.8246 8.18797 9.95429 8.10259L12.3199 6.54474C12.4495 6.45935 12.6058 6.42976 12.76 6.46154C12.9142 6.49327 13.0461 6.58221 13.1315 6.71189L13.6096 7.43784L10.2652 9.64031L9.78719 8.91425ZM16.6369 17.1231C16.5672 17.2221 16.4954 17.324 16.4223 17.4298L12.118 23.6623C11.6565 24.3304 10.6927 24.4995 9.9695 24.0391C9.00851 23.4274 7.82321 22.5984 6.77744 21.867C6.38039 21.5893 6.00533 21.327 5.65553 21.0854C5.41639 20.9135 5.05697 20.9797 4.89463 21.2246L4.13274 22.3278L2.30999 21.0691L8.37265 12.2907C8.45185 12.1758 8.55414 12.0768 8.67704 11.996L15.7851 7.31494L17.169 9.41665C16.745 11.1633 16.7989 12.9198 17.3351 14.9205C17.5703 15.7987 17.2388 16.2691 16.6369 17.1231Z"/>
<path d="M28.0046 10.1896C26.6475 8.43694 25.9278 8.44202 24.574 10.1896C24.1994 10.6916 23.5712 11.6842 23.5712 12.6925C23.5464 14.1338 24.8304 15.4573 26.2771 15.4279H26.2974C27.0054 15.4279 27.678 15.1462 28.1922 14.6339C29.5904 13.2136 28.9382 11.4067 28.0046 10.1896ZM27.4202 13.8589C27.1111 14.1668 26.7102 14.3356 26.2872 14.3339C25.8684 14.3356 25.4675 14.1668 25.1584 13.859C24.845 13.5467 24.6651 13.1215 24.6651 12.6925C24.6651 11.6474 25.8399 10.2471 26.2893 9.9833C26.7387 10.2471 27.9134 11.6474 27.9134 12.6925C27.9134 13.1214 27.7337 13.5466 27.4202 13.8589Z"/>
</svg>
