<svg width="30" height="30" viewBox="0 0 30 30" fill="none" xmlns="http://www.w3.org/2000/svg">
<path d="M27.5115 11.0042L15.3231 5.72252C15.117 5.63318 14.8831 5.63318 14.6769 5.72252L2.48851 11.0042C1.83724 11.2864 1.83709 12.2131 2.48851 12.4953L6.87441 14.3958V19.469C6.87441 22.2029 10.4436 24.3444 15 24.3444C19.5565 24.3444 23.1256 22.2029 23.1256 19.469V14.3958L23.9382 14.0437V22.7193C23.9382 23.168 24.302 23.5318 24.7507 23.5318C25.1995 23.5318 25.5633 23.168 25.5633 22.7193V13.3395L27.5115 12.4953C28.1628 12.2131 28.1629 11.2864 27.5115 11.0042ZM15 7.35363L25.1448 11.7497L24.3402 12.0984L15.1008 10.9434C14.6554 10.8881 14.2494 11.2036 14.1937 11.6489C14.138 12.0942 14.4539 12.5003 14.8992 12.556L21.4069 13.3695L15 16.1458C9.26857 13.6622 10.4893 14.1911 4.85524 11.7497L15 7.35363ZM21.5005 19.4691C21.5005 20.2347 20.8721 21.0229 19.7765 21.6315C17.1671 23.0812 12.8405 23.0855 10.2235 21.6315C9.12789 21.0229 8.49953 20.2347 8.49953 19.4691V15.1001L14.6769 17.777C14.8827 17.8661 15.1166 17.8664 15.3231 17.777L21.5005 15.1001V19.4691Z" fill="#676767"/>
</svg>
