<svg xmlns="http://www.w3.org/2000/svg" viewBox="0 0 30 30">
<path d="M29.9,10.2c-0.1,0.5-0.2,1.1-0.2,1.6c0,0.1,0,0.2-0.1,0.3c0,0.2-0.1,0.4-0.4,0.5c-0.2,0.1-0.4,0-0.6-0.2c-0.1-0.1-0.3-0.3-0.4-0.4c-0.4-0.4-0.8-0.8-1.1-1.1c-0.5-0.5-1.1-0.5-1.5-0.1c-0.4,0.4-0.4,1,0.1,1.5c0.9,0.9,1.7,1.7,2.6,2.6c0.1,0.1,0.2,0.1,0.2,0.2c0.1,0.2,0.1,0.4-0.1,0.6c-0.2,0.2-0.4,0.2-0.6,0.1c-0.1-0.1-0.2-0.1-0.3-0.2c-1.4-1.4-2.9-2.8-4.3-4.3c-0.2-0.2-0.5-0.4-0.8-0.4c-0.4,0-0.7,0.2-0.9,0.5c-0.2,0.4-0.2,0.7,0.1,1c0.1,0.1,0.2,0.2,0.3,0.3c1.6,1.6,3.3,3.3,4.9,4.9c0.1,0.1,0.1,0.1,0.2,0.2c0.2,0.3,0.2,0.5,0,0.7c-0.2,0.2-0.5,0.2-0.7,0c-0.7-0.7-1.3-1.3-2-2c-0.8-0.8-1.7-1.7-2.5-2.5c-0.4-0.4-0.9-0.5-1.4-0.2c-0.4,0.3-0.5,0.9-0.2,1.3c0.1,0.1,0.2,0.2,0.3,0.3c1.5,1.5,3,3,4.5,4.5c0,0,0.1,0.1,0.1,0.1c0.3,0.3,0.3,0.5,0.1,0.8c-0.2,0.2-0.5,0.2-0.8-0.1c-1.2-1.2-2.4-2.4-3.7-3.7c-0.3-0.3-0.6-0.4-1-0.4c-0.7,0.1-1.1,1-0.6,1.5c0.1,0.1,0.2,0.2,0.3,0.3c1.2,1.2,2.4,2.4,3.5,3.5c0.4,0.4,0.4,0.6,0,1c-2.3,2.1-4.8,3.9-7.5,5.5c-0.3,0.2-0.6,0.2-0.9,0c-2.7-1.6-5.2-3.5-7.5-5.6c-0.4-0.3-0.4-0.6,0-1c1.2-1.2,2.4-2.4,3.6-3.6c0.3-0.3,0.4-0.5,0.4-0.9c0-0.4-0.2-0.7-0.6-0.8c-0.4-0.1-0.7-0.1-1,0.2c-0.2,0.2-0.5,0.4-0.7,0.7c-1,1-2,2-3,3c-0.1,0.1-0.1,0.1-0.2,0.2c-0.2,0.2-0.5,0.2-0.7,0c-0.2-0.2-0.2-0.4,0-0.7C4.8,20.1,4.9,20.1,5,20c1.5-1.5,3.1-3.1,4.6-4.6c0.3-0.3,0.4-0.6,0.4-1c-0.1-0.7-0.9-1.1-1.5-0.6c-0.1,0.1-0.2,0.2-0.3,0.3c-1.4,1.4-2.9,2.8-4.3,4.3c-0.1,0.1-0.1,0.2-0.2,0.2c-0.2,0.1-0.4,0.1-0.6-0.1c-0.2-0.2-0.2-0.4-0.1-0.6c0.1-0.1,0.1-0.2,0.2-0.2c1.7-1.7,3.3-3.3,5-5c0.2-0.2,0.3-0.4,0.4-0.6c0.1-0.4-0.1-0.8-0.4-1c-0.3-0.2-0.8-0.2-1.1,0c-0.1,0.1-0.2,0.2-0.3,0.3c-1.4,1.4-2.8,2.8-4.2,4.1c0,0-0.1,0.1-0.1,0.1c-0.3,0.3-0.6,0.3-0.8,0.1c-0.2-0.2-0.2-0.5,0.1-0.8c0.8-0.8,1.6-1.6,2.4-2.4c0.1-0.1,0.2-0.2,0.3-0.3c0.4-0.4,0.4-1,0-1.4c-0.4-0.4-1-0.4-1.5,0c-0.3,0.3-0.6,0.6-0.9,0.9c-0.3,0.3-0.5,0.5-0.8,0.8c-0.2,0.2-0.3,0.3-0.6,0.2c-0.2-0.1-0.3-0.3-0.4-0.5c-0.1-0.6-0.2-1.1-0.2-1.7c0-0.1,0-0.1,0-0.2c0-0.5,0-1,0-1.6c0-0.1,0-0.2,0.1-0.4c0.1-1.4,0.5-2.8,1.4-4c1.7-2.3,4.1-3.3,6.9-3.1c2.3,0.2,4.2,1.3,5.8,3c0.3,0.3,0.5,0.7,0.8,1c0.1-0.1,0.2-0.3,0.3-0.4c0.1-0.1,0.2-0.3,0.3-0.4c2-2.4,4.5-3.5,7.6-3.3c1.7,0.2,3.2,0.9,4.4,2c1.1,1.1,1.8,2.4,2.1,3.9c0.1,0.5,0.2,1,0.2,1.5C29.9,9.1,29.9,9.7,29.9,10.2z M28.8,11.1c0.2-1.5,0.2-3-0.2-4.4c-0.3-1-0.8-1.9-1.5-2.6c-1.5-1.4-3.3-2.1-5.4-1.9c-1.9,0.2-3.5,1-4.8,2.4c-0.5,0.5-0.9,1.2-1.3,1.7c-0.3,0.5-0.7,0.5-1.1,0c-0.1-0.1-0.2-0.3-0.3-0.4c-1.7-2.6-4.1-4-7.2-3.7C5.3,2.3,3.8,3.1,2.7,4.4c-0.9,1-1.3,2.2-1.5,3.5c-0.2,1.1-0.1,2.1,0,3.2c0.4-0.4,0.7-0.7,1-1c0.8-0.8,2-0.9,2.8-0.1c0.3,0.2,0.4,0.6,0.6,0.9c0.8-0.9,1.7-1.4,2.9-0.7c1,0.6,1.1,1.5,0.8,2.5c1.5,0.5,1.9,1.6,1.2,3.2c0,0,0.1,0,0.1,0c1.4,0.5,1.8,2.1,0.8,3.2c-0.6,0.7-1.2,1.3-1.9,1.9c-0.6,0.6-1.1,1.1-1.7,1.7c0.1,0.1,0.1,0.1,0.2,0.1c2.1,1.8,4.3,3.4,6.6,4.9c0.2,0.1,0.3,0.1,0.5,0c1.7-1.2,3.3-2.3,5-3.5c0.6-0.5,1.2-1,1.8-1.5c-0.1-0.1-0.2-0.1-0.3-0.2c-1-1-2.1-2.1-3.1-3.1c-0.7-0.7-0.9-1.7-0.4-2.5c0.3-0.4,0.7-0.7,1.2-0.9c-0.4-0.6-0.6-1.2-0.3-1.9c0.2-0.7,0.8-1.1,1.5-1.3c0-0.1,0-0.1,0-0.1c-0.3-0.9,0-1.8,0.7-2.3c0.8-0.5,1.7-0.5,2.5,0.1c0.2,0.2,0.4,0.4,0.6,0.6c0,0,0.1,0,0.1-0.1c0.4-1.3,2.2-1.9,3.4-0.7C28.1,10.5,28.4,10.8,28.8,11.1z"/>
</svg>
