<svg width="30" height="30" viewBox="0 0 30 30" fill="none" xmlns="http://www.w3.org/2000/svg">
<path d="M29.8084 6.80002C29.7445 6.39446 29.5589 6.01788 29.2761 5.72023C28.9934 5.42258 28.6268 5.2179 28.225 5.13335L23.3334 4.05835C22.8088 3.94395 22.2658 3.94352 21.741 4.05709C21.2163 4.17067 20.722 4.39561 20.2917 4.71669L5.83336 15.25L1.78337 15.0834C1.45779 15.0717 1.13683 15.1629 0.866055 15.3441C0.595282 15.5252 0.388469 15.7871 0.27499 16.0925C0.161512 16.3978 0.147138 16.7312 0.23391 17.0452C0.320683 17.3592 0.504189 17.6379 0.758365 17.8417L4.92503 21.1167C5.42503 21.725 5.75836 21.6084 14.0334 17.1L14.8084 24.95C14.8213 25.1642 14.8947 25.3702 15.0201 25.5443C15.1454 25.7184 15.3177 25.8533 15.5167 25.9334C15.6599 25.9899 15.8127 26.0182 15.9667 26.0167C16.2766 26.0072 16.5727 25.8858 16.8 25.675L18.7917 23.8584C18.99 23.6746 19.1243 23.4322 19.175 23.1667L21 13.25C23.975 11.5834 26.7917 10.0167 28.8 8.87502C29.1593 8.67291 29.4484 8.36594 29.6286 7.99515C29.8088 7.62436 29.8715 7.20741 29.8084 6.80002ZM27.975 7.42502C25.8917 8.60835 22.975 10.2667 19.8417 11.9834L19.5 12.175L17.5584 22.7334L16.3334 23.85L15.4167 14.4334L14.3084 15C8.33336 18.3334 6.3417 19.3 5.65836 19.6L2.07503 16.7584L6.30837 16.9417L21.3084 6.05835C21.5441 5.88208 21.8145 5.75757 22.1017 5.69295C22.3889 5.62833 22.6865 5.62506 22.975 5.68335L27.85 6.73335C27.9252 6.74697 27.994 6.78423 28.0464 6.83969C28.0989 6.89516 28.1323 6.96593 28.1417 7.04169C28.1589 7.11501 28.1519 7.19191 28.1219 7.26097C28.0919 7.33002 28.0404 7.38756 27.975 7.42502Z"/>
<path d="M5.83335 10.45L8.80001 11.2834L10.1667 10.2917L6.83335 9.32503L8.33335 8.40836L12.8917 8.27503L14.8083 6.88336L8.33335 7.08336C8.12921 7.07232 7.92634 7.12159 7.75001 7.22503L5.55835 8.50003C5.37715 8.60737 5.23179 8.76594 5.14058 8.95577C5.04936 9.14559 5.01638 9.35816 5.04579 9.5667C5.0752 9.77524 5.16568 9.97041 5.30584 10.1276C5.44599 10.2848 5.62954 10.397 5.83335 10.45Z"/>
</svg>
