<svg width="30" height="30" viewBox="0 0 30 30" fill="none" xmlns="http://www.w3.org/2000/svg">
<path fill-rule="evenodd" clip-rule="evenodd" d="M15 4.75C9.33908 4.75 4.75 9.33908 4.75 15C4.75 20.6609 9.33908 25.25 15 25.25C20.6609 25.25 25.25 20.6609 25.25 15C25.25 9.33908 20.6609 4.75 15 4.75ZM3.25 15C3.25 8.51065 8.51065 3.25 15 3.25C21.4893 3.25 26.75 8.51065 26.75 15C26.75 21.4893 21.4893 26.75 15 26.75C8.51065 26.75 3.25 21.4893 3.25 15Z" fill="#4242EA"/>
<path fill-rule="evenodd" clip-rule="evenodd" d="M15 7.96436C15.4142 7.96436 15.75 8.30014 15.75 8.71436V15.0001C15.75 15.4143 15.4142 15.7501 15 15.7501C14.5858 15.7501 14.25 15.4143 14.25 15.0001V8.71436C14.25 8.30014 14.5858 7.96436 15 7.96436Z" fill="#4242EA"/>
</svg>
