<svg width="32" height="32" fill="none" xmlns="http://www.w3.org/2000/svg"><rect x="2.668" y="5.333" width="26.667" height="21.333" rx="5" stroke="#000" stroke-width="2"/><path d="M21.985 14.093a1 1 0 10-1.301-1.519l1.301 1.519zM11.32 12.574a1 1 0 10-1.302 1.519l1.302-1.519zm4.68 5.76c.246 0 .454-.081.552-.122.125-.051.25-.117.365-.182.232-.133.499-.31.775-.505.555-.392 1.22-.907 1.85-1.41a101.224 101.224 0 002.388-1.976l.04-.034.01-.01c.002 0 .003-.001.003-.002h.001l-.65-.76-.651-.759-.003.003-.01.008-.038.032-.147.126a98.86 98.86 0 01-2.193 1.81c-.62.495-1.247.98-1.754 1.338a8.2 8.2 0 01-.613.402c-.077.044-.12.064-.137.071-.044.018.05-.03.212-.03v2zm0-2c.163 0 .256.048.213.03a1.398 1.398 0 01-.137-.07 8.2 8.2 0 01-.614-.403 39.316 39.316 0 01-1.754-1.338 98.759 98.759 0 01-2.192-1.81l-.147-.126-.039-.032a.031.031 0 00-.01-.008.061.061 0 00-.002-.002l-.651.758-.65.76.003.003.01.009.04.034a58.426 58.426 0 00.695.586c.45.378 1.061.883 1.694 1.39.63.503 1.294 1.018 1.85 1.41.276.195.543.372.775.505.115.065.24.13.364.182.098.041.306.121.552.121v-2z" fill="#000"/></svg>