<svg width="30" height="30" xmlns="http://www.w3.org/2000/svg"><path fill="#F75B46" d="M22.1 25.7H7.9c-3.3 0-6-2.7-6-6v-9.3c0-3.3 2.7-6 6-6h14.2c3.3 0 6 2.7 6 6v9.3c0 3.3-2.7 6-6 6zM7.9 6.3c-2.2 0-4 1.8-4 4v9.3c0 2.2 1.8 4 4 4h14.2c2.2 0 4-1.8 4-4v-9.3c0-2.2-1.8-4-4-4H7.9z"/><path fill="#F75B46" d="M20.5 13.9c.4-.4.5-1 .1-1.4-.4-.4-1-.5-1.4-.1l1.3 1.5zm-9.7-1.5c-.4-.4-1.1-.3-1.4.1-.4.5-.3 1.1.1 1.4l1.3-1.5zm4.2 5.4c.2 0 .4-.1.5-.1.1 0 .2-.1.3-.2.2-.1.5-.3.7-.5.5-.4 1.1-.8 1.7-1.3.6-.5 1.1-.9 1.5-1.3.2-.2.4-.3.5-.4l.1-.1-.7-.8-.7-.8-.1.1c-.1.1-.3.2-.5.4-.4.3-.9.8-1.5 1.2-.6.4-1.1.9-1.6 1.2-.2.2-.4.3-.5.4-.1 0-.1.1-.1.1h.2v2.1zm0-2c.2 0 .3.1.2 0l-.1-.1c-.1-.1-.3-.2-.5-.4-.5-.3-1-.8-1.6-1.2-.6-.4-1.1-.9-1.5-1.2-.2-.2-.4-.3-.5-.4-.1 0-.1-.1-.1-.1l-.7.8-.7.8.1.1c.1.1.3.2.5.4.4.3 1 .8 1.5 1.3.6.5 1.2.9 1.7 1.3.3.2.5.3.7.5.1.1.2.1.3.2.1 0 .3.1.5.1v-2.1z"/></svg>