<svg width="30" height="30" fill="none" xmlns="http://www.w3.org/2000/svg"><path d="M15 5.6a4.775 4.775 0 100 9.55 4.775 4.775 0 000-9.55zm0 7.883a3.109 3.109 0 113.108-3.108 3.108 3.108 0 01-3.108 3.1v.008z" fill="#4242EA"/><path d="M15 1.667a9.825 9.825 0 00-9.816 9.774c0 3.892 2.183 7.15 3.783 9.525l.292.434a82.991 82.991 0 005.116 6.667l.634.741.633-.741a83.158 83.158 0 005.117-6.667l.291-.442c1.592-2.375 3.775-5.625 3.775-9.516A9.825 9.825 0 0015 1.666zM19.66 20l-.3.442C17.925 22.591 16.025 25 15 26.192c-.983-1.192-2.925-3.6-4.358-5.75L10.35 20c-1.475-2.2-3.5-5.209-3.5-8.592a8.15 8.15 0 1116.3 0c0 3.417-2.016 6.425-3.491 8.592z" fill="#4242EA"/></svg>