<svg width="20" height="20" xmlns="http://www.w3.org/2000/svg"><path fill="#4242EA" d="M5.5 2.3c-.4.1-.5.1-1.3 1.3l-.4.7v-.2c0-.1-.1-.3-.1-.4-.2-.4-.6-.7-1-.8-.4-.1-1 .2-1.2.7l-.1.2v4.6l-.1.3c-.1.2-.3.3-.7.6-.1 0-.3.2-.3.2 0 .1-.1.7-.1 2.5v2.4l.1.1c.1.1.1.1.2.1s.6-.2 1.2-.4c1-.2 1.2-.2 1.4-.2.1 0 .7.2 1.2.4.9.3 1 .4 1.3.4.3 0 .4 0 .6-.1.5-.3 2.2-1.3 2.3-1.5 0-.1.3-.7.6-1.4.6-1.4.6-1.5.4-1.6l-.2-.2.1-.2c.1-.2.1-.3.1-.6 0-.4 0-.5-.9-1.4-.5-.7-.7-.9-1.1-.9-.1 0-.2 0-.2-.1s.3-.3.8-.6c.5-.2.8-.4.9-.5.2-.2.3-.4.3-.8s-.1-.7-.4-.9c-.6-.4-1-.3-1.9.2-.7.5-.7.5-.7.4 0 0 .1-.2.2-.3.3-.5.4-.6.4-1 0-.3 0-.3-.1-.5-.3-.4-.8-.7-1.3-.5zm.6.8c.1.1.2.3 0 .5 0 .1-.3.4-.6.8l-.4.7-.3.9c-.2.5-.3.9-.3 1 0 .3.4.5.6.3l.6-.8.5-.8.8-.5c1.2-.7 1.3-.8 1.5-.5.1.3 0 .4-.7.9-.4.2-.7.3-.7.4-.2.1-.8 1-.8 1.2 0 .2.1.4.2.4h.6c.5 0 .4-.1 1.2.8.5.6.6.7.6.8 0 .2-.2.4-.4.4-.1 0-.2-.1-.7-.5-.3-.3-.6-.6-.7-.6-.1-.1-1.4-.1-1.6 0-.2.1-1 1.5-1 1.7 0 .2.8 1.6 1 1.7.2.1 1.4.1 1.5 0 0 0 .2-.3.3-.5.5-.9.7-1.1 1.2-.9.1 0 .2.1.2.1l-.4 1-.4 1s-.5.3-1.1.7c-.9.5-1.1.7-1.2.7-.1 0-.6-.2-1.2-.4-1-.4-1-.4-1.4-.4-.4 0-.4 0-1.2.3l-.8.2V9.9l.2-.1c.3-.1.6-.5.7-.7.3-.5.3-.6.3-2.9 0-2.4 0-2.3.3-2.4h.3c.2 0 .2 0 .2 1.5s0 1.5.3 1.6c.2.1.3 0 .4-.1 0-.1.2-.5.3-.9.2-.8.2-.9.5-1.3.5-.7 1-1.4 1.1-1.5.1-.1.3-.1.5 0zm8 2.3c-.2.1-.3.1-1.4.8-.7.5-1 .7-1.1.8-.1.1-.3.7-.6 1.4-.4 1-.5 1.3-.5 1.4 0 .1.1.3.2.3 0 0 0 .1-.1.3-.2.3-.2.7 0 1 .1.1.4.5.7.9.7.7.8.9 1.2.9.1 0 .2 0 .2.1s-.2.3-.9.7c-.9.5-1 .7-1 1.3 0 .4.1.7.4.9.5.4.9.3 1.9-.3.4-.2.7-.4.7-.4s-.1.2-.3.4c-.2.3-.3.6-.4.7-.1.4 0 .8.3 1.1.2.2.4.3.8.3.6 0 .7-.1 1.5-1.2.4-.5.5-.7.5-.6 0 0 .1.2.1.3.1.3.3.5.6.7.5.3 1 .1 1.4-.3.3-.3.3-.4.3-2.8v-2.3c.1-.3.3-.6.6-.7.2-.1.3-.2.4-.3l.1-.1V5.6c0-.1-.1-.1-.2-.2s-.2-.1-1.1.3c-.5.2-1 .3-1.1.4-.3.1-.5 0-1.5-.3-1.1-.5-1.4-.6-1.7-.4zm1.4 1c1.1.4 1.3.5 1.6.4.2 0 1.1-.3 1.7-.5 0 0 .1.4.1 1.9v1.9l-.3.2c-.4.3-.8.8-.9 1.3v2.3c0 2.2 0 2.2-.2 2.4-.1.1-.3.1-.5 0v-3l-.1-.1c-.2-.2-.5-.1-.6.1 0 0-.1.5-.2.9l-.2.8-.6.8c-.7 1-.8 1.2-1 1.2-.1 0-.2 0-.3-.1-.2-.2-.2-.3.1-.7.1-.2.4-.5.6-.8l.3-.5.2-.9c.1-.5.2-.9.2-1 0-.3-.4-.5-.6-.3l-.6.8-.5.7-.8.5c-1.2.7-1.3.8-1.5.5-.2-.3-.1-.4.6-.9.3-.2.6-.4.7-.4.1-.1.7-1 .8-1.2 0-.2-.1-.4-.2-.4h-1l-.1-.1C11.1 11 11 10.9 11 10.8c0-.2.2-.4.4-.4.1 0 .2.1.7.5l.6.6c.1.1 1.4.1 1.6 0 .2-.1 1-1.5 1-1.7 0-.2-.8-1.6-1-1.7.1-.1-1.2-.1-1.3 0 0 0-.2.3-.3.6-.5.9-.8 1.2-1.2.9-.1 0-.1-.1-.2-.1 0 0 .2-.4.4-1 .2-.5.4-1 .4-1.1 0-.1.1-.1.1-.2l1-.6c.8-.5 1-.6 1.1-.6.2.1.6.2 1.2.4zm-1.1 2.9c.2.3.3.5.3.5s-.1.2-.3.5l-.3.5h-1l-.3-.3-.3-.3.2-.2c.2-.2.4-.6.6-.9l.1-.2h.8l.2.4zm-7.2.2l.3.3-.2.3c-.2.2-.3.4-.4.7l-.2.4h-.6l-.3-.5c-.2-.3-.3-.5-.3-.5s.1-.2.3-.5l.3-.5h1l.1.3z"/></svg>