<svg width="47" height="45" viewBox="0 0 47 45" fill="none" xmlns="http://www.w3.org/2000/svg">
<path d="M24.6598 23.5715L32.2268 36.7987C32.2903 36.91 32.3789 36.9749 32.4709 36.9749L38.7268 37.0131C38.8673 37.0148 38.996 36.8685 39.0495 36.644C39.1031 36.4196 39.0763 36.1636 38.9776 35.9907L31.6532 23.1891L39.1332 10.4773C39.2335 10.3061 39.2653 10.0484 39.2118 9.82395C39.1582 9.5995 39.0328 9.4532 38.8924 9.45154L32.6365 9.4133C32.5445 9.4133 32.4559 9.47648 32.389 9.5862L24.6615 22.7203C24.5261 22.9563 24.5244 23.3354 24.6598 23.5715Z" fill="#4242EA"/>
<path d="M41.5211 28.0903C44.2059 28.0903 46.3824 25.9264 46.3824 23.2573C46.3824 20.5881 44.2059 18.4243 41.5211 18.4243C38.8364 18.4243 36.6599 20.5881 36.6599 23.2573C36.6599 25.9264 38.8364 28.0903 41.5211 28.0903Z" fill="#4242EA"/>
<path d="M19.7685 19.5415L28.0495 6.74492C28.1197 6.63685 28.1365 6.52879 28.093 6.44732L25.2268 0.917717C25.1632 0.793027 24.9742 0.748138 24.7485 0.803002C24.5227 0.857866 24.3087 1.00251 24.1983 1.16876L16.1849 13.5547L1.38882 12.8597C1.18982 12.8498 0.945675 12.9412 0.770089 13.0925C0.594502 13.2438 0.522596 13.4217 0.586141 13.5464L3.45238 19.076C3.49418 19.1574 3.59118 19.2073 3.72161 19.214L19.0093 19.9322C19.2819 19.9422 19.6214 19.7693 19.7685 19.5415Z" fill="#E5E5E5"/>
<path d="M11.6715 9.66601C14.3563 9.66601 16.5327 7.5022 16.5327 4.833C16.5327 2.16381 14.3563 0 11.6715 0C8.98669 0 6.81024 2.16381 6.81024 4.833C6.81024 7.5022 8.98669 9.66601 11.6715 9.66601Z" fill="#E5E5E5"/>
<path d="M18.9976 25.3637L3.71156 24.5923C3.5828 24.5856 3.48079 24.6255 3.43063 24.702L0.0342845 29.9257C-0.042639 30.0437 0.0125452 30.2283 0.173081 30.3945C0.333617 30.5608 0.56606 30.6755 0.765058 30.6871L15.5595 31.4336L22.3154 44.5394C22.4057 44.7157 22.608 44.8803 22.8271 44.9567C23.0461 45.0332 23.2384 45.0066 23.3137 44.8902L26.71 39.6665C26.7602 39.5901 26.7552 39.4803 26.6966 39.3656L19.715 25.8242C19.5913 25.5831 19.2702 25.377 18.9976 25.3637Z" fill="#F75B46"/>
<path d="M10.1966 44.4995C12.8813 44.4995 15.0578 42.3357 15.0578 39.6665C15.0578 36.9973 12.8813 34.8335 10.1966 34.8335C7.51177 34.8335 5.33533 36.9973 5.33533 39.6665C5.33533 42.3357 7.51177 44.4995 10.1966 44.4995Z" fill="#F75B46"/>
</svg>
