<svg width="330" height="418" fill="none" xmlns="http://www.w3.org/2000/svg"><path d="M104.19 320.867l-1.959-.522v-2.108l-1.814-.602-1.886-2.493-2.64-.978-.566-2.753-1.248-1.247.414-1.319-1.85-1.848-1.589-1.587-.979-2.717-1.509-.152v-1.732l-1.624-1.776-1.32-1.318h-1.93v1.847l-1.698 1.696-2.64-.377v-1.732l-1.132-.978v-2.188l-2.343-.305-2.72-1.282-2.568.304-2.568-.377-1.436 1.732-.718 2.377-1.698 1.696.682 2.34-.907 2.718-2.263 2.261v4.224l-3.17 2.189v2.493l-1.357-1.884v-2.116l-1.588-1.587-1.509.681-.377 1.956-4.005 1.508H47.79l-.754 2.261-1.211 1.811-2.605.189-2.908-2.906-.305-6.037.377-3.623v-3.391l.45-3.015v-2.942l-2.111-.906-1.509-.529-.225-1.435-.696-1.637-1.378-1.377v-1.623l.943-.942.26-2.225-1.32-1.319h-1.74l-1.886-.906v-1.732l.754-.753-.834-.834-.682-2.637-1.509-2.718-1.813-1.283-2.039.602-1.966.152v-2.341l1.625-.449v-1.543l-1.697-1.696-.08-1.435-1.777-.116-1.32 1.319-1.662-.754-2.19.826-1.06-1.282H13.79l-.98.978h-1.965l-1.284-.601v-2.413l.754-.754v-1.587l-.602-1.812 1.436-2.261.835-2.34-2.496-2.486-.682-3.319-2.11-1.13v-2.116l.834-.754-.835-.833v-1.964l-2.263-.906-.682.681-.682-2.036 1.132-1.13 1.204-1.964 1.814-.529-.682-4.674-.53-3.015v-1.587l-2.11-3.848-.225-4-2.111-1.435-.907-2.116L0 216.111v-1l2.539-1 2.626-3.71 1.813-.544 2.452.725.726-1.63v-1.993l-1.364-1.363.638-2.355 1.814-.637-.087-4.348 1.995-1.363 2.314-2.311.5-1.674h1.001l-.181-2.45h-1.9l-1.727-3.261v-2.985l-1.538-1.536-3.264-2.355v-1.269l-2.452-.905-.856-1.805.413-2.427-1.03-1.029-1.073-1.616-.552-1.399.835-.877.239-1.159-.965-.768-.312-2.124 2.053.486 2.416.964.486-1.45 1.509-2.116 1.269 1.269v2.413l1.45 2.05h1.691l-1.69-1.572 1.146-1.152 2.234-2.232 3.025-1.573 4.592-.848 3.627-1.087.907 1.392-.85.848 1.996 1.992h3.75l.123-.963.363-1.327 1.451 2.298 2.539-.964 2.539-2.174s2.662-.486 3.264-.486c.602 0 0-2.174 0-2.174l-.363-2.413-1.813-2.775.486-2.776.363-1.449 1.45 1.449 1.51-1.144 1.269 1.268 1.937 1.326.486-1.45.964-.239.965 1.087.965-.724s-.123-2.232.783-2.232c.907 0 1.146-1.145 1.146-1.145l2.663 2.051.848-.848 2.902.963-.965 2.957h1.393l1.393 1.391v2.319l2.3-1.449 1.21 1.21v2.66l-1.573.485-.965.964 1.69 1.688s1.328-.601 1.328-1.21c0-.601 1.088 1.087 1.088 1.087v1.935l2.48-.058 2.358 2.355 1.814 1.21 2.538.486 1.088-1.087 2.779 1.449.24-2.297-1.212-3.986-.726-1.811v-1.689l-1.574-1.572v-2.174l3.025.362 1.69 1.689 2.663-.725h3.024l-.602-3.145 1.69-3.138 3.142-.724 2.3-.124 2.661.725v-1.812l-2.843-1.268 1.03-1.029 1.327-1.449 2.3.123 1.813-1.811-.848-.486-1.814-1.812-2.053-1.087v-2.659l-.849-.725-1.21 3.138-1.452-.964v-2.536l2.662-2.413-.362-1.689-2.54-1.572 1.575-1.573h2.3l3.387-1.688.965-2.775 4.476-1.689 3.503-1.572s.486.485.486 1.21c0 .724-2.299 1.572-2.299 1.572l-.849 3.261 2.053-.964 1.814-1.811 2.299.724-.602 4.711 2.053-1.935v-2.297l-.725-3.863.486-1.688 1.088-3.022 2.539-1.21 3.627-1.573 2.176 1.573s-1.03 1.391-1.814 2.174c-.783.782.849 1.326.849 1.326h2.662l1.69-1.935s1.937 2.051 2.3 2.413c.363.363-.363-2.775-.363-2.775l3.265-1.812 2.299 1.21 2.539-.123 2.3-2.297 2.415-3.022v-3.5l3.025-4.471 2.539-2.536 2.299-2.776 3.99-.601 3.323-.181 1.632 1.63 3.387 3.384 3.025-1.326 2.176-1.754h2.358l-1.146-1.144v-1.689l2.299-2.297V88.52l1.088-2.05h1.814l1.574-1.573v-2.413l3.025-2.174.725-2.899-1.211-1.21.486-1.45-1.69-2.412 1.327-2.413 1.27-1.269 2.299 2.298-1.755 1.753 1.813 1.812h2.779l1.936-.725 2.663-1.21 2.415-.601.602-1.935-.725-1.935-1.328-.24-4.113-1.81-3.024.485-.726-1.689h-2.415v-1.326l.602-2.297 2.176-1.087.239-2.536 1.937-1.087h1.69l-.725-2.051.725-2.174 2.053-3.022.965-3.5 3.685-3.565 4.113-4.109 1.871-1.87 3.628-1.572 2.596-1.507 2.416-2.413 2.481-2.479 3.025-1.21 2.176-3.138 4.113-1.21 2.176-2.297 2.662-1.21 1.691-.964 1.936 1.935 2.779-.848 2.481 1.87 1.632-1.63 2.901-1.573v-1.45l-2.901.602-3.388-.24-2.176-.6.725-2.175 2.3-1.572-1.937-.486v-1.087l1.328.123.239-2.174 1.211-1.688 1.691-1.688 2.901-1.087h.849l2.176-3.022s2.053-.602 2.778-1.326c.726-.725 0 2.05 0 2.05l1.575 1.327 1.196 1.202-1.327 2.776s1.813 0 2.539-.725c.725-.724 0 1.45 0 1.45v2.536l-2.778 1.812 2.176.362 1.327-1.326 2.844 1.087v-1.268l2.234 2.232 1.574 2.413 1.328-.363 1.327-1.688v1.572l.849 1.935h-2.539v.964l2.053.601-1.088 3.138-2.778.24-2.539 2.775-1.328 2.898-2.539.848-1.813-.725h-2.3l-2.053 3.022.907 1.812v3.08l-1.995 1.993-1.574-1.21-1.574 1.21h-2.3l-1.327-1.087-1.212-.725-.181 1.145.907.906-1.088.485-.726.725 2.119.362v1.63l1.632 1.631 2.662-.724h1.813l.124 2.297 1.088-1.087 1.871 1.87 1.995 1.992.965 3.507.486 2.776-1.937 3.138h-1.813l-2.539 1.087-.849 1.934 2.053-.847h1.327l-1.936 2.297 1.218 1.21 1.574-.602v-2.297l1.451-1.087 2.597-.058 1.509-1.507.725-1.21 1.814.123 1.451-.24 2.662-.122v1.688h2.176l.602-1.145h2.118l1.27-1.268 1.574-.24 1.327 1.088 1.937-1.45.907 2.117 1.756 1.753v2.536l-2.416.964-1.574 3.384h-2.539l-.725 1.087 2.843 1.87-.907.906 2.053 3.138.849 3.862v4.348l.725 3.384 1.212 2.899.602 3.862 1.211 3.747 2.3 2.05v3.5l1.211 4.834 2.053 2.297 1.328 1.326-2.053 1.812-2.176-1.087-3.025.964-1.575 3.623-2.538 3.623 1.327 1.326-.965 3.384v1.812l2.053 3.138v1.935l-2.299-1.087-1.691-1.689-1.45.123 1.327 3.5v2.298l2.234 1.029-2.234 2.232h-1.451v3.137l-1.327 1.326 1.813 3.022 1.451 1.45 1.69 1.688 2.3 2.297.486 3.384.363 2.66 3.322 1.753 1.995 1.993h3.387l-.906-2.051v-1.029l1.146-1.144.848-1.812 3.142 3.138.602 2.775 3.141 2.174 3.112.696 1.24-1.239h1.995l2.357 2.355-.964 2.297-2.416.724.725 2.899 2.539 4.225 2.235.543 1.755 1.754 4.113-.486 2.416 1.935.848 2.174-1.45.964-2.053 1.326-1.212 2.66.849 4.833 2.416 3.747 2.118.782 1.03 1.029 3.504.848v1.449l-2.663.363v2.174l-.964 2.174 1.211 4.347 2.053.848 3.141 3.138 2.299 2.174.486 3.862 1.212 5.073.602 3.261v2.413l-1.328-1.812h-3.503l-2.235-1.145-1.755-1.753h-2.416l-2.176-2.174-4.229-1.935-3.99-1.688-4.591-2.413-1.328-1.812-2.176-1.449-2.416-.486-5.201-1.572-3.387-1.812-3.265-2.174c-.544-.544-1.574-2.899-1.574-2.899l-3.511-3.493-2.415-2.536v-2.536l-1.691-1.689-.362-2.775-2.053-2.899-2.234-.485v-1.029l1.03-1.029.848-1.812-1.146-1.993 1.088-1.087.907-.905-1.211-3.624-.602-3.862-1.451-4.471-2.3-3.022-.965-3.986-1.088-3.746-1.211-3.022-1.451-4.471-1.451-1.21-.123-2.413.849-2.899v-3.739l-1.451-1.449-1.574-3.022h-1.574l-1.509-.544-1.393-1.391-1.69-2.174-2.539-1.572v-2.776l2.299-2.174-.783-.782-1.871 1.869-2.663 1.449v2.537l-.725 1.935 1.451 1.326 2.118 2.116 1.995 1.992h2.415l-.239 1.573-1.088-.123-1.146 1.63 1.509 1.508v3.862l1.211 2.899.239 4.587-.848 2.775-.965-2.413-2.176-1.087v3.022l-1.814-1.812-1.211-1.21-.965-2.051-3.388-3.138.965 2.66-.965 2.899h-3.264v1.934l-1.088 3.986-1.328 1.572.124 5.312 2.176 1.449-.363 3.385 2.176 3.384v3.623l.668 4.768 1.995 1.993v2.174l1.69 1.688 1.574-.239 1.393-1.268 1.03-1.029h1.813l-.123 2.297-1.937.602v3.261l-3.627.601.849 4.225-.363 1.812-2.299.963v2.537l-.849 2.297s-2.844.666-2.3.123-1.088-1.087-1.088-1.087v-1.572l.486-1.573 1.995-.667-.907-.905-2.176.847-2.299.363v1.087l-3.388 1.572-1.69 2.051-1.937.485-1.574 1.573-.602 1.812.602 2.297 1.327 1.326-1.574 1.688-2.539-.963.784 2.594-1.872 1.869-1.719 1.566h-1.451l-1.451 1.326.965 1.572.726.725-2.053 1.326h-2.779l-2.72 2.717-1.755 1.754-1.937 3.261-2.053 2.051-2.053 4.109-.363 3.985 1.937 3.863-1.813 1.811-.602 3.863 1.088 2.775 1.69 1.689-1.451 2.413v7.609l-.725 3.021v4.109l1.211 1.326v6.16l-1.088 4.109v3.384l-1.813 3.022v3.021l-.965 2.66 1.088 2.449h1.842l1.422-1.42h1.995l1.574-1.573 1.756-1.753 1.211 1.21 1.451.725v1.572l1.146 2.116 1.451 1.449 1.269-1.268v-1.935l-1.69-.724v-1.812l1.328-1.449v1.21l1.45 1.087.726-.239.725.724v3.747l2.416-.964v-1.21l1.327-1.812.849-.724 1.327.963.305-1.992-1.146-1.145-1.088-2.051-1.328-2.413 2.177-1.21 1.327-1.326 2.662-.602h3.141l2.597.304 1.146 1.145s2.779-.485 3.388-.485 2.3-.725 2.3-.725l1.508 1.507-1.146 1.145-.848.848-.726 1.326h4.229l.486 1.573 1.814 1.812 2.234-.305 1.146 1.145 1.212 2.297.362 4.587 1.574 4.834 2.481 3.565 3.083 3.08 1.212 1.21.602 2.051 2.415 2.413 1.69 2.899.603 1.688 2.234 3.442 1.871 1.87v5.072l-.725 4.348 1.327 4.348-.123 4.471 1.328 3.5.964 3.863.726 3.5.725 4.71v4.587l-.725 2.413v10.508l-.726 4.348.726 4.471-.24 5.797v2.775l-2.415 3.986-1.574 3.384-1.814 3.384h-1.574l-3.025 1.211-2.539 1.449-1.755-.725v-1.63l-.907-.906-.907 2.051v2.232l-1.03-1.029-1.574-1.573v1.21l-.486 3.022.486 2.051-.667 2.355-1.009 1.029V418l-2.299-.123-.965-.964.849-2.775 1.451-2.899v-2.413l-1.27-2.841-2.597-2.594-1.327-1.326-1.088-2.776-2.3-2.297-2.176-.724-.058-2.356 1.509-1.507 1.327-1.326v-2.413l1.69-1.688 1.937-.964 1.995.666 1.755-1.753 1.089-2.174-1.937-3.022.965-2.536-1.212-2.66-.239-2.775-1.69-2.297.486-1.935-1.335-2.297-.602-2.66-2.416-2.536 1.814-1.812v-2.659l-1.509-1.508-1.748-1.753-.486-1.573h-2.053l-2.902 1.573-.725 2.413-1.937 3.138-2.176 2.775.964 3.022-2.538 2.051-2.539 1.449-2.177.725-.602 2.174h-2.299l-2.3-1.327-1.69-.601v-2.775l-1.937-1.689-1.567-1.572-2.604-.667-1.393 1.391-2.778-.724-2.299-.602-3.504.486h-3.264l-1.328 1.326-3.627 1.326-3.627-.725-1.509-2.956-1.755-1.754s-2.053-1.21-2.053-1.688c0-.486-2.3-2.298-2.3-2.298l-2.901-.485-1.212-2.899-2.778-2.174-1.937-1.935-2.662-.724-.965-2.536-2.415-1.087-1.451-1.45-4.839-.485h-2.539l-2.901 1.572-3.627-.601-2.778.964h-3.025l-4.113 3.021-1.937 1.935-1.748-3.014-.784-1.573h-2.053l-.602-2.594-1.03-1.573 1.814-1.087v-.847h-.965l-1.632-1.754-1.328-.181.305-3.08-.784-1.391-.848-2.356-1.937-.963-1.393 1.934-1.451-.543-.123-2.051-.965-.964-1.422-.391-1.479 1.478-.726 1.812-2.481-.667-.783-1.507 1.451-1.812-.849-1.391-1.632.544-2.118-.544-1.458-1.471-.029-1.464zm127.264-49.994l-.834.211-.624-1.776v-1.565l2.72.732 1.357.623.732 1.674 1.466 1.464 2.611.521.624 1.674 2.931 1.884h1.567l1.255 1.776 1.044 2.819 1.618 1.616 3.083 3.188 1.987.522 2.721 1.044 2.611 2.297 3.555 1.985 2.299 1.986 3.032 1.565 2.612 1.565 1.675 1.355 2.931 1.153-.421 1.362-1.044 1.043-1.988.624h-1.567l.421 2.195-.421 1.566v1.253l1.777 2.718s1.676 1.877 1.364 2.195c-.312.319.109 3.24.109 3.24l1.364 1.362 2.089 2.094 1.777 1.152h2.72l1.567 1.566h1.777l.944 1.985 2.299.102 1.415-1.413 2.459 1.413 1.465 1.884s.522 1.253 0 1.253-3.351-1.362-3.351-1.362l-1.205 1.203h-2.669l-.834 2.145.522 2.087 1.676 1.674 1.255 2.717-1.676 1.363-1.364-1.674-1.777-1.776-3.141-2.927v-1.986l-2.089-2.087-1.988-1.985-1.363-1.776-1.676-3.239-2.089-1.985-2.198-1.254-2.089-.623-1.778-3.761-3.873-5.326-3.141-3.138-2.612-2.609-2.299-3.138-1.466-2.406-3.975-1.775-3.141-1.355-1.886-.21-2.51-3.45v-1.565l-2.72-2.717-1.465-2.718-2.931-.942.733-2.087v-1.565l2.408.732.421-2.087-1.415-1.413v-.783l-1.385-1.384-1.988-.725zm88.39 54.545l.421 2.196.21 2.094.842.312v-1.674l.624-1.363v-1.884l-2.097.319zm7.218 1.254v.942l1.364.732v-1.566l-1.364-.108zm-4.287-8.464l1.255.522.421-1.674-.631-3.341 1.153-1.152-.21-2.406-1.778-.522-.522 2.718.682.674-.573 2.036.203 3.145zm3.141-13.79l-.522.521.42 1.776.835-1.254-.733-1.043zm1.255-6.377l.522-2.718-.732-1.674.42-1.775 1.415-1.413.363 1.935-.312 1.985.42 2.297-.732 1.674-1.364-.311zm1.364-23.305v4.181H330l-.421-1.775v-2.508l-1.044.102zm-60.883-134.902v2.297l-.211 2.087 1.255.834.834 1.043.102 1.884 1.676.631-.421-1.884-.733-1.464.733-2.406v-2.928l-1.988-.833-1.247.739zm40.687 10.971l-1.465.522.733 1.565h5.02l1.567-1.565-1.988-.63-1.988.833-1.879-.725zm7.218 77.017l-.624 1.884-.993.993 1.153 1.152.682 1.413-.211 1.884-.108 2.406 1.095 1.094 1.204-.681v-2.508l1.096-1.094-.893-2.145-1.465-1.463.102-1.885-1.038-1.05zm4.498 16.297v1.565l1.044.522.733-.942-1.777-1.145zm-2.822-98.749l-1.364.942.733.732.994-.992.993-.993-1.356.311zM178.797 19.672l-.957-.363-.842.877-1.842.957-1.502 1.5.138 2.58-.638.637.319 2.08 1.197 1.761 1.24 2.877 1.922.398 1.299-1.297.979-1.775-1.081-1.16 1.603-2.318-.282-2.515v-3c.007 0-1.553-1.24-1.553-1.24zm23.583 261.962l-1.045 1.153v3.029l1.778-.732.943.942 1.044-1.044.421-2.094-1.153-1.674-1.988.42zM82.645 95.71l-.218-.877 1.647.768.82-.819 1.153-1.152 1.698-1.696 1.044 1.261h.552l1.37-1.37 1.263-1.478 2.415-1.094 1.756 1.32-.987 2.738v1.536L94.005 96l-1.814.819-1.973.768h-1.973l-1.48 1.478-2.357-.819-1.204-1.753-.559-.783zm-4.062 2.304h-3.511l-1.154 1.153-1.813 1.26-1.32-1.319-3.185.986.218 1.971.827.819 1.204 1.203.827.819-1.204.985-1.647-1.427-.878.877-1.204-1.203-2.742.55-1.204-.659-.551 1.427.877.877-1.646.877v2.08l1.32 1.319-.334 1.536h1.204l1.538 1.536-.442 1.754 1.973.985 2.633.109 1.096 1.094h1.973l2.306-.659v-1.754l-1.429-1.319.77-.768 1.153 1.153 2.03-3.674 1.923-1.921.827.819 1.756-1.754.55-1.645-1.972-.659-1.32 1.319-1.647-1.203-1.973-1.203-1.973-1.428.66-1.427 1.044-1.044.82 2.798 1.262 1.26 2.14.384 1.32-.55h1.096l1.095-1.094-.551-2.305h-1.756l.436-1.97V97.55l-1.422.463zm1.864 19.291l-.987.876.77 2.189 1.262 1.261 1.044-2.029v-1.645l-.769-.768-1.32.116zm4.505 1.971l-1.262 1.261.71 1.695 1.205 1.203-.77 1.754.66.659.987-2.08 2.525-.55 2.198-.877 2.96-1.754-1.538-2.848h-2.082l-2.96-.985-1.37 1.261-1.263 1.261zm-24.693-4.711l-.986-.985-1.756-.109 1.153 1.152.711 2.573h1.43v-1.428l-.552-1.203zM5.404 157.197l-2.03 2.029v1.369H5.07l.55 1.319 1.43-.659 1.647-1.645v-2.631H6.616l-1.212.218zm71.532-77.161l-.66 1.203.71.71.828-.71-.878-1.203zm-6.144 47.899l-2.082-.435-.66.551 1.204.551 1.538 1.203.66-.877-.66-.993z" fill="#4242EA"/></svg>