<svg width="50" height="50" fill="none" xmlns="http://www.w3.org/2000/svg"><path d="M33.75 7.5a6.25 6.25 0 016.237 5.84l.013.41v6.375a6.253 6.253 0 014.985 5.698l.015.427v15a1.25 1.25 0 01-2.48.225l-.02-.225V35h-35v6.25a1.25 1.25 0 01-2.48.225L5 41.25v-15a6.25 6.25 0 015-6.125V13.75a6.25 6.25 0 015.84-6.237l.41-.013h17.5zm5 15h-27.5a3.75 3.75 0 00-3.732 3.387l-.018.363v6.25h35v-6.25a3.75 3.75 0 00-3.388-3.733l-.362-.017zm-5-12.5h-17.5a3.75 3.75 0 00-3.732 3.39l-.018.36V20H15v-1.25a1.25 1.25 0 011.25-1.25h6.25a1.25 1.25 0 011.25 1.25V20h2.5v-1.25a1.25 1.25 0 011.25-1.25h6.25A1.25 1.25 0 0135 18.75V20h2.5v-6.25a3.75 3.75 0 00-3.388-3.732L33.75 10z" fill="#4242EA"/></svg>