<svg width="50" height="50" viewBox="0 0 50 50" fill="none" xmlns="http://www.w3.org/2000/svg">
<path d="M26.3889 5.55554C26.0205 5.55554 25.6673 5.70187 25.4068 5.96234C25.1463 6.22281 25 6.57607 25 6.94443C25 7.31279 25.1463 7.66606 25.4068 7.92652C25.6673 8.18699 26.0205 8.33332 26.3889 8.33332H39.7083L26.8611 21.1805C26.7157 21.3051 26.5976 21.4583 26.5143 21.6306C26.4309 21.8029 26.3841 21.9906 26.3767 22.1819C26.3693 22.3731 26.4015 22.5639 26.4713 22.7421C26.5412 22.9203 26.6471 23.0822 26.7824 23.2176C26.9178 23.3529 27.0797 23.4588 27.2579 23.5287C27.4361 23.5985 27.6269 23.6307 27.8181 23.6233C28.0094 23.6159 28.1971 23.5691 28.3694 23.4857C28.5417 23.4024 28.6949 23.2843 28.8194 23.1389L41.6667 10.2917V23.6111C41.6667 23.9795 41.813 24.3327 42.0735 24.5932C42.3339 24.8537 42.6872 25 43.0556 25C43.4239 25 43.7772 24.8537 44.0377 24.5932C44.2981 24.3327 44.4444 23.9795 44.4444 23.6111V5.55554H26.3889Z" fill="#4242EA"/>
<path d="M5.55469 26.3889C5.55469 26.0205 5.70102 25.6673 5.96148 25.4068C6.22195 25.1463 6.57522 25 6.94358 25C7.31193 25 7.6652 25.1463 7.92567 25.4068C8.18614 25.6673 8.33247 26.0205 8.33247 26.3889V39.7083L21.1797 26.8611C21.3042 26.7157 21.4574 26.5976 21.6297 26.5143C21.802 26.4309 21.9897 26.3841 22.181 26.3767C22.3723 26.3693 22.563 26.4015 22.7412 26.4713C22.9195 26.5412 23.0813 26.6471 23.2167 26.7824C23.3521 26.9178 23.458 27.0797 23.5278 27.2579C23.5976 27.4361 23.6299 27.6269 23.6225 27.8181C23.6151 28.0094 23.5682 28.1971 23.4849 28.3694C23.4015 28.5417 23.2834 28.6949 23.138 28.8194L10.2908 41.6667H23.6102C23.9786 41.6667 24.3319 41.813 24.5923 42.0735C24.8528 42.3339 24.9991 42.6872 24.9991 43.0556C24.9991 43.4239 24.8528 43.7772 24.5923 44.0377C24.3319 44.2981 23.9786 44.4444 23.6102 44.4444H5.55469V26.3889Z" fill="#4242EA"/>
</svg>
