<svg width="50" height="50" viewBox="0 0 50 50" fill="none" xmlns="http://www.w3.org/2000/svg">
<path d="M33.75 7.5C35.3368 7.49976 36.8643 8.10308 38.0226 9.1876C39.1809 10.2721 39.8834 11.7566 39.9875 13.34L40 13.75V20.125C41.3396 20.399 42.5524 21.1045 43.4528 22.1335C44.3531 23.1626 44.8914 24.4584 44.985 25.8225L45 26.25V41.25C45.0006 41.5624 44.8842 41.8636 44.6737 42.0945C44.4633 42.3253 44.174 42.469 43.8629 42.4972C43.5519 42.5254 43.2415 42.4361 42.9929 42.247C42.7444 42.0578 42.5756 41.7824 42.52 41.475L42.5 41.25V35H7.5V41.25C7.50057 41.5624 7.38418 41.8636 7.17373 42.0945C6.96328 42.3253 6.67403 42.469 6.36295 42.4972C6.05186 42.5254 5.74148 42.4361 5.49292 42.247C5.24437 42.0578 5.07565 41.7824 5.02 41.475L5 41.25V26.25C4.99971 24.8092 5.49723 23.4125 6.40837 22.2964C7.31951 21.1802 8.58829 20.4132 10 20.125V13.75C9.99976 12.1632 10.6031 10.6357 11.6876 9.47739C12.7721 8.31905 14.2566 7.61659 15.84 7.5125L16.25 7.5H33.75ZM38.75 22.5H11.25C10.3182 22.5 9.41974 22.8469 8.72973 23.4731C8.03972 24.0994 7.60758 24.96 7.5175 25.8875L7.5 26.25V32.5H42.5V26.25C42.5 25.3182 42.1531 24.4197 41.5269 23.7297C40.9006 23.0397 40.0399 22.6076 39.1125 22.5175L38.75 22.5ZM33.75 10H16.25C15.3178 10 14.419 10.3473 13.729 10.974C13.0389 11.6008 12.607 12.4621 12.5175 13.39L12.5 13.75V20H15V18.75C15 18.4185 15.1317 18.1005 15.3661 17.8661C15.6005 17.6317 15.9185 17.5 16.25 17.5H22.5C22.8315 17.5 23.1495 17.6317 23.3839 17.8661C23.6183 18.1005 23.75 18.4185 23.75 18.75V20H26.25V18.75C26.25 18.4185 26.3817 18.1005 26.6161 17.8661C26.8505 17.6317 27.1685 17.5 27.5 17.5H33.75C34.0815 17.5 34.3995 17.6317 34.6339 17.8661C34.8683 18.1005 35 18.4185 35 18.75V20H37.5V13.75C37.5 12.8182 37.1531 11.9197 36.5269 11.2297C35.9006 10.5397 35.0399 10.1076 34.1125 10.0175L33.75 10Z" fill="#4242EA"/>
</svg>
