<svg width="30" height="30" fill="none" xmlns="http://www.w3.org/2000/svg"><path d="M22 27c-.1 0-.2-.02-.294-.06-.232-.099-5.706-2.483-5.706-7.386v-4.018a.75.75 0 01.509-.71l5.25-1.786a.75.75 0 01.482 0l5.25 1.786a.75.75 0 01.509.71v4.018c0 4.903-5.474 7.287-5.706 7.387A.768.768 0 0122 27zm-4.5-10.927v3.48c0 3.333 3.456 5.337 4.5 5.865 1.044-.528 4.5-2.532 4.5-5.865v-3.48L22 14.542l-4.5 1.53z"/><path d="M21.538 23a.639.639 0 01-.489-.24l-1.846-2.182a.927.927 0 010-1.157.62.62 0 01.98 0l1.282 1.515 2.29-3.609c.226-.36.662-.435.969-.162.305.27.367.783.137 1.145l-2.77 4.364a.671.671 0 01-.505.325L21.54 23zm-7.325 1H5.912C4.306 24 3 22.767 3 21.25V5.75C3 4.233 4.306 3 5.912 3h12.176C19.695 3 21 4.233 21 5.75v5.43c0 .414-.356.75-.794.75-.439 0-.794-.336-.794-.75V5.75c0-.689-.594-1.25-1.324-1.25H5.912c-.73 0-1.324.561-1.324 1.25v15.5c0 .689.594 1.25 1.324 1.25h8.3c.44 0 .795.336.795.75s-.356.75-.794.75z"/><path d="M17.182 13H6.818C6.367 13 6 12.552 6 12s.367-1 .818-1h10.364c.452 0 .818.448.818 1s-.366 1-.818 1zm-4.932 4h-5.5c-.414 0-.75-.448-.75-1s.336-1 .75-1h5.5c.414 0 .75.448.75 1s-.336 1-.75 1zm-1-8h-4.5C6.336 9 6 8.552 6 8s.336-1 .75-1h4.5c.414 0 .75.448.75 1s-.336 1-.75 1z"/></svg>