<svg width="30" height="30" fill="none" xmlns="http://www.w3.org/2000/svg"><path d="M12.536 13.069c-.901-.282-1.855.073-2.428.904l-3.792 5.49a.547.547 0 00.14.76l3.522 2.433c.546.382 1.223.294 1.615-.276.242-.35.46-.66.65-.933 1.949-2.575 1.676-3.215 1.698-6.441 0-.911-.552-1.672-1.405-1.938zm-1.528 1.525c.359-.52.857-.59 1.203-.481a.921.921 0 01.414.268l-4.103 5.94-.995-.687 3.481-5.04zm.34 6.225c-.193.275-.411.587-.655.94a.191.191 0 01-.028.033.277.277 0 01-.066-.036l-1.177-.813 3.421-4.953v.034c-.004 2.667-.004 2.667-1.495 4.795z"/><path d="M19.74 8.668l6.887-2A.547.547 0 0027 5.992l-.921-3.177a.547.547 0 00-.678-.373l-7.203 2.092c-.24.07-.464.178-.667.322l-3.008 1.981-.478-.726a1.668 1.668 0 00-1.064-.72 1.668 1.668 0 00-1.263.241L9.353 7.189c-.374.246-.63.624-.72 1.064-.091.44-.006.89.24 1.263l.479.726-1.276.84a2.19 2.19 0 00-.604.587L1.1 20.898a.55.55 0 00.14.76l2.272 1.57L1.1 26.721c-.389.61.464 1.203.9.621l3.484-5.045.667.466c1.055.738 2.251 1.574 3.232 2.199 1.213.772 2.845.468 3.636-.678l4.305-6.232c.07-.103.14-.203.208-.299.632-.896 1.228-1.743.86-3.116-.488-1.822-.538-3.41-.155-4.979l1.503-.99zm-1.598-2.905a1.105 1.105 0 01.36-.18l6.678-1.939.617 2.127-6.442 1.87a.546.546 0 00-.148.068l-1.292.851-1.216-1.847 1.443-.95zM9.787 8.914a.581.581 0 01-.083-.44.581.581 0 01.25-.371l2.366-1.558a.581.581 0 01.44-.083.58.58 0 01.372.25l.478.726-3.345 2.202-.478-.726zm6.85 8.21c-.07.098-.142.2-.215.306l-4.304 6.232c-.462.668-1.425.838-2.149.377-.96-.612-2.146-1.44-3.192-2.172-.397-.278-.772-.54-1.121-.782a.55.55 0 00-.761.14l-.762 1.103-1.823-1.259 6.063-8.778a1.1 1.1 0 01.304-.295l7.108-4.681 1.384 2.102c-.424 1.746-.37 3.503.166 5.504.235.878-.096 1.348-.698 2.202zm11.368-6.934c-1.357-1.753-2.077-1.748-3.431 0-.375.502-1.003 1.494-1.003 2.503-.025 1.44 1.26 2.764 2.706 2.735h.02c.708 0 1.381-.282 1.895-.794 1.398-1.42.746-3.227-.187-4.444zm-.585 3.669a1.586 1.586 0 01-2.262 0 1.663 1.663 0 01-.493-1.166c0-1.046 1.175-2.446 1.624-2.71.45.264 1.624 1.664 1.624 2.71 0 .428-.18.854-.493 1.166z"/></svg>