<svg width="30" height="30" fill="none" xmlns="http://www.w3.org/2000/svg"><path d="M29.808 6.8a2.025 2.025 0 00-1.583-1.667l-4.892-1.075a3.75 3.75 0 00-3.041.659L5.833 15.25l-4.05-.167a1.55 1.55 0 00-1.025 2.759l4.167 3.275c.5.608.833.491 9.108-4.017l.775 7.85a1.133 1.133 0 001.159 1.067c.31-.01.606-.131.833-.342l1.992-1.817c.198-.183.332-.426.383-.691L21 13.25c2.975-1.667 5.792-3.233 7.8-4.375A2.025 2.025 0 0029.808 6.8zm-1.833.625c-2.083 1.183-5 2.842-8.133 4.558l-.342.192-1.942 10.558-1.225 1.117-.916-9.417-1.109.567c-5.975 3.333-7.966 4.3-8.65 4.6l-3.583-2.842 4.233.184 15-10.884a2.091 2.091 0 011.667-.375l4.875 1.05a.358.358 0 01.292.309.35.35 0 01-.167.383z"/><path d="M5.833 10.45l2.967.833 1.367-.991-3.334-.967 1.5-.917 4.559-.133 1.916-1.392-6.475.2a1.042 1.042 0 00-.583.142L5.558 8.5a1.067 1.067 0 00.275 1.95z"/></svg>