<svg width="30" height="30" fill="none" xmlns="http://www.w3.org/2000/svg"><path d="M27.512 11.004L15.323 5.723a.813.813 0 00-.646 0L2.489 11.004a.813.813 0 000 1.491l4.385 1.9v5.074c0 2.734 3.57 4.875 8.126 4.875 4.556 0 8.126-2.141 8.126-4.875v-5.073l.812-.352v8.675a.813.813 0 001.625 0v-9.38l1.949-.844a.813.813 0 000-1.49zM15 7.354l10.145 4.396-.805.348-9.24-1.155a.813.813 0 00-.2 1.613l6.507.814L15 16.145 4.855 11.75 15 7.354zm6.5 12.115c0 .766-.628 1.554-1.724 2.162-2.609 1.45-6.935 1.454-9.553 0C9.128 21.023 8.5 20.235 8.5 19.47V15.1l6.177 2.677c.206.09.44.09.646 0L21.5 15.1v4.37z"/></svg>