<svg width="48" height="48" viewBox="0 0 48 48" fill="none" xmlns="http://www.w3.org/2000/svg">
<path d="M17.0769 26.7692C17.0769 27.1365 16.931 27.4886 16.6714 27.7483C16.4117 28.008 16.0595 28.1538 15.6923 28.1538C15.3251 28.1538 14.9729 28.008 14.7132 27.7483C14.4536 27.4886 14.3077 27.1365 14.3077 26.7692C14.3077 26.402 14.4536 26.0498 14.7132 25.7902C14.9729 25.5305 15.3251 25.3846 15.6923 25.3846C16.0595 25.3846 16.4117 25.5305 16.6714 25.7902C16.931 26.0498 17.0769 26.402 17.0769 26.7692Z" fill="#4242EA"/>
<path d="M33.6923 26.7692C33.6923 27.1365 33.5464 27.4886 33.2868 27.7483C33.0271 28.008 32.6749 28.1538 32.3077 28.1538C31.9405 28.1538 31.5883 28.008 31.3286 27.7483C31.069 27.4886 30.9231 27.1365 30.9231 26.7692C30.9231 26.402 31.069 26.0498 31.3286 25.7902C31.5883 25.5305 31.9405 25.3846 32.3077 25.3846C32.6749 25.3846 33.0271 25.5305 33.2868 25.7902C33.5464 26.0498 33.6923 26.402 33.6923 26.7692Z" fill="#4242EA"/>
<path d="M20.5385 35.0769C20.5385 35.0769 21.9231 33.6923 24 33.6923C26.0769 33.6923 27.4615 35.0769 27.4615 35.0769M42 24C42 33.9415 33.9415 42 24 42C14.0585 42 6 33.9415 6 24C6 14.0585 14.0585 6 24 6C33.9415 6 42 14.0585 42 24ZM33.6923 26.7692C33.6923 27.1365 33.5464 27.4886 33.2868 27.7483C33.0271 28.008 32.6749 28.1538 32.3077 28.1538C31.9405 28.1538 31.5883 28.008 31.3286 27.7483C31.069 27.4886 30.9231 27.1365 30.9231 26.7692C30.9231 26.402 31.069 26.0498 31.3286 25.7902C31.5883 25.5305 31.9405 25.3846 32.3077 25.3846C32.6749 25.3846 33.0271 25.5305 33.2868 25.7902C33.5464 26.0498 33.6923 26.402 33.6923 26.7692ZM17.0769 26.7692C17.0769 27.1365 16.931 27.4886 16.6714 27.7483C16.4117 28.008 16.0595 28.1538 15.6923 28.1538C15.3251 28.1538 14.9729 28.008 14.7132 27.7483C14.4536 27.4886 14.3077 27.1365 14.3077 26.7692C14.3077 26.402 14.4536 26.0498 14.7132 25.7902C14.9729 25.5305 15.3251 25.3846 15.6923 25.3846C16.0595 25.3846 16.4117 25.5305 16.6714 25.7902C16.931 26.0498 17.0769 26.402 17.0769 26.7692Z" stroke="#4242EA" stroke-width="3" stroke-linecap="round" stroke-linejoin="round"/>
</svg>
