<svg width="48" height="48" xmlns="http://www.w3.org/2000/svg" viewBox="0 0 48 48">
<style type="text/css">
	.st0{fill:#4242EA;}
	.st1{fill:none;stroke:#4242EA;stroke-width:3;stroke-linecap:round;stroke-linejoin:round;}
</style>
<path class="st0" d="M17.1,26.8c0,0.4-0.1,0.7-0.4,1c-0.3,0.3-0.6,0.4-1,0.4s-0.7-0.1-1-0.4c-0.3-0.3-0.4-0.6-0.4-1
	c0-0.4,0.1-0.7,0.4-1c0.3-0.3,0.6-0.4,1-0.4s0.7,0.1,1,0.4C16.9,26,17.1,26.4,17.1,26.8z"/>
<path class="st0" d="M33.7,26.8c0,0.4-0.1,0.7-0.4,1c-0.3,0.3-0.6,0.4-1,0.4c-0.4,0-0.7-0.1-1-0.4c-0.3-0.3-0.4-0.6-0.4-1
	c0-0.4,0.1-0.7,0.4-1c0.3-0.3,0.6-0.4,1-0.4c0.4,0,0.7,0.1,1,0.4C33.5,26,33.7,26.4,33.7,26.8z"/>
<path class="st1" d="M27.5,33.7c0,0-1.4,1.4-3.5,1.4s-3.5-1.4-3.5-1.4 M42,24c0,9.9-8.1,18-18,18S6,33.9,6,24S14.1,6,24,6
	S42,14.1,42,24z M33.7,26.8c0,0.4-0.1,0.7-0.4,1c-0.3,0.3-0.6,0.4-1,0.4c-0.4,0-0.7-0.1-1-0.4c-0.3-0.3-0.4-0.6-0.4-1
	c0-0.4,0.1-0.7,0.4-1c0.3-0.3,0.6-0.4,1-0.4c0.4,0,0.7,0.1,1,0.4C33.5,26,33.7,26.4,33.7,26.8z M17.1,26.8c0,0.4-0.1,0.7-0.4,1
	c-0.3,0.3-0.6,0.4-1,0.4s-0.7-0.1-1-0.4c-0.3-0.3-0.4-0.6-0.4-1c0-0.4,0.1-0.7,0.4-1c0.3-0.3,0.6-0.4,1-0.4s0.7,0.1,1,0.4
	C16.9,26,17.1,26.4,17.1,26.8z"/>
</svg>
