<svg width="48" height="48" viewBox="0 0 48 48" fill="none" xmlns="http://www.w3.org/2000/svg">
<path d="M18.8755 12.1344C21.1561 8.04481 22.2954 6 24 6C25.7046 6 26.8439 8.04481 29.1245 12.1344L29.7149 13.1928C30.3628 14.3557 30.6868 14.9371 31.1908 15.3205C31.6948 15.7039 32.3248 15.8461 33.5848 16.1305L34.7295 16.3897C39.1574 17.3923 41.3696 17.8927 41.897 19.5865C42.4226 21.2785 40.9142 23.0443 37.8957 26.5741L37.1145 27.4867C36.2577 28.4893 35.8275 28.9915 35.6349 29.6108C35.4423 30.2318 35.5071 30.9014 35.6367 32.2388L35.7555 33.4574C36.2109 38.168 36.4395 40.5224 35.0607 41.5682C33.682 42.614 31.6084 41.66 27.4649 39.752L26.3903 39.2588C25.2132 38.7152 24.6246 38.4452 24 38.4452C23.3754 38.4452 22.7868 38.7152 21.6097 39.2588L20.5369 39.752C16.3916 41.66 14.318 42.614 12.9411 41.57C11.5605 40.5224 11.7891 38.168 12.2445 33.4574L12.3633 32.2406C12.4929 30.9014 12.5577 30.2318 12.3633 29.6126C12.1725 28.9915 11.7423 28.4893 10.8855 27.4885L10.1043 26.5741C7.0858 23.0461 5.57743 21.2803 6.10302 19.5865C6.62861 17.8927 8.84436 17.3905 13.2723 16.3897L14.417 16.1305C15.6752 15.8461 16.3034 15.7039 16.8092 15.3205C17.315 14.9371 17.6371 14.3557 18.2851 13.1928L18.8755 12.1344Z" stroke="#4242EA" stroke-width="3"/>
</svg>
