<svg width="782" height="732" viewBox="0 0 782 732" fill="none" xmlns="http://www.w3.org/2000/svg">
<path d="M415.481 383.163L542.972 598.176C544.043 599.986 545.536 601.04 547.085 601.04L652.488 601.662C654.854 601.689 657.024 599.311 657.925 595.662C658.827 592.014 658.376 587.852 656.714 585.041L533.308 376.948L659.334 170.313C661.025 167.53 661.56 163.341 660.658 159.692C659.757 156.044 657.644 153.666 655.277 153.639L549.875 153.017C548.325 153.017 546.832 154.044 545.705 155.828L415.509 369.326C413.227 373.164 413.199 379.326 415.481 383.163Z" fill="white"/>
<path d="M699.568 456.618C744.802 456.618 781.472 421.444 781.472 378.055C781.472 334.667 744.802 299.493 699.568 299.493C654.333 299.493 617.664 334.667 617.664 378.055C617.664 421.444 654.333 456.618 699.568 456.618Z" fill="white"/>
<path d="M333.069 317.654L472.59 109.641C473.774 107.885 474.056 106.128 473.323 104.804L425.031 14.9181C423.961 12.8912 420.777 12.1616 416.973 13.0534C413.17 13.9452 409.563 16.2964 407.704 18.9989L272.69 220.336L23.3991 209.04C20.0462 208.878 15.9327 210.364 12.9744 212.823C10.016 215.283 8.80449 218.174 9.87513 220.201L58.1668 310.087C58.8712 311.411 60.5053 312.222 62.703 312.33L320.277 324.005C324.87 324.167 330.589 321.357 333.069 317.654Z" fill="white"/>
<path d="M196.646 157.125C241.88 157.125 278.55 121.951 278.55 78.5623C278.55 35.1735 241.88 0 196.646 0C151.411 0 114.742 35.1735 114.742 78.5623C114.742 121.951 151.411 157.125 196.646 157.125Z" fill="white"/>
<path d="M320.08 412.296L62.5341 399.756C60.3647 399.648 58.646 400.297 57.8007 401.54L0.577641 486.453C-0.718402 488.372 0.211368 491.372 2.91615 494.074C5.62094 496.777 9.53724 498.641 12.89 498.831L262.153 510.965L375.979 724.004C377.501 726.869 380.91 729.545 384.601 730.788C388.292 732.031 391.532 731.598 392.8 729.707L450.023 644.794C450.868 643.55 450.783 641.767 449.797 639.902L332.167 419.782C330.082 415.863 324.673 412.512 320.08 412.296Z" fill="white"/>
<path d="M171.796 723.356C217.03 723.356 253.7 688.183 253.7 644.794C253.7 601.405 217.03 566.231 171.796 566.231C126.561 566.231 89.8916 601.405 89.8916 644.794C89.8916 688.183 126.561 723.356 171.796 723.356Z" fill="white"/>
</svg>
