<svg width="20" height="28" viewBox="0 0 20 28" fill="none" xmlns="http://www.w3.org/2000/svg">
<path d="M19.7 7.29999L12.7 0.299986C12.612 0.202278 12.5038 0.124848 12.383 0.07305C12.2621 0.0212524 12.1314 -0.00367677 12 -1.38078e-05H2C1.47005 0.00156892 0.962265 0.212791 0.587535 0.587521C0.212805 0.962251 0.00158273 1.47004 0 1.99999V26C0.00158273 26.5299 0.212805 27.0377 0.587535 27.4125C0.962265 27.7872 1.47005 27.9984 2 28H18C18.5299 27.9984 19.0377 27.7872 19.4125 27.4125C19.7872 27.0377 19.9984 26.5299 20 26V7.99999C20.0037 7.86854 19.9787 7.73787 19.9269 7.61701C19.8751 7.49615 19.7977 7.38798 19.7 7.29999ZM12 2.39999L17.6 7.99999H12V2.39999ZM18 26H2V1.99999H10V7.99999C10.0016 8.52993 10.2128 9.03772 10.5875 9.41245C10.9623 9.78718 11.4701 9.9984 12 9.99999H18V26Z" fill="#4242EA"/>
</svg>
