<svg width="30" height="30" xmlns="http://www.w3.org/2000/svg" viewBox="0 0 30 30">
<path fill="#F75B46" d="M22.1,25.7H7.9c-3.3,0-6-2.7-6-6v-9.3c0-3.3,2.7-6,6-6h14.2c3.3,0,6,2.7,6,6v9.3C28.1,23,25.4,25.7,22.1,25.7z M7.9,6.3c-2.2,0-4,1.8-4,4v9.3c0,2.2,1.8,4,4,4h14.2c2.2,0,4-1.8,4-4v-9.3c0-2.2-1.8-4-4-4H7.9z"/>
<path fill="#F75B46" d="M20.5,13.9c0.4-0.4,0.5-1,0.1-1.4c-0.4-0.4-1-0.5-1.4-0.1L20.5,13.9z M10.8,12.4c-0.4-0.4-1.1-0.3-1.4,0.1C9,13,9.1,13.6,9.5,13.9L10.8,12.4z M15,17.8c0.2,0,0.4-0.1,0.5-0.1c0.1,0,0.2-0.1,0.3-0.2c0.2-0.1,0.5-0.3,0.7-0.5c0.5-0.4,1.1-0.8,1.7-1.3c0.6-0.5,1.1-0.9,1.5-1.3c0.2-0.2,0.4-0.3,0.5-0.4c0.1-0.1,0.1-0.1,0.1-0.1c0,0,0,0,0,0c0,0,0,0,0,0c0,0,0,0,0,0c0,0,0,0,0,0c0,0,0,0,0,0c0,0,0,0-0.7-0.8c-0.7-0.8-0.7-0.8-0.7-0.8c0,0,0,0,0,0c0,0,0,0,0,0c0,0,0,0,0,0c0,0,0,0,0,0c0,0,0,0,0,0c0,0-0.1,0.1-0.1,0.1c-0.1,0.1-0.3,0.2-0.5,0.4c-0.4,0.3-0.9,0.8-1.5,1.2c-0.6,0.4-1.1,0.9-1.6,1.2c-0.2,0.2-0.4,0.3-0.5,0.4c-0.1,0-0.1,0.1-0.1,0.1c0,0,0.1,0,0.2,0V17.8z M15,15.8c0.2,0,0.3,0.1,0.2,0c0,0,0,0-0.1-0.1c-0.1-0.1-0.3-0.2-0.5-0.4c-0.5-0.3-1-0.8-1.6-1.2c-0.6-0.4-1.1-0.9-1.5-1.2c-0.2-0.2-0.4-0.3-0.5-0.4c-0.1,0-0.1-0.1-0.1-0.1c0,0,0,0,0,0c0,0,0,0,0,0c0,0,0,0,0,0c0,0,0,0,0,0c0,0,0,0,0,0c0,0,0,0-0.7,0.8c-0.7,0.8-0.7,0.8-0.7,0.8c0,0,0,0,0,0c0,0,0,0,0,0c0,0,0,0,0,0c0,0,0,0,0,0c0,0,0,0,0,0c0,0,0.1,0.1,0.1,0.1c0.1,0.1,0.3,0.2,0.5,0.4c0.4,0.3,1,0.8,1.5,1.3c0.6,0.5,1.2,0.9,1.7,1.3c0.3,0.2,0.5,0.3,0.7,0.5c0.1,0.1,0.2,0.1,0.3,0.2c0.1,0,0.3,0.1,0.5,0.1V15.8z"/>
</svg>
