<svg width="32" height="32" viewBox="0 0 32 32" fill="none" xmlns="http://www.w3.org/2000/svg">
<rect x="2.66797" y="5.33333" width="26.6667" height="21.3333" rx="5" stroke="black" stroke-width="2"/>
<path d="M21.9854 14.0926C22.4048 13.7332 22.4533 13.1019 22.0939 12.6825C21.7345 12.2632 21.1032 12.2146 20.6838 12.5741L21.9854 14.0926ZM11.3188 12.5741C10.8994 12.2146 10.2681 12.2632 9.90871 12.6825C9.54929 13.1019 9.59785 13.7332 10.0172 14.0926L11.3188 12.5741ZM16.0013 18.3333C16.2475 18.3333 16.4554 18.253 16.5534 18.2124C16.6782 18.1608 16.803 18.0954 16.918 18.0297C17.1498 17.8973 17.4166 17.7201 17.6926 17.5253C18.2485 17.1329 18.9127 16.6182 19.5427 16.1142C20.1754 15.608 20.7857 15.1029 21.237 14.7251C21.4629 14.536 21.6495 14.3783 21.7798 14.2677C21.845 14.2124 21.8961 14.1689 21.9311 14.139C21.9486 14.1241 21.962 14.1126 21.9712 14.1048C21.9757 14.1009 21.9792 14.0979 21.9816 14.0958C21.9828 14.0948 21.9837 14.094 21.9844 14.0935C21.9847 14.0932 21.9849 14.093 21.9851 14.0929C21.9852 14.0928 21.9853 14.0927 21.9853 14.0927C21.9854 14.0926 21.9854 14.0926 21.3346 13.3333C20.6838 12.5741 20.6839 12.5741 20.6838 12.5741C20.6838 12.5741 20.6838 12.5741 20.6837 12.5742C20.6836 12.5743 20.6835 12.5744 20.6832 12.5746C20.6827 12.575 20.6819 12.5757 20.6809 12.5766C20.6788 12.5784 20.6756 12.5811 20.6713 12.5848C20.6628 12.5921 20.6499 12.6031 20.6331 12.6175C20.5993 12.6462 20.5496 12.6886 20.4858 12.7427C20.3584 12.8509 20.1752 13.0057 19.9531 13.1916C19.5086 13.5638 18.9105 14.0587 18.2933 14.5525C17.6732 15.0485 17.0458 15.5338 16.5392 15.8914C16.284 16.0715 16.0768 16.2069 15.9257 16.2932C15.8494 16.3368 15.8055 16.3574 15.7887 16.3644C15.7451 16.3824 15.8384 16.3333 16.0013 16.3333V18.3333ZM16.0013 16.3333C16.1642 16.3333 16.2575 16.3824 16.2139 16.3644C16.1971 16.3574 16.1532 16.3368 16.0769 16.2932C15.9258 16.2069 15.7186 16.0715 15.4634 15.8914C14.9568 15.5338 14.3294 15.0485 13.7093 14.5525C13.0921 14.0587 12.494 13.5638 12.0495 13.1916C11.8275 13.0057 11.6443 12.8509 11.5168 12.7427C11.453 12.6886 11.4033 12.6462 11.3695 12.6175C11.3527 12.6031 11.3399 12.5921 11.3313 12.5848C11.327 12.5811 11.3238 12.5784 11.3217 12.5766C11.3207 12.5757 11.3199 12.575 11.3194 12.5746C11.3192 12.5744 11.319 12.5743 11.3189 12.5742C11.3188 12.5741 11.3188 12.5741 11.3188 12.5741C11.3188 12.5741 11.3188 12.5741 10.668 13.3333C10.0172 14.0926 10.0172 14.0926 10.0173 14.0927C10.0173 14.0927 10.0174 14.0928 10.0175 14.0929C10.0177 14.093 10.0179 14.0932 10.0182 14.0935C10.0189 14.094 10.0198 14.0948 10.021 14.0958C10.0234 14.0979 10.0269 14.1009 10.0314 14.1048C10.0406 14.1126 10.054 14.1241 10.0715 14.139C10.1065 14.1689 10.1576 14.2124 10.2228 14.2677C10.3531 14.3783 10.5397 14.536 10.7656 14.7251C11.2169 15.1029 11.8272 15.608 12.4599 16.1142C13.0899 16.6182 13.7541 17.1329 14.31 17.5253C14.586 17.7201 14.8528 17.8973 15.0846 18.0297C15.1997 18.0954 15.3244 18.1608 15.4492 18.2124C15.5472 18.253 15.7551 18.3333 16.0013 18.3333V16.3333Z" fill="black"/>
</svg>
