<svg xmlns="http://www.w3.org/2000/svg" viewBox="0 0 18 18">
	<path fill="#0D0F0F" d="M11.5,9c0,0.7-0.3,1.3-0.7,1.8c-0.5,0.5-1.1,0.7-1.8,0.7s-1.3-0.3-1.8-0.7C6.8,10.3,6.5,9.7,6.5,9s0.3-1.3,0.7-1.8C7.7,6.8,8.3,6.5,9,6.5s1.3,0.3,1.8,0.7C11.2,7.7,11.5,8.3,11.5,9z"/>
	<path fill="#A9A9A9" d="M1,9c0,0,3-5.5,8-5.5S17,9,17,9s-3,5.5-8,5.5S1,9,1,9z M9,12.5c0.9,0,1.8-0.4,2.5-1c0.7-0.7,1-1.5,1-2.5s-0.4-1.8-1-2.5c-0.7-0.7-1.5-1-2.5-1s-1.8,0.4-2.5,1c-0.7,0.7-1,1.5-1,2.5s0.4,1.8,1,2.5C7.2,12.1,8.1,12.5,9,12.5z"/>
</svg>
