<svg xmlns="http://www.w3.org/2000/svg" viewBox="0 0 18 18">
<g>
	<path d="M15,16.8c-0.6,0-1-0.4-1-1v-1.5c0-0.5-0.2-1-0.6-1.4s-0.9-0.6-1.4-0.6H6c-0.5,0-1,0.2-1.4,0.6C4.2,13.2,4,13.7,4,14.3v1.5c0,0.6-0.4,1-1,1s-1-0.4-1-1v-1.5c0-1.1,0.4-2.1,1.2-2.8c0.8-0.8,1.8-1.2,2.8-1.2h6c1.1,0,2.1,0.4,2.8,1.2s1.2,1.8,1.2,2.8v1.5C16,16.3,15.6,16.8,15,16.8z"/>
	<path d="M9,9.3c-2.2,0-4-1.8-4-4s1.8-4,4-4c2.2,0,4,1.8,4,4S11.2,9.3,9,9.3z M9,3.3c-1.1,0-2,0.9-2,2s0.9,2,2,2c1.1,0,2-0.9,2-2S10.1,3.3,9,3.3z"/>
</g>
</svg>
