<svg xmlns="http://www.w3.org/2000/svg" viewBox="0 0 18 18">
<path d="M16.8,15.7l-5.1-5.1c0.8-1,1.2-2.3,1.2-3.6c0-1.6-0.6-3-1.7-4.1C10.1,1.8,8.6,1.2,7,1.2c-1.6,0-3,0.6-4.1,1.7C1.8,4,1.2,5.5,1.2,7c0,1.6,0.6,3,1.7,4.1C4,12.3,5.5,12.9,7,12.9c1.3,0,2.6-0.4,3.6-1.2l5.1,5.1c0,0,0,0,0.1,0c0,0,0,0,0.1,0c0,0,0,0,0.1,0c0,0,0,0,0.1,0l0.9-0.8c0,0,0,0,0-0.1c0,0,0,0,0-0.1C16.8,15.8,16.8,15.8,16.8,15.7C16.8,15.7,16.8,15.7,16.8,15.7z M10.1,10.1C9.3,11,8.2,11.4,7,11.4c-1.2,0-2.3-0.5-3.1-1.3C3.1,9.3,2.7,8.2,2.7,7C2.7,5.9,3.1,4.8,4,4C4.8,3.1,5.9,2.7,7,2.7c1.2,0,2.3,0.5,3.1,1.3C11,4.8,11.4,5.9,11.4,7C11.4,8.2,11,9.3,10.1,10.1z"/>
</svg>
