<svg width="20" height="20" xmlns="http://www.w3.org/2000/svg" viewBox="0 0 20 20">
<path fill="#4242EA" d="M5.5,2.3C5.1,2.4,5,2.4,4.2,3.6L3.8,4.3l0-0.2c0-0.1-0.1-0.3-0.1-0.4C3.5,3.3,3.1,3,2.7,2.9c-0.4-0.1-1,0.2-1.2,0.7L1.4,3.8l0,2.3l0,2.3L1.3,8.7C1.2,8.9,1,9,0.6,9.3C0.5,9.3,0.3,9.5,0.3,9.5c0,0.1-0.1,0.7-0.1,2.5l0,2.4l0.1,0.1c0.1,0.1,0.1,0.1,0.2,0.1c0.1,0,0.6-0.2,1.2-0.4C2.7,14,2.9,14,3.1,14c0.1,0,0.7,0.2,1.2,0.4c0.9,0.3,1,0.4,1.3,0.4c0.3,0,0.4,0,0.6-0.1c0.5-0.3,2.2-1.3,2.3-1.5c0-0.1,0.3-0.7,0.6-1.4c0.6-1.4,0.6-1.5,0.4-1.6L9.3,10l0.1-0.2c0.1-0.2,0.1-0.3,0.1-0.6c0-0.4,0-0.5-0.9-1.4C8.1,7.1,7.9,6.9,7.5,6.9c-0.1,0-0.2,0-0.2-0.1c0-0.1,0.3-0.3,0.8-0.6C8.6,6,8.9,5.8,9,5.7c0.2-0.2,0.3-0.4,0.3-0.8c0-0.4-0.1-0.7-0.4-0.9C8.3,3.6,7.9,3.7,7,4.2C6.3,4.7,6.3,4.7,6.3,4.6c0,0,0.1-0.2,0.2-0.3c0.3-0.5,0.4-0.6,0.4-1c0-0.3,0-0.3-0.1-0.5C6.5,2.4,6,2.1,5.5,2.3z M6.1,3.1c0.1,0.1,0.2,0.3,0,0.5c0,0.1-0.3,0.4-0.6,0.8L5.1,5.1L4.8,6C4.6,6.5,4.5,6.9,4.5,7c0,0.3,0.4,0.5,0.6,0.3c0,0,0.3-0.4,0.6-0.8l0.5-0.8l0.8-0.5c1.2-0.7,1.3-0.8,1.5-0.5C8.6,5,8.5,5.1,7.8,5.6C7.4,5.8,7.1,5.9,7.1,6C6.9,6.1,6.3,7,6.3,7.2c0,0.2,0.1,0.4,0.2,0.4c0.1,0,0.3,0,0.6,0c0.5,0,0.4-0.1,1.2,0.8C8.8,9,8.9,9.1,8.9,9.2c0,0.2-0.2,0.4-0.4,0.4c-0.1,0-0.2-0.1-0.7-0.5C7.5,8.8,7.2,8.5,7.1,8.5C7,8.4,5.7,8.4,5.5,8.5c-0.2,0.1-1,1.5-1,1.7c0,0.2,0.8,1.6,1,1.7C5.7,12,6.9,12,7,11.9c0,0,0.2-0.3,0.3-0.5c0.5-0.9,0.7-1.1,1.2-0.9c0.1,0,0.2,0.1,0.2,0.1c0,0-0.2,0.5-0.4,1c-0.2,0.5-0.4,1-0.4,1c0,0-0.5,0.3-1.1,0.7C5.9,13.8,5.7,14,5.6,14c-0.1,0-0.6-0.2-1.2-0.4c-1-0.4-1-0.4-1.4-0.4c-0.4,0-0.4,0-1.2,0.3C1.4,13.6,1,13.7,1,13.7c0,0,0-0.9,0-1.9V9.9l0.2-0.1c0.3-0.1,0.6-0.5,0.7-0.7c0.3-0.5,0.3-0.6,0.3-2.9c0-2.4,0-2.3,0.3-2.4c0.1,0,0.2,0,0.3,0C3,3.8,3,3.8,3,5.3c0,1.5,0,1.5,0.3,1.6c0.2,0.1,0.3,0,0.4-0.1c0-0.1,0.2-0.5,0.3-0.9C4.2,5.1,4.2,5,4.5,4.6c0.5-0.7,1-1.4,1.1-1.5C5.7,3,5.9,3,6.1,3.1z M14.1,5.4c-0.2,0.1-0.3,0.1-1.4,0.8c-0.7,0.5-1,0.7-1.1,0.8c-0.1,0.1-0.3,0.7-0.6,1.4c-0.4,1-0.5,1.3-0.5,1.4c0,0.1,0.1,0.3,0.2,0.3c0,0,0,0.1-0.1,0.3c-0.2,0.3-0.2,0.7,0,1c0.1,0.1,0.4,0.5,0.7,0.9c0.7,0.7,0.8,0.9,1.2,0.9c0.1,0,0.2,0,0.2,0.1c0,0.1-0.2,0.3-0.9,0.7c-0.9,0.5-1,0.7-1,1.3c0,0.4,0.1,0.7,0.4,0.9c0.5,0.4,0.9,0.3,1.9-0.3c0.4-0.2,0.7-0.4,0.7-0.4c0,0-0.1,0.2-0.3,0.4c-0.2,0.3-0.3,0.6-0.4,0.7c-0.1,0.4,0,0.8,0.3,1.1c0.2,0.2,0.4,0.3,0.8,0.3c0.6,0,0.7-0.1,1.5-1.2c0.4-0.5,0.5-0.7,0.5-0.6c0,0,0.1,0.2,0.1,0.3c0.1,0.3,0.3,0.5,0.6,0.7c0.5,0.3,1,0.1,1.4-0.3c0.3-0.3,0.3-0.4,0.3-2.8c0-1.3,0-2.2,0-2.3c0.1-0.3,0.3-0.6,0.6-0.7c0.2-0.1,0.3-0.2,0.4-0.3l0.1-0.1V8.1c0-1.5,0-2.4,0-2.5c0-0.1-0.1-0.1-0.2-0.2c-0.1-0.1-0.2-0.1-1.1,0.3c-0.5,0.2-1,0.3-1.1,0.4c-0.3,0.1-0.5,0-1.5-0.3C14.7,5.3,14.4,5.2,14.1,5.4z M15.5,6.4c1.1,0.4,1.3,0.5,1.6,0.4c0.2,0,1.1-0.3,1.7-0.5c0,0,0.1,0.4,0.1,1.9v1.9l-0.3,0.2c-0.4,0.3-0.8,0.8-0.9,1.3c0,0.1,0,1.1,0,2.3c0,2.2,0,2.2-0.2,2.4c-0.1,0.1-0.3,0.1-0.5,0L17,16.1l0-1.4l0-1.4l-0.1-0.1c-0.2-0.2-0.5-0.1-0.6,0.1c0,0-0.1,0.5-0.2,0.9l-0.2,0.8l-0.6,0.8c-0.7,1-0.8,1.2-1,1.2c-0.1,0-0.2,0-0.3-0.1c-0.2-0.2-0.2-0.3,0.1-0.7c0.1-0.2,0.4-0.5,0.6-0.8l0.3-0.5l0.2-0.9c0.1-0.5,0.2-0.9,0.2-1c0-0.3-0.4-0.5-0.6-0.3c0,0-0.3,0.4-0.6,0.8l-0.5,0.7l-0.8,0.5c-1.2,0.7-1.3,0.8-1.5,0.5c-0.2-0.3-0.1-0.4,0.6-0.9c0.3-0.2,0.6-0.4,0.7-0.4c0.1-0.1,0.7-1,0.8-1.2c0-0.2-0.1-0.4-0.2-0.4c-0.1,0-0.3,0-0.6,0h-0.4l-0.1-0.1c-1.1-1.2-1.2-1.3-1.2-1.4c0-0.2,0.2-0.4,0.4-0.4c0.1,0,0.2,0.1,0.7,0.5c0.3,0.3,0.6,0.6,0.6,0.6c0.1,0.1,1.4,0.1,1.6,0c0.2-0.1,1-1.5,1-1.7c0-0.2-0.8-1.6-1-1.7C14.4,8,13.1,8,13,8.1c0,0-0.2,0.3-0.3,0.6c-0.5,0.9-0.8,1.2-1.2,0.9c-0.1,0-0.1-0.1-0.2-0.1c0,0,0.2-0.4,0.4-1c0.2-0.5,0.4-1,0.4-1.1c0-0.1,0.1-0.1,0.1-0.2c0,0,0.5-0.3,1-0.6c0.8-0.5,1-0.6,1.1-0.6C14.5,6.1,14.9,6.2,15.5,6.4z M14.4,9.3c0.2,0.3,0.3,0.5,0.3,0.5c0,0-0.1,0.2-0.3,0.5l-0.3,0.5l-0.5,0l-0.5,0l-0.3-0.3l-0.3-0.3l0.2-0.2c0.2-0.2,0.4-0.6,0.6-0.9l0.1-0.2l0.4,0l0.4,0L14.4,9.3z M7.2,9.5l0.3,0.3l-0.2,0.3c-0.2,0.2-0.3,0.4-0.4,0.7l-0.2,0.4l-0.3,0l-0.3,0l-0.3-0.5c-0.2-0.3-0.3-0.5-0.3-0.5c0,0,0.1-0.2,0.3-0.5l0.3-0.5l0.5,0l0.5,0L7.2,9.5z"/>
</svg>
