<svg version="1.0" xmlns="http://www.w3.org/2000/svg" width="1002.667" height="1002.667" viewBox="0 0 752 752"><path d="M171 17.6c-10.6 2.2-22.4 7.5-30.4 13.4-20.6 15.4-32 38.7-31.2 64 .4 11.2.9 15 3.2 21.8 2.2 6.7 7.1 16.7 8.8 18.1.9.8 1.6 2 1.6 2.7 0 .8.5 1.4 1 1.4.6 0 1 .5 1 1 0 1.1 12.5 14 13.6 14 .3 0 2 1.2 3.7 2.6 4.3 3.6 19.5 10.7 25.7 11.9 10 2 24.2 2.7 30 1.4 1.9-.4 4.7-1 6.3-1.3 5.3-.9 10.4-2.8 17.7-6.5 8.6-4.3 10.7-5.9 19.1-14.1 8.9-8.7 13.5-15.4 18-26.5 5.7-14.1 6.8-33.2 2.8-48-2.8-10.2-8.3-20.9-14.4-28.4-6.5-7.9-21.6-20.1-25-20.1-.4 0-2.1-1-3.8-2.2-1.8-1.3-3.3-2.2-3.5-2-.1.1-2.6-.4-5.6-1.3-8.9-2.6-9.7-2.7-21.1-3-6.8-.2-13.5.2-17.5 1.1z"/><path d="M392.6 30.2c-2.8 1.5-5.4 4.5-10.7 12.6-3.7 5.9-7.3 11.4-7.9 12.2-1.1 1.6-10.6 16.3-25.1 39-5.1 8-9.6 14.7-9.9 15-.3.3-1 1.4-1.7 2.5-2.1 3.7-11.3 17.9-18.4 28.5-3.8 5.8-7.2 11.2-7.6 12-.4.8-1.1 1.9-1.5 2.5-1.1 1.3-27.2 41.6-29.3 45.2-.5.9-1.4 2.2-2 2.8-.5.6-1.9 2.8-3 4.8s-2.3 3.7-2.7 3.7c-.5 0-.8.5-.8 1 0 1-4.5 8.4-6.5 10.6-.5.7-2.2 3.2-3.6 5.7l-2.7 4.4-8.8-.3c-4.9-.1-13.4-.5-18.9-.8-5.5-.3-15.6-.8-22.5-1.1-6.9-.3-17-.7-22.5-1-14-.8-30.2-1.5-42.5-2-5.8-.2-15.2-.7-21-1-5.8-.3-15.2-.8-21-1-5.8-.3-15.9-.7-22.5-1.1-6.6-.3-15.4-.7-19.5-.9-14-.6-35.4-1.6-36-1.8-.3-.1-2.3.2-4.6.6-4.3.7-10.4 5.5-10.4 8.2 0 1.4 2 6.6 3 7.5.3.3 3.2 5.8 6.5 12.2 9.6 18.8 15.4 30.1 25.5 49.3 5.1 9.9 9.9 19 10.4 20.3 1.2 2.4 3.5 3.5 8.1 3.8 3 .1 28.2 1.3 42.5 1.9 4.1.2 13.4.6 20.5 1 7.2.4 16 .8 19.6.9 3.6.2 7.1.6 7.7 1 .7.4 1.2.2 1.2-.4 0-.6.4-.9.9-.6.4.3 6.4.8 13.2 1.1 6.8.3 16.7.8 21.9 1.1 5.2.2 14.5.7 20.5.9 6.1.3 15.5.8 21 1 5.5.3 14.7.7 20.5 1 9.8.3 23.1 1 43 2.1 15.9.8 17.2.2 26.5-13.9 1.4-2.1 2.5-4.2 2.5-4.7 0-.4.3-1 .8-1.2.4-.2 2.7-3.5 5.2-7.3 2.5-3.9 4.8-7.2 5.2-7.3.5-.2.8-.7.8-1.2s1.7-3.5 3.8-6.7c3.9-5.8 7.5-11.5 19.3-29.8 3.6-5.5 9.6-14.8 13.4-20.7 3.9-5.9 7.5-11.6 8-12.5.6-1 1.3-2 1.6-2.3.4-.3 1.5-1.9 2.5-3.7 1.1-1.8 7.5-11.9 14.4-22.4 6.9-10.6 12.7-19.7 12.9-20.3.2-.5.8-1.5 1.3-2.1.5-.5 3.7-5.3 7.1-10.5 3.4-5.3 9.1-14.1 12.7-19.5 3.6-5.5 7.1-11.2 7.9-12.8.7-1.5 1.7-2.7 2.2-2.7.5 0 .9-.5.9-1.2 0-.6 1.1-2.5 2.4-4.2 4.2-5.6 4.1-6.6-1.7-17.7-3-5.7-8.3-16-11.8-22.9-3.5-6.9-6.7-12.7-7.1-12.8-.5-.2-.8-1.2-.8-2.2 0-1-.3-2-.7-2.2-.5-.2-3.4-5.5-6.6-11.8-11.8-23.3-15.1-29-16.6-29.1-.9 0-2.3-.2-3.1-.4-.9-.1-3.3.6-5.4 1.7zm129.7 136.6c-2.4.4-6.3 4.6-6.3 6.8 0 .8-.4 1.4-1 1.4-.5 0-1 .5-1 1.1 0 .6-1.4 3-3 5.5-1.7 2.4-2.8 4.4-2.5 4.4.3 0-.5 1.5-1.9 3.3-1.5 1.9-2.6 3.7-2.6 4.1 0 .5-.8 2-1.9 3.4-1 1.5-2.9 4.7-4.3 7.2-3.2 5.7-12.4 21.4-15.3 26-1.2 1.9-9.2 15.3-17.6 29.7-8.5 14.5-16.4 28-17.6 30-1.3 2.1-2.7 4.7-3.3 5.8-.6 1.1-2.3 4.1-3.8 6.6-3.1 5.3-29.9 50.7-31.2 52.9-6.4 10.6-9 15.2-9 15.9 0 .5-.3 1.1-.7 1.3-.5.1-2.1 2.7-3.6 5.6-4.9 9.1-5 8.9 14.2 42.1 3.9 6.8 7.1 12.4 7.1 12.6 0 .2 1.8 3.3 4 6.9 2.2 3.6 4 7 4 7.5s.3 1.1.8 1.3c.4.1 1.5 1.9 2.6 3.8 2.8 5.3 77.6 136.1 79.4 139 .9 1.4 1.7 2.7 1.7 3 .2 1.3 6.8 12.1 7.8 12.7.7.4 8.6.8 17.8.9 9.1 0 17 .4 17.7.8.7.4 1.2.4 1.2-.1 0-.9 15.7-.9 16.6 0 .3.3 1.7.2 3.1-.2 1.5-.4 4.8-.4 7.5-.1 2.7.4 5.1.3 5.4-.2.3-.5.9-.6 1.4-.3 1.8 1.1 33 .9 34.1-.2 2.2-2.2 3.7-8.6 2.8-11.7-.5-1.7-3.8-8.2-7.4-14.4-3.6-6.2-6.5-11.7-6.5-12.2 0-.6-.4-1-1-1-.5 0-1-.4-1-.9s-3.1-6.4-7-13.1c-3.8-6.7-7-12.6-7-13 0-.5-.3-1-.7-1.2-.8-.3-4.6-6.9-6.8-11.5-.5-1.3-1.3-2.3-1.7-2.3-.5 0-.8-.4-.8-.9s-4-8-9-16.6c-4.9-8.6-9-16.1-9-16.6s-.4-.9-.9-.9-1.4-1.4-2.1-3.1c-.7-1.7-2.4-4.6-3.6-6.5-1.3-1.9-2.1-3.4-1.9-3.4.3 0-1.1-2.5-3-5.5s-3.5-5.9-3.5-6.5c0-.5-.3-1-.8-1-.4 0-1.6-2-2.7-4.5s-2.3-4.5-2.7-4.5c-.5 0-.8-.6-.8-1.3 0-.7-.6-1.9-1.2-2.5-.7-.7-1.3-1.6-1.3-2-.1-1-5.6-10.4-7.3-12.5-.8-.9-1.1-1.7-.6-1.7.5 0 .5-.4-.1-.8-.5-.4-2.1-2.7-3.4-5.2-1.3-2.5-3.1-5.3-3.9-6.3-.8-.9-1.1-1.7-.7-1.7.4 0 .1-.8-.7-1.8-.9-.9-2.7-3.8-4.2-6.5-7-12.6-7.9-14.3-8.6-15.2-1.6-2.2-6-10.6-6-11.5 0-.7 13.6-24.5 20-35 4.9-8 9-15.4 9-16.1 0-.5.4-.9.8-.9s1.8-1.9 3-4.3c2.4-4.4 3.8-6.8 13.7-23.6 3.3-5.6 6.5-11 7-11.9 5.7-9.7 7-11.8 7.9-12.4.6-.4.7-.8.3-.8-.6 0 2.1-4.9 7.1-12.6.6-1 1.5-2.6 1.9-3.4.3-.8 1.4-2.6 2.3-4 1-1.4 2.9-4.5 4.2-7 1.4-2.5 3.8-6.8 5.4-9.5 1.5-2.8 3-5.2 3.3-5.5.3-.3 1.7-2.5 3-5 1.4-2.5 2.7-4.7 3-5 .3-.3 1.5-2.1 2.5-4 2.5-4.5 6.9-12.1 10.7-18.5 1.7-2.8 3.3-5.8 3.6-6.8.3-.9.9-1.7 1.4-1.7.5 0 .9-.7.9-1.5s.4-1.5.9-1.5 1.1-.8 1.4-1.8c.4-.9 2.2-4.5 4.1-8 2.9-5.3 3.4-7 3-11-.7-8.2-.3-8.1-33.2-8.2-15.8 0-37.9-.2-49.2-.3-11.3-.1-21.5-.1-22.7.1z"/><path d="M660.8 310.6c-.3.2-2.9.6-5.9.9-10.2 1-21.7 5.1-31.4 10.9-6.6 4-6.5 4-14.9 12.4-8.2 8.2-14.3 18.1-18 29.2-3.2 9.8-3.9 14.6-3.9 25.3.2 11.5 2.5 21 7.8 32.2 11.2 23.2 32.2 38.7 58.5 43.2 8 1.3 22.3.6 29.8-1.6 1.7-.5 3.2-.7 3.2-.3 0 .3.5.1 1.2-.6s1.9-1.2 2.8-1.2c.8 0 3.3-1 5.5-2.1 2.2-1.2 4-2 4-1.8 0 .5 9.7-5.7 13.3-8.6 4.2-3.3 12.4-12 15.2-15.9 6-8.8 11.1-20.5 12.6-29.1.3-2.2.8-4.8 1-5.8.8-4.7.3-19.4-.9-24.7-2-8.5-7-21.3-9.4-23.8-.6-.6-1.5-2.1-1.8-3.2-.3-1.1-1.1-2-1.6-2s-.9-.6-.9-1.3c0-1.7-14.9-16.7-16.7-16.7-.7 0-1.3-.4-1.3-.9 0-.9-10.6-6.8-16-8.9-8.7-3.3-12.5-4.2-21.5-4.8-3.8-.3-7.8-.6-8.7-.8-.9-.2-1.8-.2-2 0zM56.5 410.3c-1.3.7-9.6 12.4-11.5 16.2-.3.5-4.8 7.5-10 15.5-23 34.9-35 53.8-35 55.2 0 2.4 3.8 6.6 7.3 8.3 2 .9 7.8 1.7 15.2 2 15.6.8 25.6 1.3 38.5 2 24.7 1.2 32 1.6 41.5 2 11 .5 22.3 1.1 39 2 6.1.3 15.5.8 21 1 5.5.3 14.1.7 19 1 5 .3 13.5.7 19 1 36.9 1.7 47.9 2.5 48.7 3.3.3.4 4.1 7.4 8.3 15.7 12.2 23.7 30.9 60 48.7 94.5 5.8 11.3 14.7 28.6 19.8 38.5 15.8 30.7 17.9 34.7 18.9 35.9.5.6 1 1.4 1 1.9.1.6 4.5 9.5 10.3 20.6 2.8 5.2 6.6 8.1 11.6 8.8 2.8.4 4 0 5-1.4 2.6-3.7 18-27.3 18.4-28 .1-.5 3.9-6.2 8.2-12.8 17.7-26.8 26.9-41.1 27.8-43.1 1.2-2.5 2.9 1.1-32.2-66.9-13.4-25.9-23.9-46.4-33.5-65-5.1-9.9-12.3-23.8-15.9-30.9-3.7-7.2-7.2-13.6-7.8-14.3-.6-.7-.8-1.3-.4-1.3.3 0-.4-1.7-1.6-3.8-1.3-2-4.3-7.8-6.8-12.7-2.5-5-4.9-9.3-5.3-9.6-.5-.3-.8-.9-.8-1.3.2-1.5-8.3-17.1-10.2-18.8-4.4-3.8-4.9-3.9-35.2-5.3-6-.3-15-.8-20-1-4.9-.3-13.7-.7-19.5-1-5.8-.2-10.5-.5-10.5-.5 0-.1-3.6-.3-8-.5s-13.2-.6-19.5-1c-6.3-.3-15.8-.8-21.1-1-10.1-.5-23.3-1.1-39.2-2-5.4-.3-13.9-.8-19-1-5.1-.2-13.7-.7-19.2-.9-5.5-.3-15.4-.8-22-1.2-19.9-1-21.4-1.1-23-.1z"/><path d="M156.7 573.6c-.1.1-2.5.4-5.4.8-2.8.3-6.3 1-7.7 1.6-1.4.5-2.6.8-2.6.5 0-.2-3.2.9-7.1 2.5-14.5 6-27.2 16.5-35.6 29.3-3.6 5.5-7.2 12.2-7.8 14.7-.1.3-.9 3-1.9 6-4.3 13.5-4.1 30.4.5 44.9 7.4 23.4 26.4 42.6 49.6 50.1 7.9 2.5 17.5 4.2 22.8 4.1 6.1-.1 16.4-1.3 19.8-2.2 2.3-.7 4.4-1.3 4.7-1.4 5.3-1.2 17.1-7 23.1-11.5 14.2-10.4 26.3-28.5 29.6-44 1.2-5.8 1.5-8.6 1.8-17.2.4-13.7-1.8-23.4-8.3-36.3-10.8-21.5-34.1-38.3-56.7-41.1-1.1-.1-2-.3-2-.4 0-.3-16.5-.7-16.8-.4z"/></svg>