<svg width="450" height="509" viewBox="0 0 450 509" fill="none" xmlns="http://www.w3.org/2000/svg">
<path d="M291.305 264.482L291.199 262.394L288.612 262.226L286.689 264.144L284.27 263.048L281.08 264.25L279.538 262.384H277.89L276.464 263.807H273.601L271.732 262.932V259.422L272.83 258.326V256.017L271.954 253.382L274.045 250.093L275.26 246.689L271.626 243.063L270.633 238.235L267.559 236.591V233.523L268.774 232.427L267.559 231.215V228.358L264.264 227.041L263.271 228.031L262.278 225.069L263.926 223.425L265.679 220.569L268.32 219.799L267.327 213L266.556 208.615V206.307L263.482 200.71L263.155 194.891L260.081 192.804L258.76 189.726L257.81 187.365V185.91L261.507 184.456L265.33 179.059L267.971 178.268L271.542 179.322L272.598 176.951V174.052L270.612 172.07L271.542 168.645L274.182 167.717V164.955L274.056 161.393L276.96 159.411L280.33 156.048L281.059 153.613H282.517L282.253 150.051H279.485L276.971 145.307V140.964L274.732 138.73L269.978 135.304V133.459L266.408 132.142L265.162 129.517L265.764 125.986L264.264 124.489L262.7 122.139L261.897 120.104L263.112 118.829L263.461 117.142L262.056 116.025L261.602 112.936H259.489L256.848 113.116L257.028 115.93L256.848 117.332L258.961 117.511L260.281 118.829L258.612 122.075L255.792 123.129L252.803 125.585C252.803 125.585 252.275 128.748 250.69 128.748C249.106 128.748 246.285 129.623 246.285 129.623L243.116 131.552L243.824 135.062L240.655 136.464L241.532 133.301L242.24 128.737L245.144 125.838L246.465 121.886L250.69 120.832L251.746 115.382L254.387 112.747L255.443 107.824V106.064L258.961 101.848L260.989 99.8237L262.658 96.398L264.422 93.942V90.4319L266.45 88.4081L264.253 84.6344L260.736 82.7055L259.331 81.3036L262.848 82.0098L263.197 78.3205L260.82 75.9488L258.971 74.1042L257.736 75.5061L255.623 73.7458L253.859 70.2357L251.831 68.2119L249.106 69.5295L247.078 67.5057L243.465 70.0565H239.947L236.071 72.1647L237.655 73.7458L236.779 76.7289C236.779 76.7289 233.958 75.4956 232.902 75.4956C231.846 75.4956 232.025 73.2082 232.025 73.2082L234.317 70.9209L231.761 68.37H228.328L227.229 69.4662L221.642 69.1606L223.934 66.1775L226.659 63.458L225.867 59.853L223.226 60.2009L219.709 58.0927L216.888 61.0758L213.719 63.3631L211.079 69.8668L210.181 72.755V76.9713L211.586 78.0254L211.934 81.0084H210.698L206.653 82.2417H202.776L203.832 84.1707L205.945 85.7518L207.529 87.8599L204.012 87.1537L200.494 87.8599L199.966 90.6743L194.505 90.4951L192.308 92.6876V90.1367L193.977 86.9745L190.808 87.5015L189.931 89.4305L186.055 89.9576L181.481 91.0116L179.717 92.7719L182.886 93.826L181.829 95.0593L177.076 96.4612L175.407 98.1267L168.805 99.0964L166.956 100.941L162.119 102.786L160.186 106.823L155.253 106.644L155.432 109.279L157.893 109.458L155.432 111.387L153.668 113.864L155.168 115.361L154.196 117.553L155.601 119.134L153.489 119.662C153.489 119.662 153.489 117.026 152.168 118.344C150.848 119.662 150.14 120.368 150.14 120.368L151.904 122.128L154.017 122.834L155.781 125.469L154.017 127.23H150.668L146.094 129.159H139.228V130.213L135.003 128.632H126.732L123.215 131.794L124.091 136.189L125.496 137.591L123.912 141.101L122.856 145.318L124.261 146.72L126.722 150.757L130.07 151.99L129.891 154.446L131.824 157.081L131.116 159.896H126.363L123.278 156.818L122.137 155.679L123.373 152.169L118.81 149.703L116.433 147.331L113.528 147.774L110.011 147.068L110.19 149.176H111.859L112.567 151.105L114.067 152.601L116.264 153.044L118.725 154.362L119.338 156.649L117.669 158.315L118.018 160.159L114.669 160.686L112.25 163.1L113.349 165.43L114.057 164.46L115.197 166.652L118.979 168.761L118.63 172.977V179.038H115.113L113.792 181.146L111.194 183.739L107.983 186.153L108.162 189.399L109.705 190.938L110.19 192.825L112.388 195.018L115.736 195.545L116.18 197.832L117.321 198.97L119.433 197.126C119.433 197.126 120.204 198.464 120.489 198.18C120.775 197.895 122.602 196.156 122.602 196.156L122.518 199.582L125.243 200.109V202.828L126.912 206.866L125.94 209.416H124.62L126.025 212.052L124.884 215.393L122.993 217.28L122.338 219.43L119.877 218.903L119.792 221.717L121.504 223.425L122.074 226.63L120.574 229.265L122.158 230.846V233.302L126.035 235.589L127.535 238.667L125.158 240.86V242.62L126.394 244.728V247.89L124.81 249.124L126.743 252.634H128.855L130.968 254.742L132.553 257.904L132.901 261.941L131.137 263.701L132.014 267.391L136.059 268.266L138.088 270.289L140.116 268.266L140.823 272.482L140.116 276.171L141.352 278.986L138.975 281.357L136.419 284.604L134.655 287.945L137.295 291.635V296.03L134.739 298.581L134.475 302.534L132.975 304.031L128.834 308.163L128.887 313.559L133.334 316.479L138.32 318.64L135.721 322.972L129.436 325.681L125.422 329.687L118.916 324.933L111.976 327.853L110.676 332.185L106.018 329.803L102.659 330.667L98.5922 326.609L94.1979 328.285L88.5573 327.642L87.0362 325.365H80.9624L76.7372 323.531L71.0965 324.395L66.9769 333.597L67.3043 339.11L61.4524 340.734L56.6779 344.202L56.1391 347.88L51.1534 350.79L49.5689 353.024L46.7274 355.86L43.2311 357.504H39.0058L36.3651 356.713L33.3229 355.132L32.1398 356.84H28.5695L26.3301 355.385L24.3443 354.458L21.3021 353.53L18.9254 352.74V350.631L20.6366 348.924L17.8691 346.162L15.2283 348.007L14.003 350.041L11.5313 352.75L11.2672 355.512L12.4502 359.075L9.68272 360.392V362.374L12.0594 363.554L13.7073 365.199L14.5629 367.244L17.2036 368.698V371.059L15.9466 372.314L12.577 372.904L8.15106 377.321V380.42L7.42221 382.264L5.57367 384.109L4.11595 384.373V386.744L2.33079 388.526L1.33789 390.57V392.679L3.97866 393.912L5.38354 398.307L4.50682 400.763V404.105L2.30968 406.297L3.28149 409.375L7.15813 410.429L10.6757 408.321L13.2319 410.872L12.0911 415.004L15.6086 416.058L17.5417 414.129L20.7106 416.058H24.2281V418.493L20.0028 420.422L18.9465 425.165H21.9359L25.633 423.405L27.566 426.219L31.7913 423.932L36.7242 422.53L39.6291 419.631L42.3543 419.547L46.0514 419.368L48.6922 416.733H51.8611L52.7378 419.189L50.6252 422.003H48.164V425.165L51.1534 426.399L53.3505 428.591L55.3786 432.892L57.3117 434.821L60.301 437.804L62.4136 444.834V450.632L65.234 453.267V457.483L68.2233 462.754L69.1001 467.318L70.3359 471.355L72.6281 475.919L76.5048 475.213L78.4378 471.176L81.2582 470.301L83.1912 472.588V475.224L85.1243 477.153L87.2369 479.261L91.1135 478.554L92.8776 480.315L97.2824 479.609L99.4795 477.416H103.969L106.124 479.566L109.419 481.021L111.881 483.308L112.588 487.525L115.578 489.454L116.983 492.616L120.68 494.903V499.12L125.433 500.353L129.658 501.755L134.232 499.994L136.957 497.275L137.929 500.88L139.862 504.39L141.447 507.025L146.549 507.9L148.841 505.613L153.246 503.157L158.527 503.336L161.432 500.437L165.573 499.467L166.28 495.778H169.798L173.315 492.268L179.125 488.579H183.699L184.935 484.89H188.812L191.896 481.812L195.678 483.477L198.667 486.46L203.42 484.531L207.466 485.764L210.814 489.106L213.635 491.92L218.737 493.681L222.254 494.735L227.187 493.86L231.941 495.093H237.043H240.391L244.352 491.14L248.493 488.421V484.204L245.409 481.126V477.174L243.211 474.538L243.919 469.974L246.296 467.603L248.493 463.123L251.218 460.403L253.246 458.379L257.292 461.362H264.158L267.591 464.788L272.608 463.471H277.013L281.587 465.231L284.841 468.477L287.397 473.832L290.122 476.552L294.432 478.396L300.77 478.923L305.174 477.69L309.748 476.636L313.889 472.504H318.906L327.008 471.366L329.47 472.947L335.628 473.822H342.314L344.775 476.278L346.18 478.913L350.934 480.494L356.215 479.788H363.43L368.532 478.207H374.162L376.359 476.014L380.669 471.714L386.299 469.078L390.345 466.264L393.429 463.186L394.929 458L401.267 451.675L405.672 449.747L409.02 450.98L412.717 452.909L417.65 450.094L421.168 447.986L425.921 448.861L432.439 449.388L438.248 447.28L441.681 443.854L444.058 438.32L447.755 437.266V432.344L446.171 430.763L443.53 425.671L445.463 420.749V416.005L446.519 408.448L447.924 405.465L446.519 399.846L444.153 397.411L441.956 395.219L439.231 397.411L437.298 394.955L438.702 391.445L440.635 385.648L443.361 382.928L448.906 379.682L446.361 375.297L445.22 373.01H442.231L441.354 369.236L439.854 366.949L442.495 365.367V364.134H441.09L438.713 361.583L436.78 361.32L437.224 356.84L436.083 354.816L434.847 351.39L432.027 349.988L429.998 352.803L427.886 352.012L427.706 349.029L426.301 347.627L424.231 347.058L422.076 349.208L421.02 351.844L417.407 350.874L416.266 348.681L418.379 346.046L417.143 344.022L414.766 344.813L411.682 344.022L409.559 341.883L409.517 339.764L406.654 338.994V335.916L404.013 335.042L401.267 331.426L397.422 330.003L396.598 325.998L394.781 324.185L395.383 322.266L390.376 317.27L388.95 313.317L386.753 313.096V310.576L384.387 307.994L382.465 306.075H379.655V308.763L377.183 311.23L373.338 310.682V308.163L371.69 306.74V303.556L368.278 303.114L364.317 301.248L360.578 301.691L356.839 301.142L354.747 303.662L353.701 307.119L351.23 309.586L352.222 312.99L350.902 316.943L347.606 320.232V326.377L342.99 329.56V333.186L341.015 330.446V327.368L338.702 325.07L336.505 326.061L335.955 328.907L330.124 331.099H327.378L326.28 334.388L324.515 337.023L320.723 337.297L316.488 333.07L316.044 324.29L316.593 319.02V314.086L317.248 309.702V305.422L314.174 304.104L311.977 303.335L311.65 301.248L310.636 298.866L308.629 296.863V294.502L310.002 293.131L310.382 289.895L308.46 287.977H305.935L303.189 286.659V284.14L304.287 283.044L303.072 281.842L302.079 278.005L299.882 274.053L297.242 272.187L294.273 273.062L291.411 273.283V269.878L293.777 269.225V266.969L291.305 264.482ZM232.11 61.8242L231.465 62.7834L232.902 63.7426L233.536 62.6253L232.11 61.8242ZM225.233 47.6363L223.638 48.5955L225.877 49.7128L227.472 50.8301L229.226 50.3558L228.751 48.2792L226.997 48.7536L225.233 47.6363ZM209.579 39.8255V37.5909L209.737 33.6065L208.617 31.3718L207.022 31.5299L204.783 34.2389L204.941 36.6317L203.98 38.2233L204.614 42.524L202.691 44.4424L202.85 48.743L201.889 52.4112L201.086 56.0794L202.522 56.8805L205.554 54.4878L207.307 53.3704L211.3 51.2939L214.501 50.9777L218.494 47.9525L220.406 44.2843L219.128 41.101L217.691 38.7082L215.769 39.5093L213.846 36.1573L212.409 34.7238L210.656 36.8003L209.579 39.8255ZM195.202 22.76L193.766 24.5097L192.487 26.9025L191.368 26.4282L192.171 23.403V20.2196L188.653 21.337C188.653 21.337 186.572 21.8113 186.097 21.9694C185.621 22.1275 183.224 22.9286 183.224 22.9286L182.104 25.3214L181.47 27.3979L180.034 29.1477L180.509 31.2242L177.794 33.3008L179.072 34.4181L180.984 33.7856L182.579 36.0203L182.738 38.0968L184.174 39.8466L187.85 40.1628L188.326 42.2394L190.882 40.6477L192.16 42.7242L195.678 43.9997L199.037 42.408L200.632 40.1734L199.353 37.6225L197.273 34.7554L198.868 33.6381L199.501 30.9291L198.699 27.9039L199.015 24.8787L195.202 22.76ZM192.329 71.5533L190.734 73.4612L188.653 73.9355L190.576 75.3691L192.498 73.4507L192.329 71.5533ZM165.647 70.9103L164.844 72.1858L165.964 73.145L167.4 71.0684L165.647 70.9103ZM149.189 114.602L147.267 115.561C147.267 115.561 148.07 117.954 148.07 117.638C148.07 117.321 149.506 117.005 149.506 117.005L149.189 114.602ZM135.447 100.245L133.693 101.679L134.655 103.597L136.25 103.281L135.447 100.245ZM134.802 121.137L134.486 122.887H137.2L138.637 124.321L138.795 121.928L137.2 121.612L134.802 121.137ZM125.539 26.5863L124.577 27.5455L125.697 28.178L127.451 29.4534L127.926 27.8617L125.539 26.5863ZM115.799 137.718L114.68 139.151L115.324 141.07L116.444 142.503L118.039 140.754L118.683 138.677L117.247 137.244L115.799 137.718ZM138.975 5.94741L137.654 6.21093L136.799 7.06473L138.119 8.38232L139.904 7.79204L140.961 6.73797L138.975 5.94741ZM169.206 3.31221L168.023 4.49277L168.953 5.42037L169.946 6.4112L171.995 4.50332V3.18572L169.206 3.31221ZM181.882 1.6046L181.481 4.2398L179.104 5.29388L175.534 7.66556V10.9543L176.991 12.4089L175.079 14.3168L173.822 16.7517L175.534 19.1234L176.189 21.4951L179.231 24.1303L181.998 21.4951H183.847L186.614 19.914L189.91 18.8599L188.981 15.6976V11.7448L190.966 10.0372L189.319 8.39287L185.949 5.03036L184.766 2.39516L181.882 1.6046ZM174.097 23.4767L171.858 23.2132L172.259 26.1119V27.9566L175.164 28.7471L176.347 29.9277L178.132 28.1463L179.125 25.5744L177.414 24.2568L174.097 23.4767ZM138.838 90.9378L137.982 91.7916L139.102 92.7825L140.95 92.2554L138.838 90.9378Z" fill="#4242EA" stroke="#4242EA" stroke-opacity="0.22"/>
</svg>
