<svg width="330" height="418" viewBox="0 0 330 418" fill="none" xmlns="http://www.w3.org/2000/svg">
<path d="M104.19 320.867L102.231 320.345V318.237L100.417 317.635L98.5314 315.142L95.8909 314.164L95.3251 311.411L94.0774 310.164L94.4909 308.845L92.6411 306.997L91.0525 305.41L90.0732 302.693L88.5644 302.541V300.809L86.9395 299.033L85.6193 297.715H83.6897V299.562L81.9922 301.258L79.3518 300.881V299.149L78.2201 298.171V295.983L75.8771 295.678L73.1568 294.396L70.5889 294.7L68.021 294.323L66.5847 296.055L65.8665 298.432L64.1691 300.128L64.851 302.468L63.9442 305.186L61.681 307.447V311.671L58.511 313.86V316.353L57.1544 314.469V312.353L55.5658 310.766L54.057 311.447L53.6798 313.403L49.6755 314.911H47.7895L47.0351 317.172L45.8237 318.983L43.2195 319.172L40.3106 316.266L40.006 310.229L40.3831 306.606V303.215L40.8329 300.2V297.258L38.722 296.352L37.2131 295.823L36.9883 294.388L36.2919 292.751L34.9136 291.374V289.751L35.8566 288.809L36.1178 286.584L34.7976 285.265H33.0566L31.1706 284.359V282.627L31.925 281.874L31.0907 281.04L30.4088 278.403L28.9 275.685L27.0865 274.402L25.0482 275.004L23.0823 275.156V272.815L24.7072 272.366V270.823L23.0098 269.127L22.93 267.692L21.1528 267.576L19.8325 268.895L18.1713 268.141L15.9806 268.967L14.9215 267.685H13.7899L12.8106 268.663H10.8448L9.5608 268.062V265.649L10.3152 264.895V263.308L9.71315 261.496L11.1494 259.235L11.9837 256.895L9.48827 254.409L8.80639 251.09L6.69545 249.96V247.844L7.52968 247.09L6.69545 246.257V244.293L4.4322 243.387L3.75032 244.068L3.06844 242.032L4.20006 240.902L5.40426 238.938L7.21776 238.409L6.53588 233.735L6.00635 230.72V229.133L3.89541 225.285L3.67053 221.285L1.55963 219.85L0.65288 217.734L0 216.111V215.111L2.53891 214.111L5.16486 210.401L6.97837 209.857L9.43023 210.582L10.1556 208.952V206.959L8.79187 205.596L9.43023 203.241L11.2437 202.604L11.1567 198.256L13.1515 196.893L15.4656 194.582L15.9661 192.908H16.9672L16.7858 190.458H14.8853L13.1588 187.197V184.212L11.621 182.676L8.35665 180.321V179.052L5.90479 178.147L5.04882 176.342L5.4623 173.915L4.4322 172.886L3.35862 171.27L2.8073 169.871L3.64153 168.994L3.88093 167.835L2.91613 167.067L2.60421 164.943L4.65707 165.429L7.07267 166.393L7.55868 164.943L9.06753 162.827L10.337 164.096V166.509L11.7878 168.559H13.478L11.7878 166.987L12.9339 165.835L15.1682 163.603L18.1931 162.03L22.7849 161.182L26.4119 160.095L27.3187 161.487L26.4699 162.335L28.4648 164.327H32.2151L32.3384 163.364L32.7011 162.037L34.152 164.335L36.6909 163.371L39.2298 161.197C39.2298 161.197 41.892 160.711 42.4941 160.711C43.0962 160.711 42.4941 158.537 42.4941 158.537L42.1314 156.124L40.3179 153.349L40.8039 150.573L41.1666 149.124L42.6174 150.573L44.1262 149.429L45.3957 150.697L47.3325 152.023L47.8185 150.573L48.7833 150.334L49.7481 151.421L50.7129 150.697C50.7129 150.697 50.5896 148.465 51.4963 148.465C52.4031 148.465 52.6424 147.32 52.6424 147.32L55.3047 149.371L56.1534 148.523L59.055 149.486L58.0902 152.443H59.483L60.8757 153.834V156.153L63.1753 154.704L64.3867 155.914V158.574L62.8126 159.059L61.8478 160.023L63.538 161.711C63.538 161.711 64.8655 161.11 64.8655 160.501C64.8655 159.9 65.9536 161.588 65.9536 161.588V163.523L68.4345 163.465L70.792 165.82L72.6055 167.03L75.1444 167.516L76.2325 166.429L79.0108 167.878L79.2502 165.581L78.0388 161.595L77.3134 159.784V158.095L75.7393 156.523V154.349L78.7642 154.711L80.4544 156.4L83.1166 155.675H86.1415L85.5394 152.53L87.2296 149.392L90.3706 148.668L92.6701 148.544L95.3324 149.269V147.457L92.4888 146.189L93.5189 145.16L94.8464 143.711L97.1459 143.834L98.9594 142.023L98.1107 141.537L96.2972 139.725L94.2443 138.638V135.979L93.3955 135.254L92.1841 138.392L90.7333 137.428V134.892L93.3955 132.479L93.0328 130.79L90.4939 129.218L92.068 127.645H94.3676L97.7552 125.957L98.72 123.182L103.196 121.493L106.699 119.921C106.699 119.921 107.185 120.406 107.185 121.131C107.185 121.855 104.886 122.703 104.886 122.703L104.037 125.964L106.09 125L107.904 123.189L110.203 123.913L109.601 128.624L111.654 126.689V124.392L110.929 120.529L111.415 118.841L112.503 115.819L115.042 114.609L118.669 113.036L120.845 114.609C120.845 114.609 119.815 116 119.031 116.783C118.248 117.565 119.88 118.109 119.88 118.109H122.542L124.232 116.174C124.232 116.174 126.169 118.225 126.532 118.587C126.895 118.95 126.169 115.812 126.169 115.812L129.434 114L131.733 115.21L134.272 115.087L136.572 112.79L138.987 109.768V106.268L142.012 101.797L144.551 99.2607L146.85 96.4852L150.84 95.8838L154.163 95.7026L155.795 97.3331L159.182 100.717L162.207 99.3911L164.383 97.6374H166.741L165.595 96.4925V94.804L167.894 92.5069V88.5213L168.982 86.4705H170.796L172.37 84.898V82.4849L175.395 80.311L176.12 77.4123L174.909 76.2022L175.395 74.7529L173.705 72.3398L175.032 69.9267L176.302 68.6585L178.601 70.9557L176.846 72.7093L178.659 74.521H181.438L183.374 73.7963L186.037 72.5861L188.452 71.9847L189.054 70.0498L188.329 68.115L187.001 67.8759L182.888 66.0642L179.864 66.5498L179.138 64.8613H176.723V63.5352L177.325 61.238L179.501 60.1511L179.74 57.6148L181.677 56.5278H183.367L182.642 54.477L183.367 52.3031L185.42 49.2812L186.385 45.7812L190.07 42.2159L194.183 38.1071L196.054 36.2375L199.682 34.665L202.278 33.1577L204.694 30.7446L207.175 28.2663L210.2 27.0561L212.376 23.9183L216.489 22.7082L218.665 20.411L221.327 19.2008L223.018 18.237L224.954 20.1719L227.733 19.324L230.214 21.1936L231.846 19.5632L234.747 17.9907V16.5414L231.846 17.1428L228.458 16.9037L226.282 16.3022L227.007 14.1283L229.307 12.5558L227.37 12.0702V10.9833L228.698 11.1064L228.937 8.93249L230.148 7.24404L231.839 5.5556L234.74 4.46861H235.589L237.765 1.4468C237.765 1.4468 239.818 0.845341 240.543 0.120686C241.269 -0.603968 240.543 2.17146 240.543 2.17146L242.118 3.49758L243.314 4.7005L241.987 7.47593C241.987 7.47593 243.8 7.47593 244.526 6.75127C245.251 6.02662 244.526 8.20058 244.526 8.20058V10.7369L241.748 12.5485L243.924 12.9108L245.251 11.5847L248.095 12.6717V11.4036L250.329 13.6355L251.903 16.0486L253.231 15.6863L254.558 13.9978V15.5703L255.407 17.5051H252.868V18.4689L254.921 19.0704L253.833 22.2082L251.055 22.4473L248.516 25.2227L247.188 28.1213L244.649 28.9692L242.836 28.2445H240.536L238.483 31.2663L239.39 33.078V36.1578L237.395 38.1506L235.821 36.9404L234.247 38.1506H231.947L230.62 37.0636L229.408 36.3389L229.227 37.4839L230.134 38.3897L229.046 38.8752L228.32 39.5999L230.439 39.9622V41.5927L232.071 43.2231L234.733 42.4985H236.546L236.67 44.7956L237.758 43.7087L239.629 45.5783L241.624 47.5711L242.589 51.0784L243.075 53.8538L241.138 56.9916H239.325L236.786 58.0786L235.937 60.0134L237.99 59.1655H239.317L237.381 61.4627L238.599 62.6729L240.173 62.0714V59.7743L241.624 58.6873L244.221 58.6293L245.73 57.122L246.455 55.9118L248.269 56.035L249.72 55.7959L252.382 55.6727V57.3611H254.558L255.16 56.2162H257.278L258.548 54.948L260.122 54.7089L261.449 55.7959L263.386 54.3466L264.293 56.4626L266.049 58.2162V60.7525L263.633 61.7163L262.059 65.1005H259.52L258.795 66.1874L261.638 68.057L260.731 68.9629L262.784 72.1006L263.633 75.963V80.311L264.358 83.6951L265.57 86.5937L266.172 90.4561L267.383 94.2026L269.683 96.2533V99.7534L270.894 104.587L272.947 106.884L274.275 108.21L272.222 110.022L270.046 108.935L267.021 109.899L265.446 113.522L262.908 117.145L264.235 118.471L263.27 121.855V123.667L265.323 126.805V128.74L263.024 127.653L261.333 125.964L259.883 126.087L261.21 129.587V131.885L263.444 132.914L261.21 135.146H259.759V138.283L258.432 139.609L260.245 142.631L261.696 144.081L263.386 145.769L265.686 148.066L266.172 151.45L266.535 154.11L269.857 155.863L271.852 157.856H275.239L274.333 155.805V154.776L275.479 153.632L276.327 151.82L279.469 154.958L280.071 157.733L283.212 159.907L286.324 160.603L287.564 159.364H289.559L291.916 161.719L290.952 164.016L288.536 164.74L289.261 167.639L291.8 171.864L294.035 172.407L295.79 174.161L299.903 173.675L302.319 175.61L303.167 177.784L301.717 178.748L299.664 180.074L298.452 182.734L299.301 187.567L301.717 191.314L303.835 192.096L304.865 193.125L308.369 193.973V195.422L305.706 195.785V197.959L304.742 200.133L305.953 204.48L308.006 205.328L311.147 208.466L313.446 210.64L313.932 214.502L315.144 219.575L315.746 222.836V225.249L314.418 223.437H310.915L308.68 222.292L306.925 220.539H304.509L302.333 218.365L298.104 216.43L294.114 214.742L289.523 212.329L288.195 210.517L286.019 209.068L283.603 208.582L278.402 207.01L275.015 205.198L271.75 203.024C271.206 202.48 270.176 200.125 270.176 200.125L266.665 196.632L264.25 194.096V191.56L262.559 189.871L262.197 187.096L260.144 184.197L257.91 183.712V182.683L258.94 181.654L259.788 179.842L258.642 177.849L259.73 176.762L260.637 175.857L259.426 172.233L258.824 168.371L257.373 163.9L255.073 160.878L254.108 156.892L253.02 153.146L251.809 150.124L250.358 145.653L248.907 144.443L248.784 142.03L249.633 139.131V137.443V135.392L248.182 133.943L246.608 130.921H245.034L243.525 130.377L242.132 128.986L240.442 126.812L237.903 125.24V122.464L240.202 120.29L239.419 119.508L237.548 121.377L234.885 122.826V125.363L234.16 127.298L235.611 128.624L237.729 130.74L239.724 132.732H242.139L241.9 134.305L240.812 134.182L239.666 135.812L241.175 137.32V141.182L242.386 144.081L242.625 148.668L241.777 151.443L240.812 149.03L238.636 147.943V150.965L236.822 149.153L235.611 147.943L234.646 145.892L231.258 142.754L232.223 145.414L231.258 148.313H227.994V150.247L226.906 154.233L225.578 155.805L225.702 161.117L227.878 162.566L227.515 165.951L229.691 169.335V172.958L230.359 177.726L232.354 179.719V181.893L234.044 183.581L235.618 183.342L237.011 182.074L238.041 181.045H239.854L239.731 183.342L237.794 183.944V187.205L234.167 187.806L235.016 192.031L234.653 193.843L232.354 194.806V197.343L231.505 199.64C231.505 199.64 228.661 200.306 229.205 199.763C229.749 199.22 228.117 198.676 228.117 198.676V197.104L228.603 195.531L230.598 194.864L229.691 193.959L227.515 194.806L225.216 195.169V196.256L221.828 197.828L220.138 199.879L218.201 200.364L216.627 201.937L216.025 203.749L216.627 206.046L217.954 207.372L216.38 209.06L213.841 208.097L214.625 210.691L212.753 212.56L211.034 214.126H209.583L208.132 215.452L209.097 217.024L209.823 217.749L207.77 219.075H204.991L202.271 221.792L200.516 223.546L198.579 226.807L196.526 228.858L194.473 232.967L194.11 236.952L196.047 240.815L194.234 242.626L193.632 246.489L194.72 249.264L196.41 250.953L194.959 253.366V256.627V260.975L194.234 263.996V268.105L195.445 269.431V272.33V275.591L194.357 279.7V283.084L192.544 286.106V289.127L191.579 291.787L192.667 294.236H194.509L195.931 292.816H197.926L199.5 291.243L201.256 289.49L202.467 290.7L203.918 291.425V292.997L205.064 295.113L206.515 296.562L207.784 295.294V293.359L206.094 292.635V290.823L207.422 289.374V290.584L208.872 291.671L209.598 291.432L210.323 292.156V294.33V295.903L212.739 294.939V293.729L214.066 291.917L214.915 291.193L216.242 292.156L216.547 290.164L215.401 289.019L214.313 286.968L212.985 284.555L215.162 283.345L216.489 282.019L219.151 281.417H222.292L224.889 281.721L226.035 282.866C226.035 282.866 228.814 282.381 229.423 282.381C230.032 282.381 231.723 281.656 231.723 281.656L233.231 283.163L232.085 284.308L231.237 285.156L230.511 286.482H232.564H234.74L235.226 288.055L237.04 289.867L239.274 289.562L240.42 290.707L241.632 293.004L241.994 297.591L243.568 302.425L246.049 305.99L249.132 309.07L250.344 310.28L250.946 312.331L253.361 314.744L255.051 317.643L255.654 319.331L257.888 322.773L259.759 324.643V329.715L259.034 334.063L260.361 338.411L260.238 342.882L261.566 346.382L262.53 350.245L263.256 353.745L263.981 358.455V363.042L263.256 365.455V370.165V375.963L262.53 380.311L263.256 384.782L263.016 390.579V393.354L260.601 397.34L259.027 400.724L257.213 404.108H255.639L252.614 405.319L250.075 406.768L248.32 406.043V404.413L247.413 403.507L246.506 405.558V407.79L245.476 406.761L243.902 405.188V406.398L243.416 409.42L243.902 411.471L243.235 413.826L242.226 414.855V416.065V418L239.927 417.877L238.962 416.913L239.811 414.138L241.262 411.239V408.826L239.992 405.985L237.395 403.391L236.068 402.065L234.98 399.289L232.68 396.992L230.504 396.268L230.446 393.912L231.955 392.405L233.282 391.079V388.666L234.972 386.978L236.909 386.014L238.904 386.68L240.659 384.927L241.748 382.753L239.811 379.731L240.776 377.195L239.564 374.535L239.325 371.76L237.635 369.463L238.121 367.528L236.786 365.231L236.184 362.571L233.768 360.035L235.582 358.223V355.564L234.073 354.056L232.325 352.303L231.839 350.73H229.786L226.884 352.303L226.159 354.716L224.222 357.854L222.046 360.629L223.01 363.651L220.472 365.702L217.933 367.151L215.756 367.876L215.154 370.05H212.855L210.555 368.723L208.865 368.122V365.347L206.928 363.658L205.361 362.086L202.757 361.419L201.364 362.81L198.586 362.086L196.287 361.484L192.783 361.97H189.519L188.191 363.296L184.564 364.622L180.937 363.897L179.428 360.941L177.673 359.187C177.673 359.187 175.62 357.977 175.62 357.499C175.62 357.013 173.32 355.201 173.32 355.201L170.419 354.716L169.207 351.817L166.429 349.643L164.492 347.708L161.83 346.984L160.865 344.448L158.45 343.361L156.999 341.911L152.16 341.426H149.621L146.72 342.998L143.093 342.397L140.315 343.361H137.29L133.177 346.382L131.24 348.317L129.492 345.303L128.708 343.73H126.655L126.053 341.136L125.023 339.563L126.837 338.476V337.629H125.872L124.24 335.875L122.912 335.694L123.217 332.614L122.433 331.223L121.585 328.867L119.648 327.904L118.255 329.838L116.804 329.295L116.681 327.244L115.716 326.28L114.294 325.889L112.815 327.367L112.089 329.179L109.608 328.512L108.825 327.005L110.276 325.193L109.427 323.802L107.795 324.346L105.677 323.802L104.219 322.331L104.19 320.867ZM231.454 270.873L230.62 271.084L229.996 269.308V267.743L232.716 268.475L234.073 269.098L234.805 270.772L236.271 272.236L238.882 272.757L239.506 274.431L242.437 276.315H244.004L245.259 278.091L246.303 280.91L247.921 282.526L251.004 285.714L252.991 286.236L255.712 287.28L258.323 289.577L261.878 291.562L264.177 293.548L267.209 295.113L269.821 296.678L271.496 298.033L274.427 299.186L274.006 300.548L272.962 301.591L270.974 302.215H269.407L269.828 304.41L269.407 305.976V307.229L271.184 309.947C271.184 309.947 272.86 311.824 272.548 312.142C272.236 312.461 272.657 315.382 272.657 315.382L274.021 316.744L276.11 318.838L277.887 319.99H280.607L282.174 321.556H283.951L284.895 323.541L287.194 323.643L288.609 322.23L291.068 323.643L292.533 325.527C292.533 325.527 293.055 326.78 292.533 326.78C292.011 326.78 289.182 325.418 289.182 325.418L287.977 326.621H285.308L284.474 328.766L284.996 330.853L286.672 332.527L287.927 335.244L286.251 336.607L284.887 334.933L283.11 333.157L279.969 330.23V328.244L277.88 326.157L275.892 324.172L274.529 322.396L272.853 319.157L270.764 317.172L268.566 315.918L266.477 315.295L264.699 311.534L260.826 306.208L257.685 303.07L255.073 300.461L252.774 297.323L251.308 294.917L247.333 293.142L244.192 291.787L242.306 291.577L239.796 288.127V286.562L237.076 283.845L235.611 281.127L232.68 280.185L233.413 278.098V276.533L235.821 277.265L236.242 275.178L234.827 273.765V272.982L233.442 271.598L231.454 270.873ZM319.844 325.418L320.265 327.614L320.475 329.708L321.317 330.02V328.346L321.941 326.983V325.099L319.844 325.418ZM327.062 326.672V327.614L328.426 328.346V326.78L327.062 326.672ZM322.775 318.208L324.03 318.73L324.451 317.056L323.82 313.715L324.973 312.563L324.763 310.157L322.985 309.635L322.463 312.353L323.145 313.027L322.572 315.063L322.775 318.208ZM325.916 304.418L325.394 304.939L325.814 306.715L326.649 305.461L325.916 304.418ZM327.171 298.041L327.693 295.323L326.961 293.649L327.381 291.874L328.796 290.461L329.159 292.396L328.847 294.381L329.267 296.678L328.535 298.352L327.171 298.041ZM328.535 274.736V277.033V278.917H330L329.579 277.142V275.989V274.634L328.535 274.736ZM267.652 139.834V142.131L267.441 144.218L268.696 145.052L269.53 146.095L269.632 147.979L271.308 148.61L270.887 146.726L270.154 145.262L270.887 142.856V139.928L268.899 139.095L267.652 139.834ZM308.339 150.805L306.874 151.327L307.607 152.892H310.117H312.627L314.194 151.327L312.206 150.697L310.218 151.53L308.339 150.805ZM315.557 227.822L314.933 229.706L313.94 230.699L315.093 231.851L315.775 233.264L315.564 235.148L315.456 237.554L316.551 238.648L317.755 237.967V235.459L318.851 234.365L317.958 232.22L316.493 230.757L316.595 228.872L315.557 227.822ZM320.055 244.119V245.684L321.099 246.206L321.832 245.264L320.055 244.119ZM317.233 145.37L315.869 146.312L316.602 147.044L317.596 146.052L318.589 145.059L317.233 145.37ZM178.797 19.6719L177.84 19.3095L176.998 20.1864L175.156 21.1429L173.654 22.643L173.792 25.2227L173.154 25.8604L173.473 27.9402L174.67 29.7011L175.91 32.578L177.832 32.9765L179.131 31.6794L180.11 29.904L179.029 28.7445L180.632 26.4256L180.35 23.9111V20.911C180.357 20.911 178.797 19.6719 178.797 19.6719ZM202.38 281.634L201.335 282.787V284.25V285.816L203.113 285.084L204.056 286.026L205.1 284.982L205.521 282.888L204.368 281.214L202.38 281.634ZM82.6451 95.7099L82.4275 94.833L84.0741 95.6012L84.8939 94.7823L86.0472 93.6301L87.7447 91.9344L88.7893 93.1953H89.3406L90.7115 91.8257L91.9737 90.3474L94.3893 89.2532L96.1448 90.5721L95.1583 93.3113V94.8475L94.0049 95.9997L92.1914 96.8186L90.2183 97.5867H88.2452L86.7654 99.065L84.4078 98.2462L83.2037 96.4925L82.6451 95.7099ZM78.5828 98.0143H75.0719L73.9185 99.1665L72.105 100.427L70.7848 99.1085L67.6002 100.094L67.8179 102.065L68.6448 102.884L69.849 104.087L70.6759 104.906L69.4718 105.891L67.8251 104.464L66.9474 105.341L65.7432 104.138L63.0012 104.688L61.797 104.029L61.2457 105.456L62.1235 106.333L60.4768 107.21V109.29L61.797 110.609L61.4633 112.145H62.6675L64.2054 113.681L63.7629 115.435L65.736 116.42L68.3692 116.529L69.4645 117.623H71.4376L73.7444 116.964V115.21L72.3154 113.891L73.0843 113.123L74.2377 114.276L76.2688 110.602L78.1911 108.681L79.0181 109.5L80.7736 107.746L81.3248 106.101L79.3518 105.442L78.0315 106.761L76.3848 105.558L74.4118 104.355L72.4387 102.927L73.0988 101.5L74.1434 100.456L74.9631 103.254L76.2253 104.514L78.3652 104.898L79.6855 104.348H80.7808L81.8762 103.254L81.3248 100.949H79.5694L80.0046 98.9781V97.5505L78.5828 98.0143ZM80.4471 117.305L79.4605 118.181L80.2295 120.37L81.4917 121.631L82.5363 119.602V117.957L81.7674 117.189L80.4471 117.305ZM84.9519 119.276L83.6897 120.537L84.4006 122.232L85.6047 123.435L84.8358 125.189L85.4959 125.848L86.4825 123.768L89.0069 123.218L91.2048 122.341L94.1645 120.587L92.6266 117.739H90.5447L87.5851 116.754L86.2141 118.015L84.9519 119.276ZM60.2592 114.565L59.2726 113.58L57.5171 113.471L58.6705 114.623L59.3814 117.196H60.8105V115.768L60.2592 114.565ZM5.40426 157.197L3.37314 159.226V160.595H5.07056L5.62187 161.914L7.05093 161.255L8.69757 159.61V156.979H6.61567L5.40426 157.197ZM76.9362 80.0356L76.2761 81.2385L76.9869 81.9487L77.8139 81.2385L76.9362 80.0356ZM70.792 127.935L68.7101 127.5L68.05 128.051L69.2542 128.602L70.792 129.805L71.4521 128.928L70.792 127.935Z" fill="#4242EA"/>
</svg>
