<svg width="260" height="292" viewBox="0 0 260 292" fill="none" xmlns="http://www.w3.org/2000/svg">
<path d="M51.3148 267.566L57.304 267.387L61.3497 268.62H64.3391L67.6876 270.381L71.2051 269.675L73.2332 267.651H75.0817L79.6555 270.022H84.4089L88.2856 269.316L91.4545 271.076L95.3312 270.022H99.736L101.849 267.039L105.725 267.387L109.243 269.495H113.648L115.232 272.658H118.401V270.549L119.394 268.504L121.179 266.723V264.351L122.637 264.088L124.485 262.243L125.214 260.399V257.3L127.728 254.791L129.64 252.883L133.01 252.293L134.267 251.038V248.667L131.626 247.212L130.77 245.167L129.122 243.523L126.746 242.342V240.361L129.513 239.043L128.33 235.48L128.594 232.719L130.707 230.61L132.291 227.975L134.932 226.131L137.7 228.892L135.988 230.6V232.708L138.365 233.499L141.407 234.426L143.393 235.354L145.633 236.808H148.537L150.386 235.101L153.428 236.682L156.069 237.472H160.294L163.791 235.828L166.632 232.993L168.216 230.747L173.202 227.838L173.741 224.159L178.515 220.691L184.367 219.068L184.04 213.555L186.1 208.475L188.16 204.364L193.8 203.499L198.025 205.334H204.099L205.62 207.61L211.261 208.253L215.655 206.577L219.722 210.636L223.081 209.771L227.739 212.153L229.039 207.821L235.979 204.901L242.486 209.666L246.5 205.66L252.785 202.951L255.383 198.619L250.397 196.458L245.95 193.538L245.929 188.141L250.102 184.01L251.601 182.513L251.866 178.56L254.422 176.009V171.614L251.781 167.924L253.545 164.583L256.101 161.336L258.478 158.965L257.242 156.15L257.95 152.461L257.242 148.245L255.214 150.268L253.186 148.245L249.14 147.37L248.264 143.68L250.028 141.92L249.679 137.883L248.095 134.721L245.982 132.613H243.869L241.936 129.102L243.521 127.869V124.707L242.285 122.599V120.839L244.662 118.646L243.162 115.568L239.285 113.281V110.867L237.7 109.286L239.2 106.651L238.63 103.446L236.919 101.739L237.003 98.9242L239.464 99.4513L240.119 97.3009L242.01 95.4141L243.151 92.0727L241.746 89.4375H243.067L244.038 86.8866L242.369 82.8495V80.13L239.644 79.6029L239.729 76.1772L237.616 78.201L236.56 77.1469L234.447 78.9916L233.306 77.8531L232.863 75.5658L229.514 75.0388L227.317 72.8463L226.831 70.9595L225.289 69.4205L225.109 66.174L228.32 63.7601L230.919 61.1671L232.239 59.0589H235.757V52.998L236.105 48.7816L232.324 46.6735L231.31 44.6075L230.475 45.4402L229.377 43.1107L230.306 42.1831L231.806 40.6863L235.155 40.1593L234.806 38.3146L236.475 36.6492L235.862 34.3618L233.401 33.0442L231.025 32.4329L229.704 31.1153L228.996 29.1863H227.328L227.148 27.0781L225.12 29.102L225.384 31.1258L226.092 33.4131L223.979 35.3421L221.159 32.5277L219.395 30.7674L215.698 33.2234L216.933 37.0919L219.574 39.7271V41.129L222.743 42.7101L224.771 44.734L225.912 47.4535V49.5616L222.923 46.7473L220.197 44.0277L217.472 45.6932L215.36 43.9329L211.662 41.1185V37.9562V33.5607L214.831 30.3985L215.539 25.8343V20.7431L216.416 17.0538H213.596L212.36 19.689L213.596 22.6721L212.191 26.3613L210.078 29.7028H206.381L201.976 34.0983L199.156 36.9127L201.712 39.4636L201.268 43.0685L202.325 46.41L203.561 50.2784L200.043 53.7885L198.459 58.3527L195.997 62.2212L196.526 67.8394L194.413 69.9475L194.941 73.289H198.11L199.515 75.2179L202.156 73.9847L204.184 71.9608L206.645 74.4169L210.955 75.9136L212.36 77.3156L214.652 79.4237L216.416 82.9338L215.18 85.7482L216.236 89.0896L215.18 91.377L212.36 92.2519L212.708 95.4141V97.5223L214.208 99.0191L218.169 100.157V102.613L214.124 101.739L210.606 98.2285V95.5933L210.427 91.377L213.247 88.5626L211.134 83.113L209.465 81.4476L208.324 78.0218L204.279 78.5488H200.582L198.205 80.9205L195.828 83.2922L196.177 86.6336L197.054 90.3229L195.997 94.5392L193.8 96.7317L191.075 99.4513L189.491 101.032V104.722L185.973 106.651L181.568 107.884L180.512 108.938H178.22C178.22 108.938 175.663 110.076 176.371 110.783C177.079 111.489 175.759 113.86 175.759 113.86H172.59L170.477 110.877L167.488 111.057L163.97 108.601L161.329 107.367L158.689 103.33V99.9888L161.329 100.864L163.178 102.708L166.083 104.553L168.723 102.793L173.128 103.668L175.59 102.266L178.23 98.3972L182.804 93.833L186.681 92.7789L187.388 86.2753L191.265 83.2922L191.793 80.4778L188.709 77.3999L187.388 72.7408L188.793 69.3994L190.726 62.7271L191.962 55.1694L195.48 49.899L196.357 45.1556L197.413 39.179L194.424 36.5438L195.828 31.9796L200.846 26.9727L201.638 20.5639L203.402 18.8036L201.818 12.827H198.121L196.008 10.7188H191.783L189.67 7.73578L186.322 9.49609L184.389 13.7124L182.625 17.9287L180.332 23.0199L177.343 26.003L176.023 27.3206L172.241 29.1652L168.723 30.3985L166.79 32.8545L165.555 36.3646L167.847 37.0708V39.706L166.262 41.8142L165.386 46.0305V48.8449L161.868 50.6052L160.199 52.2706L162.048 56.0442L165.396 58.3316L164.688 63.2541L166.621 67.8183L169.442 68.6932L165.396 72.3825V76.0717L161.879 78.1799L159.417 74.3114V70.8119L156.428 66.7748L153.608 62.3793L149.467 58.2473L148.083 55.4329L146.647 57.541L143.879 60.3027L145.59 61.926L145.939 63.2436L147.259 63.6863V69.663H145.59L144.798 71.5919L143.393 72.2982L143.129 74.2271L142.865 75.5447L146.383 77.305V79.5924L143.129 80.91L145.854 83.6295L141.629 85.7377L138.46 88.8999H135.112L133.876 92.7684H127.887L122.256 94.0016L116.626 97.1639V101.032L112.01 100.853L108.588 101.38L106.739 103.488L103.444 105.196L100.148 108.485L97.1058 108.885V106.124L94.8664 105.333L92.1622 108.031L88.5286 111.657L86.9441 114.693L87.599 118.509L83.3738 121.144L82.9724 124.306L79.402 126.541L77.0253 131.021L77.6802 134.057L76.2225 136.818V139.19L71.8705 143.533L71.279 146.632L69.6312 148.276L68.7016 150.785V153.547L65.1313 155.391V158.954L63.1455 163.824L59.5751 166.986L56.9344 170.939L54.5577 173.311H51.5155L48.6106 175.819V180.299L50.85 183.862L49.6669 187.815L47.8818 189.596V190.85L49.7937 192.832L47.6177 195.004L45.4417 196.785L42.3995 196.131L39.2306 198.24L39.3574 199.947L40.7411 201.328L38.8292 203.236L37.5088 204.554L35.3962 201.391H33.0195L31.171 204.427L30.3787 207.716L27.4739 209.17H24.0409L22.9846 208.116L21.8015 210.488V213.524L20.4178 214.905L18.115 217.455L20.3755 220.576L24.4634 223.527H26.988L29.0689 226.563L31.3083 224.328L32.0266 227.269L31.2238 229.946L29.0795 233.867V236.007L25.1078 236.945L22.7416 239.307L19.0763 237.968V235.565L17.1115 233.604L14.2595 232.181L11.5765 231.38L7.73148 234.226L8.44976 237.609L10.1504 239.307L10.6892 244.029L12.918 247.592L17.2911 248.034L19.1607 246.79L23.4494 248.129L24.6958 251.966V255.35H22.6465L21.4001 253.653L18.453 253.916V255.16L15.7277 256.098L12.1151 259.703V261.664L9.79129 264.784V267.819H7.9216L5.51322 272.183L5.06959 274.766L2.30206 276.01L1.22461 277.875H7.47797L9.52721 277.074L12.3792 278.318H14.1644L15.4109 280.542L14.513 282.766L11.2067 284.368L11.4708 286.593H13.3405L13.8686 289.354L15.2735 285.665L18.791 286.54L21.7804 285.665L23.0163 282.503L21.7804 278.107L24.7697 276.874L29.3436 276.695L32.3329 279.678H34.7941L36.9912 277.485L34.6145 275.114L32.6815 273.185L30.7485 271.951L33.2096 269.495L31.9738 266.86L33.2096 262.992H36.9067L40.9524 265.1L43.7727 267.556L46.9417 266.681L51.3148 267.566ZM224.644 23.1359L222.891 24.8856L220.969 26.4773L222.722 27.7527L224.159 26.4773H226.398L228.479 24.5589L226.556 22.651L224.644 23.1359ZM218.898 5.43788L217.462 6.71332L218.423 8.14687L220.345 6.87143L222.743 7.50388L222.099 6.07033L218.898 5.43788ZM211.546 11.8151L210.743 13.8916L212.022 15.0089L213.458 13.2591L211.546 11.8151ZM194.455 1.45346L192.702 2.7289L193.346 4.16245L192.068 5.91221L192.385 7.02955L195.258 7.83064L197.973 6.5552L199.568 6.71332V5.12165L197.011 4.48921L198.29 3.05566L196.853 0.979126L195.1 1.61158L194.455 1.45346Z" fill="#4242EA" stroke="#4242EA" stroke-opacity="0.22"/>
</svg>
