<svg width="175" height="145" viewBox="0 0 175 145" fill="none" xmlns="http://www.w3.org/2000/svg">
<path d="M21.6908 48.9888L22.5675 45.4787L23.6238 41.6102L20.9831 38.975L22.7471 37.7417L22.5675 34.7587L23.6238 30.5424L25.5569 25.9782L26.9618 22.1097L30.4793 21.0557L31.7152 18.4205L35.0636 15.606L38.053 15.3425L40.4297 18.2413L41.486 15.2582H43.9472L45.0035 13.4136L45.9753 11.3054L46.3239 7.61614L47.9084 6.03502L48.1724 3.84254L50.8977 1.55518L51.954 3.84254L53.5491 5.43418H56.6229L58.1651 6.96261L60.8376 6.79396L62.8868 8.04831H66.6473L68.6437 10.0405L71.0943 10.3251L72.5732 8.84942H75.5308L77.4111 6.97316H79.7455L81.6785 7.9429C81.6785 7.9429 82.587 9.36591 83.1046 9.36591C83.6221 9.36591 83.7278 11.9168 83.7278 11.9168H86.2312L87.9425 13.9617H90.2241L90.6783 12.486L92.1571 13.9617C92.1571 13.9617 94.5444 15.1001 95.0092 15.1001C95.4739 15.1001 97.5126 16.2385 97.5126 16.2385L99.1076 17.145L101.157 17.9461L104.009 17.3769L106.512 18.1675L105.604 21.1189V24.6395L107.769 24.2495L111.012 23.9438L112.861 25.7885L117.266 28.7926L118.966 27.0955L122.283 30.4053V37.3412L126.455 41.5048L130.311 39.8078L134.631 38.7326L138.487 40.4297L142.036 38.7326L144.349 43.6657L148.902 44.5089L152.377 47.9769L153.613 51.371L160.099 54.7652L162.497 58.2331L164.113 56.6098L167.968 57.5374L170.134 54.1432L174.222 57.7587L172.141 60.1515L171.518 68.4682H166.574L164.493 70.7028L162.719 68.932L158.472 70.3971L155.726 73.1378L154.532 71.9466H151.215L149.282 70.0177L148.046 67.0874H144.962L142.955 69.0901L137.547 70.4815L133.374 69.5539H129.825L128.431 73.0956H124.882L122.41 70.629L120.403 72.6318L119.473 76.3316L117.234 78.5663L112.681 79.1039L108.826 80.3371L105.276 80.9485L103.111 83.1094L100.175 83.7207L98.1781 85.7235V88.9279L99.8787 90.0874L101.041 91.2469V92.9439L101.664 94.5461L99.9632 96.2432L97.8189 96.7808L96.7521 97.8454L95.1042 99.4898H93.0972V100.871L91.5339 102.431L89.5269 103.811L87.8263 103.01L85.8193 105.287L84.1714 106.932L84.7947 109.693L84.1714 114.321L85.5974 116.903L85.2383 122.427H82.2912L81.3088 124.208L77.823 126.348L74.7386 127.992L72.9957 129.731L71.295 129.826L68.8127 130.944L70.2282 134.559L68.9395 135.845H65.3797L62.6861 134.38L62.0735 132.419L59.4961 131.934L57.0454 134.137H52.0174L50.7287 138.364L46.6197 142.465H42.0775L40.4825 144.056H38.0319L36.8066 142.349H33.7538V140.125L32.4018 138.775L29.4124 137.373V133.684L27.1096 131.102L26.5921 130.522L25.5357 126.485L22.895 124.904L20.0746 121.741L21.1309 118.052L20.0746 112.603L16.7261 110.146L12.8495 107.163L11.6136 103.126L8.97283 101.018L8.0961 98.5622L10.3883 95.927L12.1523 92.0585V88.3692L10.2193 84.8591L8.28623 81.8761L10.0503 80.4741L11.1066 77.8389H13.2192L14.8037 76.437L16.0395 71.6937L16.3881 68.8793L14.9938 65.327L13.0607 63.3981L10.42 63.0502L8.48693 60.942L6.90247 58.6547L4.52578 60.6785L2.67724 58.8339L1.09277 56.1987L2.67724 53.3843L6.02573 50.0429L8.31792 47.4077L9.19466 44.2454L11.8354 44.0662L13.7685 46.1744L14.8248 48.8096L18.3423 50.0429L21.6908 48.9888Z" fill="#4242EA" stroke="#4242EA" stroke-opacity="0.22"/>
</svg>
