<svg width="67" height="104" viewBox="0 0 67 104" fill="none" xmlns="http://www.w3.org/2000/svg">
<path d="M23.2298 1.47803L21.9094 2.9959V5.10406L20.4517 7.21222L21.772 8.32954L22.8284 10.4377L21.3706 12.7461L23.0819 14.4537L20.177 16.6884L18.3285 17.2154L18.9834 19.7241L18.0538 21.632L15.4131 24.9207H11.9801L10.459 22.6861L9.46605 20.5463H7.71258L5.9591 22.2961L3.44509 22.6966L1.30078 24.8048L2.18808 28.3254L4.82885 32.3731L6.05417 36.5894L9.95195 39.2246L12.5927 40.4473L14.1772 44.495L17.1454 46.9299L16.4483 50.4506L18.92 52.7273L19.6172 58.3561L22.0889 60.8227L25.955 61.3498L28.1627 63.5212L28.7542 65.3658L31.7542 65.7242L32.6415 68.8864L35.2822 71.6903L34.2259 74.6838L32.6415 77.319L35.0815 80.4813L36.497 84.1705V86.4474L39.3068 88.3869L39.6659 92.6032L41.6095 98.4006L42.1377 101.732L46.0038 102.617L50.06 101.205L52.8698 102.459L57.095 100.519L56.7359 94.8905L57.4647 90.3474L56.4084 84.3497V79.4377L60.2745 73.1133L62.028 71.5321V70.3094L64.0772 68.2645L64.8694 65.1971L65.725 61.8663L64.6687 58.5037L62.8202 56.6591V53.7604L64.6371 51.979L64.8694 48.88L64.0138 46.6453L62.1019 45.9918L60.9188 44.1788L58.5422 42.429V38.413L57.0211 36.2099L56.5563 33.5431L54.6444 31.6353V29.5271L53.2923 27.7457L51.4754 25.9327L50.1551 23.4661L51.4121 21.0944L50.2607 17.9322L48.5812 16.2878L48.053 14.0848L46.4052 12.1453L46.046 9.60497L44.0602 8.78279L40.9229 9.34145L39.5075 7.92899L38.7152 5.62055L37.2575 6.14759H35.4724L34.6801 3.83916L32.6943 2.84832L31.4373 1.4991H29.4937L27.9409 3.0486L25.5008 3.37536L24.5713 1.92072L23.2298 1.47803Z" fill="#4242EA" stroke="#4242EA" stroke-opacity="0.22"/>
</svg>
