<svg width="203" height="195" viewBox="0 0 203 195" fill="none" xmlns="http://www.w3.org/2000/svg">
<path d="M134.141 164.865H136.993H140.383L142.433 164.064L145.285 165.307H147.07L148.316 167.531L147.418 169.756L144.112 171.358L144.376 173.582H146.246L146.774 176.344L147.915 178.894L150.376 181.35L152.045 183.016L152.753 185.999L155.214 188.455L152.753 191.796L150.461 194.084H146.584L142.623 194.347L140.595 192.323L139.19 189.467H137.383L135.493 191.354H132.408L128.975 187.928L128.32 185.946L125.722 183.353V178.873L123.525 176.681H119.479L116.13 177.914L114.895 175.279L111.546 172.644L108.557 171.063L104.511 172.992L100.814 173.519L97.8246 172.644L95.712 168.607L92.7227 165.971L90.6101 169.482H88.3179V166.667L90.4305 164.559L89.0256 161.576L87.2616 157.012L86.5538 152.268L83.9131 149.106L79.6878 147.525L78.452 144.542L76.1598 142.255L71.9345 142.961H69.4733V139.619L68.2374 136.109L63.9277 135.319L61.7306 137.511L57.6849 138.913L54.1674 136.984H50.4703L48.7063 139.619H45.0092H40.9636L40.0868 141.548L37.7946 143.836L37.446 147.177L33.1363 146.387L30.58 143.836V140.326L31.7209 136.9L29.8723 135.055H26.883L26.7562 131.535L24.6119 129.395L24.126 126.76H21.612L19.9536 125.105L19.2142 121.553L16.7001 120.636L15.4115 121.921L13.077 119.718L16.2671 116.662L15.7812 111.76L11.6087 107.723L8.049 107.85V105.762L5.71455 104.54L1.78508 104.055L0.686523 99.8912L0.92947 96.8344L2.21817 95.5484L0.802718 91.9329L3.28503 90.8156L4.98569 90.7207L6.72861 88.9815L9.81303 87.3371L13.2988 85.1974L14.2812 83.416H17.2283L17.5875 77.8926L16.1614 75.3101L16.7847 70.6827L16.1614 67.921L19.8268 63.9998L21.5275 64.8009L23.5345 63.4201L25.0978 61.86V60.4792H27.1048L29.8301 57.7597L31.9744 57.2221L33.675 55.525L33.0518 53.9228V52.2258L30.1892 49.9068V46.7024L32.1856 44.6996L35.1222 44.0883L37.2876 41.9274L40.8368 41.316L44.6923 40.0828L49.245 39.5452L51.4844 37.3106L52.414 33.6107L54.4209 31.608L56.8927 34.0745H60.4419L61.8362 30.5328H65.3854L69.5578 31.4604L74.9661 30.069L76.9731 28.0663H80.0575L81.2934 30.9966L83.2265 32.9256H86.5433L87.7369 34.1167L90.4833 31.3761L94.7297 29.9109L96.5043 31.6817L98.5852 29.4471H103.529L104.152 21.1304L106.233 18.7376L107.395 17.5782V14.3422L109.867 13.1089L106.011 9.10338L107.86 7.40629L111.198 8.88203L117.461 2.63132L119.352 1.00806L120.673 1.45075L124.021 5.40355L123.408 7.33253L124.993 8.12309L125.32 10.7899L123.155 12.9508V16.4925L119.754 17.2619V19.5704L117.44 21.8788V24.4929L119.289 26.3376V28.9517L120.06 31.7239L118.983 34.1905L120.218 35.4237L122.225 32.9572L123.461 29.4155L126.546 28.646L129.789 30.185L131.796 32.1877L134.574 29.5736L136.042 31.0388L136.887 32.9677L139.507 32.6621L141.133 31.0388H143.985L146.679 29.9741V27.866L144.894 26.0846L146.542 22.8591L150.112 24.8408L151.369 23.5864L152.626 24.8408L154.337 23.1332L156.577 23.9237L157.506 25.3784L157.105 27.613L158.953 29.8477L161.193 29.0571L165.016 30.7647L167.53 33.2734L170.298 31.8188L173.467 32.9993L175.252 31.218L177.037 31.8083L178.294 33.0626L180.079 32.4723L181.136 30.2377H182.984L187.083 32.9993L191.044 35.1075L195.533 36.8151L201.607 37.7427V40.5044L198.037 42.349V45.9118L196.051 50.7817L192.48 53.9439L189.84 57.8967L187.463 60.2684H184.421L181.516 62.7771V67.2569L183.755 70.8197L182.572 74.7725L180.787 76.5539V77.8083L182.699 79.7899L180.523 81.9613L178.347 83.7427L175.305 83.0892L172.136 85.1974L172.263 86.905L173.646 88.2858L171.735 90.1937L170.414 91.5113L168.302 88.3491H165.925L164.076 91.3848L163.284 94.6735L160.379 96.1282H156.946L155.89 95.0741L154.707 97.4458V100.482L153.323 101.862L151.02 104.413L153.281 107.533L157.369 110.485H159.893L161.974 113.52L164.214 111.286L164.932 114.227L164.129 116.904L161.985 120.825V122.965L158.013 123.903L155.647 126.264L151.982 124.926V122.522L150.017 120.562L147.165 119.139L144.482 118.338L140.637 121.184L141.355 124.567L143.056 126.264L143.595 130.987L145.823 134.549L150.196 134.992L152.066 133.748L156.355 135.087L157.601 138.924V142.307H155.552L154.305 140.61L151.358 140.874V142.118L148.633 143.056L145.021 146.661V148.621L142.697 151.741V154.777H140.827L138.419 159.141L137.975 161.724L135.207 162.967L134.141 164.865Z" fill="#4242EA" stroke="#4242EA" stroke-opacity="0.22"/>
</svg>
