<svg width="458" height="301" viewBox="0 0 458 301" fill="none" xmlns="http://www.w3.org/2000/svg">
<path d="M193.314 120.549L193.758 117.303L199.124 111.948H208.103L210.923 107.025V97.5387L216.553 94.7243L223.947 91.035L229.049 92.964H232.038L234.5 95.42L237.521 93.3224L236.781 97.0011L239.771 96.6533L243.996 96.8325V99.6468L244.873 102.809L242.94 101.576L240.912 99.552L239.063 101.397L239.94 104.738V108.079L242.929 109.661L245.221 111.948V115.637L247.778 116.871V121.002L250.682 123.901L252.087 128.824V133.915L251.211 138.31L252.267 140.766L252.351 146.121L255.436 149.199L255.256 153.068L254.548 159.392L251.464 164.747L246.795 169.406H241.862L236.401 170.46L231.648 168.7L226.451 165.801L223.197 162.554V157.811L219.849 154.47L218.264 150.78L217.028 147.27L214.736 143.402L213.5 136.898L211.039 135.844L211.831 131.891L213.859 129.867L211.398 127.411L210.257 130.489L208.588 132.155L209.296 136.023L209.381 140.503L207.448 142.432L210.004 144.983L209.296 148.851L206.835 154.301L202.525 155.618L199.092 159.044L197.772 165.284L194.518 168.531L197.159 176.784L194.603 181.264L198.216 184.869L202.092 188.738L206.497 185.575L207.374 181.18L205.082 178.893L205.43 175.024V172.041L208.419 168.879H211.409L212.465 176.784L213.437 181.97L216.521 185.048L218.454 189.086L223.472 190.582L224.972 189.086L223.736 186.102L226.725 183.646L226.905 177.501L232.366 178.376L237.468 176.447L241.693 178.734L246.447 177.238H249.7L251.728 179.261L254.717 183.826L252.256 186.282V190.15L254.453 187.431L257.538 184.353L261.763 183.478L265.281 178.387V173.991L266.685 171.008L271.259 168.721V165.906L275.664 163.271V158.876L274.956 154.659H277.946L278.917 156.852L282.879 160.805L285.868 165.369V171.514L284.812 174.676L283.227 176.257L280.586 173.622L276.889 172.747L271.259 174.676V179.24L272.664 183.457V186.967L276.71 188.021L280.586 189.781L284.991 187.673V184.511L289.565 183.457L293.97 185.565L293.262 182.75L300.128 183.984L303.825 183.278L310.512 184.152H314.388L316.321 187.662H318.085V184.5L323.716 182.74H326.705L327.941 187.304H324.592L323.536 190.466L320.895 191.341L324.941 195.03H327.761L333.043 192.743L338.06 193.713L343.521 199.163L345.37 197.318H349.067L353.736 195.821L355.584 197.666L355.056 200.122L352.236 202.051V205.055L355.584 207.869L355.848 204.623L357.348 203.126L360.866 204.001V201.186L364.214 200.659L364.922 196.443L364.394 191.352L367.563 189.771L370.288 188.98L373.542 192.227L374.946 190.825L378.559 195.305L382.7 199.437L386.048 202.778L386.862 204.443L385.425 206.552L383.714 208.259L382.658 209.313L384.369 210.937L384.717 212.254L386.038 212.697V215.416V218.663H384.369L383.577 220.592L382.172 221.298L381.643 224.545L385.161 226.305V228.592L381.908 229.91L384.633 232.63L380.408 234.738L377.239 237.9H373.89L372.654 241.768H366.665L361.035 243.002L355.405 246.164V250.032L350.831 249.853L347.44 250.38L345.592 252.488L342.296 254.196L339 257.485L335.958 257.885V255.124L333.719 254.333L331.015 257.031L327.381 260.658L325.796 263.693L326.451 267.509L322.226 270.144L321.825 273.306L318.254 275.541L315.878 280.021L316.533 283.057L315.075 285.818V288.19L310.723 292.533L310.131 295.632L308.484 297.276L307.554 299.785L301.48 298.857L296.991 297.15L293.03 295.042L288.931 292.28H287.083L286.026 294.515L284.241 295.105L282.984 293.85L281.199 293.26L279.414 295.042L276.245 293.861L273.477 295.316L270.963 292.807L267.14 291.099L264.9 291.89L263.052 289.655L263.453 287.421L262.524 285.966L260.284 285.175L258.573 286.883L257.316 285.629L256.059 286.883L252.489 284.901L250.841 288.127L252.626 289.908V292.016L249.932 293.081H247.08L245.454 294.704L242.834 295.01L241.989 293.081L240.521 291.616L237.743 294.23L235.736 292.227L232.493 290.688L229.408 291.458L228.172 294.999L226.165 297.466L224.93 296.233L226.007 293.766L225.236 290.994V288.38L223.387 286.535V283.921L225.701 281.613V279.304L229.102 278.535V274.993L231.267 272.832L230.94 270.165L229.355 269.375L229.968 267.446L228.257 265.738L227.602 265.085L226.63 263.504L225.31 263.061L223.419 264.684L219.553 268.542L217.155 270.935L213.817 269.459L211.969 271.156L215.824 275.162L213.352 276.395V279.631L212.19 280.79L208.103 277.175L205.937 280.569L202.082 279.641L200.465 281.265L198.068 277.797L194.518 275.794L191.582 274.403L190.346 271.009L186.871 267.541L182.318 266.697L180.005 261.764L176.456 263.461L172.6 261.764L168.28 262.839L164.424 264.537L160.252 260.373V256.673V253.437L156.935 250.127L155.234 251.824L150.829 248.82L148.981 246.976L145.738 247.281L143.573 247.671V244.151L144.481 241.199L141.978 240.398L139.126 240.967L135.481 239.26L132.524 238.121L130.136 236.983L128.658 235.507L128.203 236.983H125.922L124.211 234.938H121.707L121.084 232.387L119.658 230.964L117.725 229.994H115.39L113.51 231.871H110.552L109.074 233.346L106.623 233.062L104.627 231.069H100.866L98.8168 229.815L96.1444 229.984L94.6022 228.455H91.5283L89.9333 226.864L88.877 224.576L86.1517 226.864L85.8876 229.056L84.3032 230.637L83.9546 234.327L82.9828 236.435L81.9265 238.279H79.4653L78.409 241.262L76.0323 238.364L73.0429 238.627V232.651L70.0536 229.836L66.7051 228.961L67.7614 226.326L68.6381 223.512L66.1769 221.056L64.5924 217.546L65.1206 215.09L68.4691 211.748L70.4021 208.238L69.5254 205.076L72.3457 204.37L76.571 201.734V198.045L78.335 195.937L82.7398 195.758L84.6729 193.47L84.8524 190.835L88.5495 189.433L91.5389 185.396L95.5845 185.575L99.102 183.467L103.855 184.521L104.563 181.886L106.148 180.305L109.137 181.707L111.598 184.342L115.475 185.575L116.88 188.738L118.285 192.248L120.397 190.14L120.049 185.048L116.88 182.234V176.257L119.7 175.551L120.577 174.676L116.7 173.095L114.408 170.46H130.527L153.84 170.281L161.234 167.646V163.081L162.47 151.486H167.403L171.628 148.145V143.581L174.797 142.348V136.371L177.617 136.192L183.776 131.269L186.765 132.671L193.314 120.549ZM204.025 164.009L203.391 164.968L204.511 166.402L205.948 164.968L204.025 164.009ZM352.922 166.233H351.169L349.247 163.366L348.127 163.998L344.768 160.815L342.211 158.106L343.173 155.239L345.729 154.438L346.69 152.846L344.937 151.413L345.095 147.586L343.976 147.27L342.856 144.403L340.458 144.245L338.536 141.536L339.18 138.026L341.736 134.516L344.778 134.832L345.74 135.949L346.859 136.424L347.335 134.347L351.011 133.23L353.884 130.205L351.961 128.128L354.517 126.536L357.391 127.654L358.193 125.261V122.868H361.869L363.623 124.618L365.461 122.784L365.862 121.108L369.855 120.307L368.492 118.947L365.059 117.756V116.48L369.052 115.363L373.204 114.246L375.285 112.169H377.999V110.251L381.834 110.093L379.753 108.016L383.112 107.858L384.39 109.134L384.231 105.95L385.826 104.359L384.073 102.282L385.193 100.532L387.115 102.451H389.513V100.058L393.03 101.333L394.784 99.4149L396.537 97.3384H398.777L402.611 95.5886L405.326 96.5478H409.319L411.96 93.9126L415.076 94.1551L416.512 96.2316H419.871L421.466 97.8233L424.34 97.0222H428.332L430.973 94.3975L434.089 92.7215L438.241 91.1299H442.075L444.314 94.64V98.4663L440.955 101.491L437.924 104.359L433.931 104.675L429.135 106.909L424.825 105.318L422.744 107.394L417.79 107.236H411.4L409.002 109.787H404.048L400.372 111.864L401.492 114.414L398.935 115.374L395.904 115.057H393.189L392.872 116.807L389.999 116.006V118.873L387.126 120.95L384.728 122.7V119.991L382.805 121.74L383.281 124.924H381.358L379.996 123.564V125.082V127.475L378.601 126.083L376.806 127.875L375.285 129.393H373.204L371.609 131.47L369.528 134.98H366.169L363.454 137.214V140.239L360.739 141.357L359.778 144.54L357.539 146.775V150.759L356.419 153.626L357.855 157.769L356.577 161.911L358.331 164.62L359.134 167.487L358.172 168.447L355.458 169.722V167.646L352.922 166.233ZM454.698 9.52303L453.377 9.92358L454.434 11.3782V12.6958H456.282V10.1871L454.698 9.52303ZM454.307 20.7174L453.377 22.172L449.944 22.8255L447.705 24.0061L449.416 24.7966L448.624 26.6413L450.082 27.0418H452.987L455.3 24.7334L457.011 23.0258L456.42 20.4538L454.307 20.7174ZM443.342 18.3457L442.614 19.073L443.997 20.4538L446.511 19.5262V17.4181H445.054L443.342 18.3457ZM441.431 22.4988L439.519 20.3274L438.061 21.782L437.005 23.8901V26.5253L439.244 26.9259L439.772 28.507L442.54 27.8535L444.325 26.0721L445.645 24.7545L446.374 22.5831H444.388L441.431 22.4988ZM433.572 31.6587L432.716 32.5125V34.1569H434.501L435.156 32.0487L433.572 31.6587ZM429.875 24.9337L428.945 24.0061H426.04V25.9878L424.456 27.5689L425.385 28.4965L428.554 27.8429L429.737 29.0235L432.505 28.37L433.297 26.5253L435.283 27.1789L434.227 24.8072L432.441 23.0258L429.875 24.9337ZM444.536 2.93504L443.744 4.51616L445.128 5.897L446.448 4.5794L444.536 2.93504ZM441.631 6.62432H439.519V8.99599L441.758 11.2306V13.0753L443.744 12.1477L442.561 9.63898L441.631 6.62432ZM428.427 13.4758H426.579L426.177 13.8764L427.699 15.3943L428.427 13.4758ZM430.012 16.501L428.755 17.7554L430.012 19.1362L431.47 19.0098L430.012 16.501ZM431.195 10.7036V12.4112H433.043L432.642 10.4295L431.195 10.7036ZM433.772 14.9937V16.5116H435.293L434.11 15.331L433.772 14.9937ZM435.293 18.4827L435.948 19.1362L437.131 17.9557L435.293 18.4827ZM437.142 11.4942V13.3388L438.726 13.4653V11.4836H437.142V11.4942ZM434.765 7.80489L435.695 9.51249L436.55 8.65869L435.695 7.80489H434.765ZM417.727 18.8727L416.734 19.8636L418.445 21.5712L420.357 21.6344V18.4722L419.037 16.7646L417.727 18.8727ZM422.09 16.7646L422.744 18.6092H424.065V17.0281L422.09 16.7646ZM414.695 6.22377L413.375 7.54137V8.99599L411.854 10.5139L409.15 8.60598L406.91 9.78655V11.3677L404.143 9.38601L402.03 10.1766L402.685 13.3388L404.671 12.6853V14.7934L406.784 15.3205L408.696 13.4126L411.4 12.2953L413.639 12.9488H416.935L419.311 10.5771L417.072 8.34246L418.593 6.82459L416.016 5.30672L414.695 6.22377ZM407.164 2.93504H404.259L402.548 1.22742L401.365 3.5991L402.886 5.11698L403.477 6.89838L406.91 5.71781L408.093 6.89838L410.333 5.97078L411.262 6.89838V4.9167L409.741 3.39883H408.358L407.164 2.93504ZM409.741 16.8383H408.622L409.023 18.4827L411.4 18.6092L409.741 16.8383ZM410.206 20.3274L409.023 21.5079L409.953 22.4355L412.192 22.9625L410.734 21.5079L410.206 20.3274ZM419.84 3.32505V5.03265H421.16L422.48 3.71505L419.84 3.32505ZM0.928711 171.872L3.66455 172.484L6.00956 171.809L6.90742 170.08L9.0306 170.418L11.0165 172.399L11.101 175.108L12.7171 175.614L13.0551 177.733L15.5692 178.176L16.129 176.162L14.7558 174.792L15.9283 173.622L16.6888 174.371L19.0972 176.373V179.388L18.7592 182.013L20.1535 184.3L21.5479 185.249L22.0549 188.653L20.8296 191.215L14.9565 194.177L6.06237 183.625L0.928711 171.872ZM364.109 175.646L361.553 176.921L359.63 177.564L360.105 181.707L360.422 183.942L362.176 184.416L362.82 187.768L366.179 188.084L367.299 185.375L365.704 182.666L365.862 179.641L364.109 175.646ZM307.554 161.774L304.036 162.734L301.956 165.443L300.361 167.519L301.48 170.544L304.036 171.503L306.434 172.463L308.674 170.871L311.388 171.345L312.825 168.004L310.586 165.137L310.427 162.744L307.554 161.774Z" fill="#4242EA" stroke="#4242EA" stroke-opacity="0.22"/>
</svg>
