<svg width="180" height="114" viewBox="0 0 180 114" fill="none" xmlns="http://www.w3.org/2000/svg">
<path d="M143.295 3.08188L140.823 5.28493H135.806L134.517 9.50126L130.387 13.5911H125.866L124.282 15.2038H121.81L120.584 13.4962H117.542V11.2616L116.19 9.91233L114.775 11.6621L113.549 14.6557L107.011 15.5411L107.212 18.345L104.74 17.9866L102.268 20.4531L102.997 24.3111L100.356 25.8922L96.4583 29.7817L92.2331 25.207L89.4233 22.2135L86.4234 23.4678L83.0855 22.0553L79.2194 23.8051L76.5786 26.6406L78.6912 27.3363L80.6031 29.2758L83.6031 29.9715L85.7157 31.5526L85.0185 34.7148L82.0186 33.4921L77.9624 32.9651L75.5223 31.911L73.9378 33.4921L71.8252 31.5526L69.8816 30.1401L67.769 29.8134L67.0718 32.0902L68.4556 34.7254L67.9274 39.1104L65.2867 38.2566H63.174L59.1495 38.4252L56.1496 39.6479L54.9243 42.2831L52.2835 41.4293L49.442 37.9087L47.3294 38.2671L45.4175 40.175L46.2731 43.6956L45.2168 46.8578L46.6323 49.6617L48.7449 51.6012L48.3857 56.8716L50.1709 59.5068L51.5547 62.5004L52.2835 68.4665L51.7553 76.5407L53.1391 80.7571L55.4524 80.4303L57.2059 82.8652L58.6214 84.6466L60.5333 84.9734L62.6776 82.8652L65.1916 82.4647L66.9451 80.7149H68.6985L69.6915 82.8547L71.2126 85.0893H74.6456L77.2863 81.8006L78.2159 79.8927L77.561 77.384L79.4095 76.857L82.3144 74.6223L80.6031 72.9147L82.0609 70.6063L81.0045 68.4981L79.6842 67.3808L81.1419 65.2726V63.1645L82.4623 61.6466L83.846 62.1104L84.7756 63.565L87.2156 63.2382L88.7684 61.6887H90.712L91.969 63.038L93.9549 64.0288L94.7471 66.3372H96.5323L97.99 65.8102L98.7822 68.1186L100.198 69.5311L103.335 68.9724L105.321 69.7946L105.68 72.335L107.328 74.2745L107.856 76.4775L109.535 78.1219L110.687 81.2841L109.43 83.6558L110.75 86.1223L112.567 87.9353L113.919 89.7168V91.8249L115.831 93.7328L116.296 96.3996L117.817 98.6027V102.619L120.194 104.368L121.377 106.181L123.289 106.835L124.144 109.07L123.912 112.169L126.056 112.727L129.753 111.673H133.123L136.091 108.153L138.563 107.099V104.664L141.732 105.191L142.957 106.413L145.598 107.141C145.598 107.141 145.249 108.458 146.918 108.458C148.587 108.458 150.71 108.195 150.71 108.195H152.295H154.238H156.679L159.678 107.836L161.432 106.087L159.256 103.884L157.735 100.816L157.407 97.654L160.048 97.9807L161.802 99.9203L163.65 98.0756V93.2374L162.689 87.2713L163.545 82.6966L161.432 80.5884L158.094 77.4262L155.812 76.0453L158.094 73.7369L159.15 69.1938L156.605 66.6218L155.453 63.1961L158.263 61.2566L160.576 58.9798L163.745 59.1484L166.713 57.9257V54.7634L169.027 52.4866L171.731 49.7566H175.164L177.477 48.0806L178.703 45.2767L178.576 41.7561L176.432 39.6163L175.935 36.9811H173.421L171.773 35.3367L171.044 31.7739L168.499 30.8464L167.21 32.1324L164.897 29.9609L168.066 26.8936L167.601 21.9816L163.407 17.9339L159.837 18.0604V15.9838L157.524 14.7611L153.594 14.2657L152.474 10.1126L152.738 7.04523H149.168L146.464 5.55897L145.872 3.61947L143.295 3.08188Z" fill="#4242EA" stroke="#4242EA" stroke-opacity="0.22"/>
<path d="M39.6187 9.77536L39.4075 9.72267L39.2279 9.78591L38.9744 10.0705L38.5624 9.97564L38.2878 9.88078L38.235 9.94402H37.9709L37.6117 10.0705L37.411 10.2919L37.2843 10.5659L37.1258 10.7346L36.3653 10.4394L35.3407 9.61726L33.0802 10.9981L30.9253 9.99674L30.9042 7.97289L28.1683 4.90551L25.1367 1.35327C25.1367 1.35327 23.7741 1.17407 23.6368 1.15299L23.4466 1.12137L23.584 1.17406L23.6368 1.38489V1.65896L23.5628 1.88031L23.51 2.20707L23.3516 2.37573L23.1192 2.48114L22.8551 2.49166L22.7812 2.71304L22.6755 2.82897L22.6016 3.0398L22.496 3.15574L22.4748 3.32439L22.1157 3.44036L22.0101 3.55629L22.1051 3.7144L22.0523 3.77764L21.8199 3.88306L21.6404 3.9463L21.3868 3.95685L21.4925 4.11495L21.746 4.1044L21.9467 4.15713L22.1791 4.31523L22.5488 4.73686L22.7812 4.89496L22.9079 5.15848L22.9607 5.36931L22.7072 5.37986L22.4326 5.285L22.2213 5.23228L21.9361 5.12686L21.8305 4.96876L21.2178 5.64338L20.9326 5.53797L20.7847 5.43256L20.8164 5.27445L20.8692 5.22173L20.7636 5.0531L20.7425 4.94769L20.6369 4.78958H20.5101L20.3622 4.68417L19.4644 4.72634L19.1263 4.68417L18.9785 4.57875L18.9468 4.46282L18.82 4.1993L18.7461 4.14658L18.3341 4.05171L17.9961 4.00954L17.5841 3.92523L17.2778 3.98847L17.0137 3.99902L16.8341 4.05171L16.5489 3.9463L16.3377 3.90413L15.6722 3.81981L15.4081 3.83036L15.0701 3.78819L14.6898 3.53522L14.5103 3.32439L14.3835 3.06087V2.7868L14.3518 2.68142L14.1511 2.6287L14.0455 2.74466L14.0138 2.91332L14.13 3.07142L13.9716 3.24008H13.7075L13.4328 3.14522L13.2216 3.09249L12.8941 3.06087L12.6089 2.95546L12.3977 2.91332L12.0596 2.87115L11.8484 2.82897L11.5632 2.72356L11.3519 2.68142L11.0139 2.63925L10.7287 2.54438L10.528 2.49166L10.19 2.44952L9.92589 2.46004L9.64069 2.35466L9.38717 2.36518L9.04916 2.323L8.74283 2.38628L8.47875 2.3968L8.29918 2.44952H8.17242L7.96116 2.68142L7.94003 2.85004L7.76046 2.90277L7.45413 2.70249L7.3485 2.54438L7.03161 2.33355H6.91541L6.73584 2.38628L6.47176 2.3968L6.27106 2.34411L6.01755 2.35466L5.73235 2.25976L5.49996 2.10166L5.21476 2.00679L4.70773 2.02786L4.36971 1.98572L4.15845 1.94355L3.12327 1.97517L2.78525 1.933L2.47892 1.99624L2.0247 2.22814L1.86626 2.67087L1.7395 2.94494L1.58105 3.38764L1.81344 3.54574L1.9402 3.80926L2.03527 3.9674L2.16202 4.23092L3.01763 4.8001L3.78874 4.76848L3.95775 4.70524L4.29577 4.74741L5.15138 5.31662L5.33095 5.5169L5.95417 5.92797L6.50345 6.56043L6.63021 6.82395L6.9471 8.12045L7.02104 8.17317L7.1478 8.43669L7.17949 8.54211V8.81615L7.1478 8.97428L7.25343 9.14291L7.35906 9.56457L7.33794 9.73322V9.99674L7.38019 10.2181L7.6337 10.4711L7.81327 10.6819L7.94003 10.9454L7.86609 11.1668V11.4408L8.20411 11.483L8.47875 11.5779L8.81677 11.62L9.02803 11.6622L9.59844 11.8625L9.83082 12.0206L10.021 12.2314L10.2745 13.3065L10.3907 13.5701L10.454 13.7914L10.6336 13.9917V14.5398L10.4752 14.7085L10.3273 15.1406L10.1688 15.3093L10.0949 15.5307L9.98927 15.6466L9.90477 15.8679V16.142L9.59844 16.4793L9.45055 16.922L8.83789 17.5967L8.49988 17.818L8.24636 17.8286L7.90834 17.7864L7.62314 17.681L7.31681 17.7442L7.03161 17.9129L6.85203 17.9761L6.65134 18.1975L6.39782 18.208L6.28163 18.6507L6.12318 18.8194L5.99642 19.0934L5.9753 19.2621L5.86967 19.3781L5.79573 19.5994L5.51052 19.7681L5.33095 19.8208L5.02462 19.884L4.85561 19.9472L4.65491 20.1686L4.67604 20.274L4.86617 20.4848L5.01406 20.5902L5.11969 20.7589L4.78167 20.7167L4.15845 20.3057L3.94719 20.2635L3.86268 20.2108H3.73592L3.48241 19.9578L2.97538 19.9789L2.89088 19.9262L2.60567 19.8313L2.37329 19.6732L2.35216 19.8419L2.27822 20.0632L2.38385 20.4848L2.51061 20.7483L2.60567 20.9065L2.7113 21.3281L2.83806 21.6022L2.81694 21.7708L2.89088 22.0976L3.45072 22.2873L3.68311 22.4454L3.72536 22.6668L3.70423 22.8354L3.75705 23.0462L3.70423 23.373L3.52466 23.7103L3.56691 23.9317L3.75705 24.1425L3.88381 24.406L3.97887 24.5641L4.10563 24.8276L4.2852 25.0385L5.20419 25.6498L5.47883 25.7447H5.60559L5.79573 25.9555L5.84854 26.1663L5.94361 26.3244L6.12318 26.5352L6.58796 26.8409L6.91541 26.8726L7.12667 26.9253L7.45413 26.9674L7.73933 27.0623L7.95059 27.1045L8.28861 27.1466L8.521 27.3047L8.7217 27.3574L9.05972 27.3996L9.56675 27.3785L9.92589 27.2626L10.1583 27.1466L10.5069 27.0518L10.7921 27.1466L10.9399 27.252L11.3519 27.3469L11.6582 27.2837L11.8906 27.1782L12.0174 27.1677L12.123 27.0518L12.2603 27.0412L12.3554 27.1993L12.8202 27.505L13.1265 27.4418L14.0455 26.978L14.2039 26.8093L14.3835 26.7566L14.6898 26.6934L14.8694 26.6407L15.1018 26.5247L15.2814 26.472L15.5349 26.4615L15.894 26.335L16.2004 26.2717L16.3799 26.219L16.6335 26.2085L16.5806 26.2717L17.0982 26.2507L17.4257 26.2928L17.6369 26.3455L17.8588 26.4931L18.989 26.8937L19.2003 26.9358L19.8658 27.0201H20.1298L20.4573 27.0623L20.6686 27.115L21.0066 27.1572L21.1861 27.3574L21.334 27.4628L21.5136 27.6737L21.6615 27.7791L21.9467 27.8739L22.1474 27.9266L22.3058 28.0321L22.4854 28.2323L22.8974 28.3272L23.2882 28.3166L23.8269 28.675L24.0065 28.8859V29.1599L23.8586 29.5921L24.1649 29.7924L24.3445 30.0032L24.5769 29.8872L24.8304 29.8767L25.5276 29.5289L25.8128 29.3497L25.9923 29.297L26.2987 29.2337L26.4782 29.181L26.7318 29.1704L27.017 29.2653L27.3233 29.4656L27.6296 29.4023L27.862 29.297L28.1261 29.2864L28.3585 29.181L28.6226 29.1704L28.6648 29.3918L28.7704 29.5499L29.1613 29.5394L29.2035 29.7608L29.3303 30.0243L29.3831 30.2351L29.5838 30.0137L29.6683 29.7924L29.8267 29.6237L30.1331 29.5605L30.3338 29.6132L30.5662 29.7713L30.6718 29.9294L30.8831 29.9821L30.9887 29.8661L30.7774 29.5499L30.7457 29.4445L30.957 29.2126L31.1366 29.1599L31.295 28.9913L31.4746 28.9385L31.6858 28.9807L32.4464 28.9491L32.7316 29.044L33.0696 29.0861L33.302 29.2442L33.5872 29.3391L34.2738 29.8029L34.5273 30.0664L34.6329 30.2351L34.8125 30.4354L34.9393 30.6989L35.0343 30.857L35.2139 31.0678L35.3196 31.5L35.4991 31.7108L35.5519 31.9216V32.4592L35.478 32.6806L35.3724 32.7965L35.2879 33.0179L35.4674 33.2287L35.6998 33.3868L35.9111 33.4289L36.1435 33.587L36.3442 33.6398L36.5343 33.8506L37.2209 34.3144L37.5272 34.2511L37.7068 34.1984L37.9392 34.0825L38.4462 34.0614L38.499 34.2722L38.5941 34.4303L38.6997 34.3144L38.8159 34.4725L38.8687 34.6833L39.0483 34.8941L39.1011 35.1049L39.249 35.2103L39.4286 35.4212L39.5342 35.5793L39.7666 35.7374L39.9462 35.9482L40.2208 36.0431L40.2736 35.9903L40.5588 35.8217L40.8124 35.8112L41.0236 35.8639L41.7842 36.3698L42.3546 36.5596L42.5553 36.6123L43.1257 36.8125L43.3897 36.802L43.5904 36.5806V36.0431L43.5271 35.8217L43.6116 35.6003L44.1292 35.0417L44.4038 34.873L44.7629 34.483L44.9425 34.4303L45.101 34.2617L45.4601 34.1352L45.7664 34.0825L45.8932 34.0719L46.1995 34.2722L46.3368 34.2617L46.5164 34.2089L46.5692 34.1563L46.5375 34.0403L46.5587 33.8717L46.6643 33.7557L46.8544 33.6925L47.1608 33.6292L47.6255 33.9349L47.6784 34.1457L47.784 34.3038L48.2488 34.6095L48.534 34.7149L48.7664 34.599L48.798 34.4408L48.9565 34.2722L49.0304 34.0508L49.0621 33.8927L49.1361 33.6714V33.3973L49.0199 33.2392L48.798 33.0916L48.4812 33.1549L48.2065 33.06L48.1431 32.8387V32.3011L47.6889 31.9954L47.1185 31.8056L46.9389 31.5948L46.8861 31.384L46.7911 31.2259L46.6009 31.0151L46.4002 30.9624H46.1361L45.9883 30.857L46.2735 30.6883L46.3474 30.467L46.2418 30.3089L45.8615 30.3194L45.6502 30.2772L44.3404 29.4023L44.0552 29.3075L43.4109 29.3286L43.2102 29.2759H43.0729L42.7982 29.4445L42.5658 29.5605L42.3863 29.6132L42.1327 29.6237L41.9532 29.687L41.3828 29.4867L41.2877 29.3286L41.0976 29.1178L40.9708 28.8437L40.8652 28.6856L40.8124 28.4748L40.7173 28.3166L40.6539 28.0953L40.5271 27.8318L40.6011 27.6104L41.1609 27.2626L41.2666 27.1466L40.9602 26.9463L40.7595 26.8937L40.0307 27.1361L39.8194 27.368H39.7032L39.3441 27.4945H39.2173L39.0694 27.3891L38.8899 27.4418L38.6786 27.6737L38.4251 27.6842L38.1188 27.7475L37.7807 27.7053L37.2103 27.505L36.9991 27.4628L36.7667 27.3047L36.4921 27.2099L36.2808 27.1572L35.9956 27.0623L35.7949 27.0096L35.5625 26.8515L35.2879 26.7566L34.897 26.5036L34.7914 26.0715L34.6118 25.8712L34.5062 25.439L34.4006 25.2809L34.3477 25.0701L34.221 24.796L34.1682 24.5852L34.052 24.4271V24.153L34.0837 23.9949L34.0731 23.7209L34.1048 23.5628V23.2887L34.1787 23.0673L34.1259 22.8565V22.5824L34.147 22.4138V22.1397L34.1682 21.9711V21.697L34.1893 21.5284V20.9908L34.2104 20.8221V20.5481L34.2421 20.39L34.2316 20.1159L34.2632 19.9578V19.6837L34.2104 19.4729L34.2844 19.2516L34.2316 19.0407L34.3055 18.8194V18.5453L34.2527 18.3345L34.4006 17.8918L34.4322 17.7231V17.4596L34.5062 17.2383L34.5273 17.0696L34.6118 16.8483V16.5742L34.6858 16.3528L34.7069 16.1842L35.0977 15.0985L35.1188 14.9298L35.2773 14.4871L35.2667 14.2131L35.3407 14.0022V13.7282L35.4991 13.5595L35.5731 13.3382L35.7315 13.1695L35.8794 12.7373L36.0378 12.5687L36.1118 12.3473L36.2702 12.1787L36.3442 11.9679L36.4709 11.6832L36.5449 11.4619L36.9991 10.9559L37.0836 10.7346L37.242 10.5659L37.3688 10.2919L37.5695 10.0705L37.9286 9.94402H38.1927L38.2455 9.88078L38.5202 9.97564L38.9321 10.0705L39.1856 9.78591L39.3652 9.72267L39.6187 9.77536Z" fill="#4242EA" stroke="#4242EA" stroke-opacity="0.22"/>
</svg>
