<?xml version="1.0" encoding="utf-8"?>
<!-- Generator: Adobe Illustrator 19.2.1, SVG Export Plug-In . SVG Version: 6.00 Build 0)  -->
<svg version="1.1" id="Слой_1" xmlns="http://www.w3.org/2000/svg" xmlns:xlink="http://www.w3.org/1999/xlink" x="0px" y="0px"
	 viewBox="0 0 26 26" style="enable-background:new 0 0 26 26;" xml:space="preserve">
<style type="text/css">
	.st0{fill:#626AAD;}
</style>
<path class="st0" d="M5.1,0.3c-2.5,0-4.5,2.1-4.5,4.7v16.2c0,2.6,2,4.7,4.5,4.7h8.5v-10h-2.6v-3.6h2.6V9.1c0-2.4,1.5-4.6,5-4.6
	c1.4,0,2.5,0.1,2.5,0.1L21,8c0,0-1.1,0-2.2,0c-1.3,0-1.5,0.6-1.5,1.6v2.6h3.8L21,15.8h-3.6v10h3.5c2.5,0,4.5-2.1,4.5-4.7V4.9
	c0-2.6-2-4.7-4.5-4.7L5.1,0.3L5.1,0.3z"/>
</svg>
