<?xml version="1.0" encoding="utf-8"?>
<!-- Generator: Adobe Illustrator 19.2.1, SVG Export Plug-In . SVG Version: 6.00 Build 0)  -->
<svg version="1.1" id="Слой_1" xmlns="http://www.w3.org/2000/svg" xmlns:xlink="http://www.w3.org/1999/xlink" x="0px" y="0px"
	 viewBox="0 0 26 26" style="enable-background:new 0 0 26 26;" xml:space="preserve">
<style type="text/css">
	.st0{fill:#626AAD;}
</style>
<path class="st0" d="M25.7,7.8c0-1.1-0.2-2.1-0.6-3.1c-0.3-0.8-0.8-1.6-1.5-2.3c-0.6-0.6-1.4-1.1-2.3-1.5c-1-0.4-2-0.6-3.1-0.6
	c-1.4-0.1-1.8-0.1-5.3-0.1c-3.5,0-3.9,0-5.3,0.1c-1.1,0-2.1,0.2-3.1,0.6C3.8,1.2,3,1.7,2.4,2.4S1.3,3.8,0.9,4.6
	c-0.4,1-0.6,2-0.6,3.1C0.3,9.1,0.3,9.5,0.3,13c0,3.5,0,3.9,0.1,5.3c0,1.1,0.2,2.1,0.6,3.1c0.3,0.8,0.8,1.6,1.5,2.3
	c0.6,0.6,1.4,1.1,2.3,1.5c1,0.4,2,0.6,3.1,0.6c1.4,0.1,1.8,0.1,5.3,0.1c3.5,0,3.9,0,5.3-0.1c1.1,0,2.1-0.2,3.1-0.6
	c0.8-0.3,1.6-0.8,2.3-1.5c0.6-0.6,1.1-1.4,1.5-2.3c0.4-1,0.6-2,0.6-3.1c0.1-1.4,0.1-1.8,0.1-5.3C25.7,9.6,25.7,9.1,25.7,7.8z
	 M13,19.5c-3.6,0-6.5-2.9-6.5-6.5c0-3.6,2.9-6.5,6.5-6.5c1.7,0,3.4,0.7,4.6,1.9c1.2,1.2,1.9,2.9,1.9,4.6c0,1.7-0.7,3.4-1.9,4.6
	C16.4,18.8,14.7,19.5,13,19.5z M19.8,7.7c-0.2,0-0.4,0-0.6-0.1c-0.2-0.1-0.4-0.2-0.5-0.3c-0.1-0.1-0.3-0.3-0.3-0.5
	c-0.1-0.2-0.1-0.4-0.1-0.6c0-0.2,0-0.4,0.1-0.6c0.1-0.2,0.2-0.4,0.3-0.5C18.9,5,19,4.8,19.2,4.8c0.2-0.1,0.4-0.1,0.6-0.1
	c0.2,0,0.4,0,0.6,0.1c0.2,0.1,0.4,0.2,0.5,0.3c0.1,0.1,0.3,0.3,0.3,0.5c0.1,0.2,0.1,0.4,0.1,0.6C21.3,7,20.6,7.7,19.8,7.7z"/>
<path class="st0" d="M13,17.3c2.3,0,4.3-1.9,4.3-4.3c0-2.3-1.9-4.3-4.3-4.3c-2.3,0-4.3,1.9-4.3,4.3C8.7,15.3,10.7,17.3,13,17.3z"/>
</svg>
