<?xml version="1.0" encoding="utf-8"?>
<!-- Generator: Adobe Illustrator 19.2.1, SVG Export Plug-In . SVG Version: 6.00 Build 0)  -->
<svg version="1.1" id="Слой_1" xmlns="http://www.w3.org/2000/svg" xmlns:xlink="http://www.w3.org/1999/xlink" x="0px" y="0px"
	 viewBox="0 0 26 26" style="enable-background:new 0 0 26 26;" xml:space="preserve">
<style type="text/css">
	.st0{fill:#0D0F0F;}
</style>
<path class="st0" d="M10.7,8.5c0-1.3,1-2.3,2.3-2.3s2.3,1,2.3,2.3c0,1.3-1,2.3-2.3,2.3S10.7,9.8,10.7,8.5L10.7,8.5z M25.8,3v20
	c0,1.5-1.2,2.7-2.7,2.7H3c-1.5,0-2.7-1.2-2.7-2.7V3c0-1.5,1.2-2.7,2.7-2.7h20C24.5,0.3,25.8,1.5,25.8,3z M8.4,8.5
	c0,2.5,2.1,4.6,4.6,4.6s4.6-2.1,4.6-4.6c0-2.6-2.1-4.6-4.6-4.6S8.4,6,8.4,8.5z M18.3,13.7c-0.3-0.5-1-1-1.9-0.2c0,0-1.3,1-3.4,1
	s-3.4-1-3.4-1c-1-0.8-1.7-0.3-1.9,0.2c-0.4,0.9,0.1,1.3,1.2,2.1c1,0.6,2.3,0.9,3.2,1l-0.7,0.7c-1,1-2,2-2.7,2.7
	c-1,1,0.6,2.6,1.6,1.6l2.7-2.7c1,1,2,2,2.7,2.7c1,1,2.6-0.6,1.6-1.6l-2.7-2.7l-0.7-0.7c0.9-0.1,2.2-0.3,3.2-1
	C18.3,15,18.8,14.6,18.3,13.7z"/>
</svg>
