<?xml version="1.0" encoding="utf-8"?>
<!-- Generator: Adobe Illustrator 19.2.1, SVG Export Plug-In . SVG Version: 6.00 Build 0)  -->
<svg version="1.1" id="Слой_1" xmlns="http://www.w3.org/2000/svg" xmlns:xlink="http://www.w3.org/1999/xlink" x="0px" y="0px"
	 viewBox="0 0 26 26" style="enable-background:new 0 0 26 26;" xml:space="preserve">
<style type="text/css">
	.st0{fill:#626AAD;}
</style>
<path class="st0" d="M16.9,0.6H9.1c-7.1,0-8.8,1.6-8.8,8.6v7.6c0,6.9,1.7,8.6,8.8,8.6h7.8c7.1,0,8.8-1.6,8.8-8.6V9.2
	C25.8,2.3,24,0.6,16.9,0.6z M20.8,18.3H19c-0.7,0-0.9-0.5-2.2-1.8c-1.1-1-1.6-1.2-1.9-1.2c-0.4,0-0.5,0.1-0.5,0.6v1.6
	c0,0.4-0.1,0.7-1.3,0.7c-2,0-4.1-1.2-5.7-3.3c-2.3-3.2-2.9-5.5-2.9-6c0-0.3,0.1-0.5,0.6-0.5H7c0.5,0,0.6,0.2,0.8,0.7
	c0.9,2.6,2.4,4.8,3.1,4.8c0.2,0,0.3-0.1,0.3-0.7v-2.7c-0.1-1.2-0.7-1.3-0.7-1.8c0-0.2,0.2-0.4,0.5-0.4h2.9c0.4,0,0.5,0.2,0.5,0.7
	v3.6c0,0.4,0.2,0.5,0.3,0.5c0.2,0,0.4-0.1,0.9-0.6c1.3-1.5,2.3-3.7,2.3-3.7c0.1-0.3,0.3-0.5,0.8-0.5h1.9c0.6,0,0.7,0.3,0.6,0.7
	c-0.2,1-2.5,4.2-2.5,4.2c-0.2,0.3-0.3,0.5,0,0.8c0.2,0.3,0.8,0.8,1.3,1.3c0.8,0.9,1.4,1.6,1.6,2.1C21.6,18,21.4,18.3,20.8,18.3
	L20.8,18.3z"/>
</svg>
