<?xml version="1.0" encoding="utf-8"?>
<!-- Generator: Adobe Illustrator 19.2.1, SVG Export Plug-In . SVG Version: 6.00 Build 0)  -->
<svg version="1.1" id="Слой_1" xmlns="http://www.w3.org/2000/svg" xmlns:xlink="http://www.w3.org/1999/xlink" x="0px" y="0px"
	 viewBox="0 0 26 26" style="enable-background:new 0 0 26 26;" xml:space="preserve">
<style type="text/css">
	.st0{fill:#626AAD;}
</style>
<path class="st0" d="M10.9,9.9l5.4,3.1l-5.4,3.1V9.9z M25.8,3v20c0,1.5-1.2,2.7-2.7,2.7H3c-1.5,0-2.7-1.2-2.7-2.7V3
	c0-1.5,1.2-2.7,2.7-2.7h20C24.5,0.3,25.8,1.5,25.8,3z M23.4,13c0,0,0-3.4-0.4-5c-0.2-0.9-0.9-1.6-1.8-1.8C19.5,5.7,13,5.7,13,5.7
	s-6.5,0-8.1,0.4C4,6.4,3.3,7.1,3.1,8c-0.4,1.6-0.4,5-0.4,5s0,3.4,0.4,5c0.2,0.9,0.9,1.6,1.8,1.8c1.6,0.4,8.1,0.4,8.1,0.4
	s6.5,0,8.1-0.4c0.9-0.2,1.6-0.9,1.8-1.8C23.4,16.4,23.4,13,23.4,13z"/>
</svg>
