<svg version="1.1" id="Слой_1" xmlns="http://www.w3.org/2000/svg" x="0" y="0" viewBox="0 0 26 26" xml:space="preserve"><style>.st0{fill:#626aad}</style><path class="st0" d="M25.7 7.8c0-1.1-.2-2.1-.6-3.1-.3-.8-.8-1.6-1.5-2.3-.6-.6-1.4-1.1-2.3-1.5-1-.4-2-.6-3.1-.6-1.4-.1-1.8-.1-5.3-.1S9 .2 7.6.3C6.5.3 5.5.5 4.5.9c-.7.3-1.5.8-2.1 1.5S1.3 3.8.9 4.6c-.4 1-.6 2-.6 3.1V13c0 3.5 0 3.9.1 5.3 0 1.1.2 2.1.6 3.1.3.8.8 1.6 1.5 2.3.6.6 1.4 1.1 2.3 1.5 1 .4 2 .6 3.1.6 1.4.1 1.8.1 5.3.1s3.9 0 5.3-.1c1.1 0 2.1-.2 3.1-.6.8-.3 1.6-.8 2.3-1.5.6-.6 1.1-1.4 1.5-2.3.4-1 .6-2 .6-3.1.1-1.4.1-1.8.1-5.3-.4-3.4-.4-3.9-.4-5.2zM13 19.5c-3.6 0-6.5-2.9-6.5-6.5S9.4 6.5 13 6.5c1.7 0 3.4.7 4.6 1.9 1.2 1.2 1.9 2.9 1.9 4.6 0 1.7-.7 3.4-1.9 4.6-1.2 1.2-2.9 1.9-4.6 1.9zm6.8-11.8c-.2 0-.4 0-.6-.1-.2-.1-.4-.2-.5-.3-.1-.1-.3-.3-.3-.5-.1-.2-.1-.4-.1-.6 0-.2 0-.4.1-.6.1-.2.2-.4.3-.5.2-.1.3-.3.5-.3.2-.1.4-.1.6-.1.2 0 .4 0 .6.1.2.1.4.2.5.3.1.1.3.3.3.5.1.2.1.4.1.6 0 .8-.7 1.5-1.5 1.5z"/><path class="st0" d="M13 17.3c2.3 0 4.3-1.9 4.3-4.3 0-2.3-1.9-4.3-4.3-4.3-2.3 0-4.3 1.9-4.3 4.3 0 2.3 2 4.3 4.3 4.3z"/></svg>