<svg xmlns="http://www.w3.org/2000/svg" viewBox="0 0 26 26"><path d="M10.7 8.5c0-1.3 1-2.3 2.3-2.3s2.3 1 2.3 2.3c0 1.3-1 2.3-2.3 2.3s-2.3-1-2.3-2.3zM25.8 3v20c0 1.5-1.2 2.7-2.7 2.7H3C1.5 25.7.3 24.5.3 23V3C.3 1.5 1.5.3 3 .3h20c1.5 0 2.8 1.2 2.8 2.7zM8.4 8.5c0 2.5 2.1 4.6 4.6 4.6s4.6-2.1 4.6-4.6c0-2.6-2.1-4.6-4.6-4.6S8.4 6 8.4 8.5zm9.9 5.2c-.3-.5-1-1-1.9-.2 0 0-1.3 1-3.4 1s-3.4-1-3.4-1c-1-.8-1.7-.3-1.9.2-.4.9.1 1.3 1.2 2.1 1 .6 2.3.9 3.2 1l-.7.7-2.7 2.7c-1 1 .6 2.6 1.6 1.6l2.7-2.7 2.7 2.7c1 1 2.6-.6 1.6-1.6l-2.7-2.7-.7-.7c.9-.1 2.2-.3 3.2-1 1.2-.8 1.7-1.2 1.2-2.1z" fill="#0d0f0f"/></svg>