<svg xmlns="http://www.w3.org/2000/svg" viewBox="0 0 26 26"><path d="M16.9.6H9.1C2 .6.3 2.2.3 9.2v7.6c0 6.9 1.7 8.6 8.8 8.6h7.8c7.1 0 8.8-1.6 8.8-8.6V9.2C25.8 2.3 24 .6 16.9.6zm3.9 17.7H19c-.7 0-.9-.5-2.2-1.8-1.1-1-1.6-1.2-1.9-1.2-.4 0-.5.1-.5.6v1.6c0 .4-.1.7-1.3.7-2 0-4.1-1.2-5.7-3.3-2.3-3.2-2.9-5.5-2.9-6 0-.3.1-.5.6-.5H7c.5 0 .6.2.8.7.9 2.6 2.4 4.8 3.1 4.8.2 0 .3-.1.3-.7v-2.7c-.1-1.2-.7-1.3-.7-1.8 0-.2.2-.4.5-.4h2.9c.4 0 .5.2.5.7v3.6c0 .4.2.5.3.5.2 0 .4-.1.9-.6 1.3-1.5 2.3-3.7 2.3-3.7.1-.3.3-.5.8-.5h1.9c.6 0 .7.3.6.7-.2 1-2.5 4.2-2.5 4.2-.2.3-.3.5 0 .8.2.3.8.8 1.3 1.3.8.9 1.4 1.6 1.6 2.1 0 .6-.2.9-.8.9z" fill="#626aad"/></svg>