<svg width="48" height="48" fill="none" xmlns="http://www.w3.org/2000/svg"><path d="M17.077 26.77a1.385 1.385 0 11-2.77 0 1.385 1.385 0 012.77 0zm16.615 0a1.385 1.385 0 11-2.77 0 1.385 1.385 0 012.77 0z" fill="#4242EA"/><path d="M20.538 35.077s1.385-1.385 3.462-1.385 3.462 1.385 3.462 1.385M42 24c0 9.941-8.059 18-18 18S6 33.941 6 24 14.059 6 24 6s18 8.059 18 18zm-8.308 2.77a1.385 1.385 0 11-2.77 0 1.385 1.385 0 012.77 0zm-16.615 0a1.385 1.385 0 11-2.77 0 1.385 1.385 0 012.77 0z" stroke="#4242EA" stroke-width="3" stroke-linecap="round" stroke-linejoin="round"/></svg>