<svg width="48" height="48" xmlns="http://www.w3.org/2000/svg"><path d="M17.1 26.8c0 .4-.1.7-.4 1-.3.3-.6.4-1 .4s-.7-.1-1-.4c-.3-.3-.4-.6-.4-1s.1-.7.4-1c.3-.3.6-.4 1-.4s.7.1 1 .4c.2.2.4.6.4 1zm16.6 0c0 .4-.1.7-.4 1-.3.3-.6.4-1 .4s-.7-.1-1-.4c-.3-.3-.4-.6-.4-1s.1-.7.4-1c.3-.3.6-.4 1-.4s.7.1 1 .4c.2.2.4.6.4 1z" fill="#4242ea"/><path d="M27.5 33.7s-1.4 1.4-3.5 1.4-3.5-1.4-3.5-1.4M42 24c0 9.9-8.1 18-18 18S6 33.9 6 24 14.1 6 24 6s18 8.1 18 18zm-8.3 2.8c0 .4-.1.7-.4 1-.3.3-.6.4-1 .4s-.7-.1-1-.4c-.3-.3-.4-.6-.4-1s.1-.7.4-1c.3-.3.6-.4 1-.4s.7.1 1 .4c.2.2.4.6.4 1zm-16.6 0c0 .4-.1.7-.4 1-.3.3-.6.4-1 .4s-.7-.1-1-.4c-.3-.3-.4-.6-.4-1s.1-.7.4-1c.3-.3.6-.4 1-.4s.7.1 1 .4c.2.2.4.6.4 1z" fill="none" stroke="#4242ea" stroke-width="3" stroke-linecap="round" stroke-linejoin="round"/></svg>