<svg width="48" height="48" fill="none" xmlns="http://www.w3.org/2000/svg"><path d="M18.875 12.134C21.156 8.044 22.295 6 24 6s2.844 2.045 5.125 6.134l.59 1.059c.648 1.163.972 1.744 1.476 2.127.504.384 1.134.526 2.394.81l1.145.26c4.427 1.002 6.64 1.503 7.167 3.197.526 1.692-.983 3.457-4.001 6.987l-.782.913c-.856 1.002-1.286 1.505-1.48 2.124-.192.62-.127 1.29.003 2.628l.118 1.218c.456 4.711.684 7.065-.694 8.111-1.379 1.046-3.453.092-7.596-1.816l-1.075-.493c-1.177-.544-1.765-.814-2.39-.814-.625 0-1.213.27-2.39.814l-1.073.493c-4.145 1.908-6.219 2.862-7.596 1.818-1.38-1.048-1.152-3.402-.697-8.113l.12-1.216c.129-1.34.194-2.01 0-2.628-.192-.622-.622-1.124-1.479-2.125l-.78-.914c-3.02-3.528-4.528-5.294-4.002-6.988.526-1.693 2.741-2.195 7.17-3.196l1.144-.26c1.258-.284 1.886-.426 2.392-.81.506-.383.828-.964 1.476-2.127l.59-1.059z" stroke="#4242EA" stroke-width="3"/></svg>