<?xml version="1.0" encoding="utf-8"?>
<!-- Generator: Adobe Illustrator 19.2.1, SVG Export Plug-In . SVG Version: 6.00 Build 0)  -->
<svg version="1.1" id="Слой_1" xmlns="http://www.w3.org/2000/svg" xmlns:xlink="http://www.w3.org/1999/xlink" x="0px" y="0px"
	 viewBox="0 0 18 18" style="enable-background:new 0 0 18 18;" xml:space="preserve">
<style type="text/css">
	.st0{fill:#FFFFFF;}
</style>
<path class="st0" d="M13.4,9c0,0.3-0.1,0.6-0.3,0.8l-6.3,7.5c-0.2,0.3-0.5,0.4-0.8,0.4c-0.3,0-0.7-0.1-0.9-0.3S4.7,17,4.6,16.6
	c0-0.3,0.1-0.7,0.3-0.9L10.5,9L5.1,2.3C5,2.2,4.9,2,4.9,1.9s-0.1-0.3,0-0.5c0-0.2,0.1-0.3,0.1-0.5c0.1-0.1,0.2-0.3,0.3-0.4
	c0.1-0.1,0.3-0.2,0.4-0.3c0.2-0.1,0.3-0.1,0.5-0.1c0.2,0,0.3,0.1,0.5,0.2C6.9,0.5,7,0.6,7.1,0.7l6,7.5C13.3,8.5,13.4,8.7,13.4,9z"/>
</svg>
