<svg width="47" height="45" fill="none" xmlns="http://www.w3.org/2000/svg"><path d="M24.66 23.572l7.567 13.227c.063.111.152.176.244.176l6.256.038c.14.002.269-.145.323-.369a.952.952 0 00-.072-.653l-7.325-12.802 7.48-12.712a.936.936 0 00.079-.653c-.054-.224-.18-.37-.32-.372l-6.256-.039c-.092 0-.18.063-.247.173L24.661 22.72a.943.943 0 00-.001.852z" fill="#4242EA"/><path d="M41.521 28.09c2.685 0 4.861-2.164 4.861-4.833s-2.176-4.833-4.86-4.833c-2.686 0-4.862 2.164-4.862 4.833 0 2.67 2.176 4.833 4.861 4.833z" fill="#4242EA"/><path d="M19.768 19.541L28.05 6.745c.07-.108.088-.216.044-.298L25.227.917c-.064-.124-.253-.169-.479-.114a.957.957 0 00-.55.366l-8.013 12.386-14.796-.695a.944.944 0 00-.619.232c-.175.152-.247.33-.184.454l2.866 5.53c.042.081.14.131.27.138l15.287.718a.958.958 0 00.76-.39z" fill="#E5E5E5"/><path d="M11.671 9.666c2.685 0 4.862-2.164 4.862-4.833C16.533 2.163 14.356 0 11.67 0 8.986 0 6.81 2.164 6.81 4.833c0 2.67 2.176 4.833 4.86 4.833z" fill="#E5E5E5"/><path d="M18.998 25.364l-15.286-.772c-.13-.006-.231.034-.281.11L.034 29.926c-.077.118-.021.302.14.469a.96.96 0 00.591.292l14.794.747 6.756 13.105c.09.177.293.341.512.418.22.076.411.05.487-.067l3.396-5.224c.05-.076.045-.186-.013-.3l-6.982-13.542a.941.941 0 00-.717-.46z" fill="#F75B46"/><path d="M10.197 44.5c2.684 0 4.86-2.164 4.86-4.834 0-2.669-2.176-4.832-4.86-4.832-2.685 0-4.862 2.163-4.862 4.832 0 2.67 2.177 4.834 4.862 4.834z" fill="#F75B46"/></svg>