<svg width="383" height="111" fill="none" xmlns="http://www.w3.org/2000/svg"><path d="M60.826 58.147L79.49 90.774c.157.275.375.435.602.435l15.431.094c.347.004.664-.357.796-.91.132-.554.066-1.185-.177-1.612L78.076 57.204l18.45-31.356c.248-.422.326-1.058.194-1.611-.132-.554-.441-.915-.788-.92l-15.43-.093c-.227 0-.446.155-.611.426L60.83 56.047c-.334.583-.338 1.518-.004 2.1z" fill="#4242EA"/><path d="M102.417 69.293c6.622 0 11.991-5.337 11.991-11.92 0-6.585-5.369-11.922-11.991-11.922-6.623 0-11.991 5.337-11.991 11.921s5.368 11.921 11.991 11.921z" fill="#4242EA"/><path d="M48.76 48.206l20.427-31.564c.173-.267.214-.534.107-.735l-7.07-13.64c-.157-.307-.623-.417-1.18-.282-.557.135-1.085.492-1.357.902L39.921 33.44 3.424 31.725c-.491-.025-1.093.2-1.527.574-.433.373-.61.812-.453 1.12l7.07 13.64c.103.2.342.323.664.34l37.71 1.771c.672.025 1.51-.402 1.872-.964z" fill="#E5E5E5"/><path d="M28.788 23.847c6.622 0 11.99-5.337 11.99-11.921C40.779 5.34 35.41.004 28.789.004S16.797 5.341 16.797 11.925s5.368 11.922 11.99 11.922z" fill="#E5E5E5"/><path d="M46.859 62.568L9.153 60.665c-.317-.016-.57.082-.693.27L.083 73.822c-.19.291-.054.746.342 1.156.396.41.97.693 1.46.722l36.493 1.841 16.665 32.328c.222.435.721.841 1.262 1.029.54.189 1.015.124 1.2-.164l8.378-12.885c.124-.188.111-.459-.033-.742L48.628 63.704c-.305-.595-1.097-1.103-1.77-1.136z" fill="#F75B46"/><path d="M25.15 109.77c6.622 0 11.99-5.338 11.99-11.922 0-6.584-5.368-11.921-11.99-11.921-6.623 0-11.992 5.337-11.992 11.921s5.369 11.922 11.991 11.922z" fill="#F75B46"/><path d="M154.498 11.33v11.824h-2.735v-9.596h-5.371v9.592h-2.734V11.33h10.84zm10.844.522c.776.348 1.374.844 1.79 1.484.421.644.627 1.403.627 2.28 0 .866-.21 1.624-.627 2.272-.42.648-1.014 1.144-1.79 1.485-.775.344-1.691.516-2.743.516h-2.397v3.26h-2.751V11.332h5.148c1.056 0 1.968.172 2.743.52zm-1.011 5.278c.429-.353.648-.857.648-1.514 0-.664-.214-1.173-.648-1.53-.429-.356-1.06-.532-1.885-.532h-2.244v4.105h2.244c.829.004 1.456-.173 1.885-.53zm7.755 5.43a5.928 5.928 0 01-2.326-2.186c-.561-.931-.842-1.973-.842-3.134 0-1.16.281-2.206.842-3.133a5.899 5.899 0 012.326-2.186c.99-.529 2.104-.795 3.337-.795 1.234 0 2.343.266 3.329.795a5.992 5.992 0 012.327 2.186c.565.927.849 1.973.849 3.133s-.284 2.207-.849 3.134a5.962 5.962 0 01-2.327 2.185c-.986.53-2.095.796-3.329.796-1.229 0-2.343-.263-3.337-.796zm5.243-2.018a3.447 3.447 0 001.332-1.341c.322-.575.483-1.227.483-1.96 0-.73-.161-1.387-.483-1.96a3.447 3.447 0 00-1.332-1.342c-.565-.32-1.2-.48-1.902-.48-.701 0-1.336.16-1.901.48s-1.011.767-1.332 1.341c-.322.574-.483 1.226-.483 1.96s.161 1.386.483 1.96a3.447 3.447 0 001.332 1.342c.565.32 1.2.48 1.901.48a3.712 3.712 0 001.902-.48zm19.205.356c-1.068.894-2.607 1.395-4.611 1.497v1.284h-2.533v-1.3c-2.017-.11-3.56-.615-4.628-1.513-1.072-.894-1.605-2.112-1.605-3.659 0-1.554.537-2.772 1.605-3.658 1.068-.885 2.611-1.386 4.628-1.513v-1.218h2.533v1.198c2.004.11 3.543.619 4.611 1.521 1.069.902 1.605 2.124 1.605 3.666.004 1.571-.532 2.801-1.605 3.695zm-7.144-.652v-6.06c-1.213.11-2.108.413-2.693.901-.586.488-.875 1.198-.875 2.12 0 1.78 1.192 2.793 3.568 3.04zm5.218-.918c.59-.5.883-1.214.883-2.137 0-1.8-1.188-2.805-3.568-3.006v6.065c1.2-.114 2.095-.422 2.685-.922zm7.924 3.244a5.89 5.89 0 01-2.31-2.178c-.561-.931-.841-1.98-.841-3.15 0-1.172.28-2.222.841-3.15a5.857 5.857 0 012.31-2.177c.982-.525 2.083-.787 3.304-.787 1.031 0 1.963.18 2.797.541a5.61 5.61 0 012.099 1.554l-1.765 1.62c-.805-.922-1.803-1.386-2.991-1.386-.738 0-1.394.16-1.971.48a3.404 3.404 0 00-1.349 1.341c-.322.574-.483 1.226-.483 1.96s.161 1.386.483 1.96a3.404 3.404 0 001.349 1.342c.577.32 1.233.48 1.971.48 1.188 0 2.186-.468 2.991-1.403l1.765 1.62a5.485 5.485 0 01-2.108 1.57c-.837.361-1.773.542-2.804.542-1.213.004-2.306-.259-3.288-.78zm12.082-.013a5.93 5.93 0 01-2.327-2.186c-.561-.93-.841-1.972-.841-3.133 0-1.16.28-2.206.841-3.133.561-.93 1.337-1.656 2.327-2.186.99-.529 2.104-.795 3.337-.795s2.343.266 3.329.795a5.99 5.99 0 012.326 2.186c.565.927.85 1.973.85 3.133s-.285 2.207-.85 3.134a5.96 5.96 0 01-2.326 2.185c-.986.53-2.096.796-3.329.796s-2.347-.263-3.337-.796zm5.238-2.017a3.45 3.45 0 001.333-1.341c.321-.575.482-1.227.482-1.96 0-.73-.161-1.387-.482-1.96a3.45 3.45 0 00-1.333-1.342c-.565-.32-1.2-.48-1.901-.48-.701 0-1.337.16-1.902.48s-1.01.767-1.332 1.341c-.322.574-.483 1.226-.483 1.96s.161 1.386.483 1.96a3.453 3.453 0 001.332 1.342c.565.32 1.201.48 1.902.48a3.71 3.71 0 001.901-.48zm20.448-8.62a5.85 5.85 0 012.252 2.185c.544.927.816 1.973.816 3.133s-.272 2.207-.816 3.134a5.822 5.822 0 01-2.252 2.185c-.957.53-2.03.796-3.218.796-1.064 0-2.038-.21-2.92-.632a5.808 5.808 0 01-3.28-4.38h-1.563v4.815h-2.735V11.331h2.735v4.646h1.596a5.844 5.844 0 011.131-2.526 5.798 5.798 0 012.165-1.714c.871-.406 1.828-.607 2.871-.607 1.188-.004 2.261.262 3.218.791zm-1.436 8.628a3.334 3.334 0 001.258-1.333c.305-.574.458-1.234.458-1.977 0-.742-.153-1.402-.458-1.976a3.334 3.334 0 00-1.258-1.333 3.423 3.423 0 00-1.782-.472c-.656 0-1.25.156-1.786.472a3.334 3.334 0 00-1.258 1.333c-.305.574-.458 1.234-.458 1.976 0 .743.153 1.403.458 1.977a3.308 3.308 0 001.258 1.333 3.427 3.427 0 001.786.471 3.385 3.385 0 001.782-.471zm14.689-2.457c.392.5.586 1.083.586 1.747 0 .722-.24 1.345-.714 1.874-.474.53-1.118.935-1.926 1.218-.809.283-1.696.423-2.661.423-.817 0-1.629-.103-2.438-.304a8.885 8.885 0 01-2.301-.93l.849-1.96a6.47 6.47 0 001.724.717 7.271 7.271 0 001.844.246c.817 0 1.494-.148 2.03-.439.536-.291.808-.705.808-1.234 0-.44-.185-.771-.553-.997-.367-.225-.87-.336-1.501-.336h-2.904v-2.059h2.702c.553 0 .99-.11 1.299-.336.31-.226.466-.533.466-.93 0-.464-.222-.821-.672-1.084-.445-.258-1.023-.39-1.724-.39-.52 0-1.06.07-1.613.21a6.42 6.42 0 00-1.58.631l-.833-2.128a8.861 8.861 0 014.075-.964c.928 0 1.782.136 2.566.406.78.271 1.402.665 1.869 1.181.462.517.697 1.12.697 1.809 0 .562-.153 1.062-.458 1.505-.305.443-.726.775-1.258 1.013.689.242 1.229.611 1.621 1.111zm9.904 4.479a5.89 5.89 0 01-2.31-2.178c-.561-.931-.842-1.98-.842-3.15 0-1.172.281-2.222.842-3.15a5.857 5.857 0 012.31-2.177c.981-.525 2.083-.787 3.304-.787 1.031 0 1.963.18 2.796.541a5.614 5.614 0 012.1 1.554l-1.766 1.62c-.804-.922-1.802-1.386-2.99-1.386-.738 0-1.394.16-1.972.48a3.417 3.417 0 00-1.349 1.341c-.321.574-.482 1.226-.482 1.96s.161 1.386.482 1.96a3.417 3.417 0 001.349 1.342c.578.32 1.234.48 1.972.48 1.188 0 2.186-.468 2.99-1.403l1.766 1.62a5.492 5.492 0 01-2.108 1.57c-.837.361-1.774.542-2.805.542-1.213.004-2.31-.259-3.287-.78zm19.902-4.536c.384.484.578 1.083.578 1.792 0 1.046-.4 1.862-1.196 2.448-.797.587-1.939.878-3.424.878h-5.862V11.33h5.54c1.382 0 2.459.266 3.23.796.771.529 1.155 1.283 1.155 2.263 0 .587-.149 1.1-.442 1.546-.292.443-.709.796-1.241 1.054.722.213 1.274.562 1.662 1.046zm-7.169-1.809h2.566c.602 0 1.052-.118 1.357-.365.305-.242.458-.598.458-1.074 0-.463-.157-.816-.466-1.062-.314-.246-.763-.373-1.349-.373h-2.566v2.874zm4.958 3.38c0-.98-.647-1.469-1.938-1.469h-3.024v2.99h3.024c1.295-.004 1.938-.508 1.938-1.521zm7.297 2.952a5.928 5.928 0 01-2.326-2.186c-.561-.93-.842-1.972-.842-3.133 0-1.16.281-2.206.842-3.133a5.899 5.899 0 012.326-2.186c.99-.529 2.104-.795 3.337-.795 1.234 0 2.343.266 3.329.795a5.982 5.982 0 012.326 2.186c.566.927.85 1.973.85 3.133s-.284 2.207-.85 3.134a5.953 5.953 0 01-2.326 2.185c-.986.53-2.095.796-3.329.796-1.233 0-2.347-.263-3.337-.796zm5.243-2.017a3.447 3.447 0 001.332-1.341c.322-.575.483-1.227.483-1.96 0-.73-.161-1.387-.483-1.96a3.447 3.447 0 00-1.332-1.342c-.565-.32-1.2-.48-1.902-.48-.701 0-1.336.16-1.901.48s-1.011.767-1.333 1.341c-.321.574-.482 1.226-.482 1.96s.161 1.386.482 1.96a3.456 3.456 0 001.333 1.342c.565.32 1.2.48 1.901.48a3.712 3.712 0 001.902-.48zm6.728-9.211h9.598v2.178h-6.864v2.431h3.296c1.44 0 2.533.3 3.288.894.755.6 1.13 1.46 1.13 2.584 0 1.181-.421 2.1-1.258 2.752-.837.652-2.021.98-3.552.98h-5.638V11.33zm5.486 9.793c.701 0 1.241-.14 1.613-.414.375-.275.561-.677.561-1.206 0-1.038-.726-1.554-2.174-1.554h-2.752v3.174h2.752zm9.388 1.435a5.928 5.928 0 01-2.326-2.186c-.561-.93-.842-1.972-.842-3.133 0-1.16.281-2.206.842-3.133a5.899 5.899 0 012.326-2.186c.99-.529 2.104-.795 3.337-.795s2.343.266 3.329.795a5.982 5.982 0 012.326 2.186c.565.927.85 1.973.85 3.133s-.285 2.207-.85 3.134a5.953 5.953 0 01-2.326 2.185c-.986.53-2.096.796-3.329.796s-2.347-.263-3.337-.796zm5.239-2.017a3.453 3.453 0 001.332-1.341c.322-.575.483-1.227.483-1.96 0-.73-.161-1.387-.483-1.96a3.453 3.453 0 00-1.332-1.342 3.8 3.8 0 00-1.902-.48 3.8 3.8 0 00-1.902.48c-.565.32-1.01.767-1.332 1.341-.322.574-.483 1.226-.483 1.96s.161 1.386.483 1.96a3.453 3.453 0 001.332 1.342 3.8 3.8 0 001.902.48 3.717 3.717 0 001.902-.48zm18.656.381v4.68h-2.549v-2.45h-8.394v2.45h-2.549l.016-4.68h.475c.713-.02 1.217-.541 1.514-1.554.297-1.013.474-2.46.544-4.34l.136-3.698h9.141v9.592h1.666zm-8.868-2.104c-.182.952-.458 1.653-.833 2.104h5.317v-7.365h-4.076l-.049 1.722c-.062 1.41-.178 2.588-.359 3.54zm21.627-7.488v11.823h-2.752v-4.847h-5.403v4.847h-2.751V11.33h2.751v4.663h5.403V11.33h2.752zm12.069 4.847c.776.64 1.163 1.595 1.163 2.854 0 1.341-.429 2.363-1.282 3.068-.854.705-2.059 1.054-3.61 1.054h-5.37V11.33h2.734v3.883h3.024c1.452 0 2.566.32 3.341.964zm-2.207 4.425c.4-.349.603-.857.603-1.521 0-1.226-.759-1.842-2.277-1.842h-2.479v3.884h2.479c.713 0 1.27-.172 1.674-.52zm4.884-9.272h2.735v11.823h-2.735V11.33zm7.829 0l2.463 3.58 2.462-3.58h3.23l-3.96 5.66 4.282 6.163h-3.246l-2.768-3.92-2.735 3.92h-3.176l4.248-6.049-3.976-5.778h3.176v.004zM154.498 31.598V43.42h-2.735v-9.592h-5.371v9.592h-2.734V31.598h10.84zm10.844.525c.776.348 1.374.844 1.79 1.484.421.644.627 1.403.627 2.28 0 .866-.21 1.624-.627 2.272-.42.648-1.014 1.144-1.79 1.485-.775.344-1.691.517-2.743.517h-2.397v3.26h-2.751V31.598h5.148c1.056 0 1.968.176 2.743.525zm-1.011 5.278c.429-.353.648-.858.648-1.514 0-.664-.214-1.173-.648-1.53-.429-.356-1.06-.532-1.885-.532h-2.244v4.105h2.244c.829 0 1.456-.177 1.885-.53zm14.458 3.826v2.194h-9.207V31.598h8.989v2.194h-6.254v2.567h5.523v2.128h-5.523v2.736h6.472v.004zm14.495-.037v4.679h-2.549v-2.448h-8.394v2.448h-2.549l.016-4.68h.474c.714-.02 1.217-.54 1.514-1.553.297-1.013.475-2.461.545-4.34l.136-3.698h9.141v9.592h1.666zm-8.868-2.1c-.182.951-.458 1.653-.834 2.104h5.317v-7.365h-4.075l-.05 1.722c-.061 1.407-.181 2.588-.358 3.54zm21.556-7.492V43.42h-2.735v-9.592h-5.366v9.592h-2.735V31.598h10.836zm10.849.525c.775.348 1.373.844 1.79 1.484.421.644.627 1.403.627 2.28 0 .866-.211 1.624-.627 2.272-.421.648-1.015 1.144-1.79 1.485-.776.344-1.692.517-2.743.517h-2.397v3.26h-2.751V31.598h5.148c1.051 0 1.967.176 2.743.525zM215.81 37.4c.429-.353.648-.858.648-1.514 0-.664-.215-1.173-.648-1.53-.429-.356-1.06-.532-1.885-.532h-2.244v4.105h2.244c.825 0 1.452-.177 1.885-.53zm5.251-5.803h2.735v7.701l5.676-7.701h2.582V43.42h-2.718v-7.685l-5.676 7.685h-2.599V31.598zm24.852 0V43.42h-2.751v-4.848h-5.403v4.848h-2.752V31.598h2.752v4.662h5.403v-4.662h2.751zm2.975 0h2.734v7.701l5.676-7.701h2.582V43.42h-2.718v-7.685l-5.676 7.685h-2.598V31.598zm24.769 11.823l-.016-7.079-3.498 5.828h-1.225l-3.498-5.692v6.943h-2.582V31.598h2.277l4.451 7.349 4.384-7.35h2.277l.017 11.824h-2.587zm13.592-2.535h-5.523l-1.052 2.535h-2.821l5.3-11.823h2.718l5.317 11.823h-2.887l-1.052-2.535zm-.866-2.075l-1.885-4.527-1.885 4.527h3.77zm14.882-4.982h-3.807v9.592h-2.718v-9.592h-3.787v-2.231h10.312v2.23zm10.94 7.398v2.194h-9.207V31.598h8.988v2.194h-6.253v2.567h5.523v2.128h-5.523v2.736h6.472v.004zm12.828-9.63V43.42h-2.718v-9.592h-4.076l-.086 2.464c-.058 1.678-.194 3.04-.409 4.08-.214 1.042-.573 1.842-1.08 2.4-.504.557-1.209.836-2.117.836-.375 0-.825-.061-1.357-.184l.169-2.313c.149.045.31.065.491.065.656 0 1.114-.385 1.378-1.156.26-.77.425-1.98.491-3.621l.169-4.798h9.145v-.004zm12.181 9.63v2.194h-9.207V31.598h8.988v2.194h-6.253v2.567h5.523v2.128h-5.523v2.736h6.472v.004zm2.223-9.63h2.735V39.3l5.676-7.701h2.582V43.42h-2.718v-7.685l-5.676 7.685h-2.599V31.598zm2.195-3.346h1.885c.02.82.49 1.235 1.41 1.235.454 0 .801-.103 1.036-.312.239-.21.363-.517.375-.919h1.885c-.012.845-.289 1.485-.833 1.928-.545.439-1.365.66-2.463.66-2.178-.004-3.275-.865-3.295-2.592zM155.236 61.452c-1.118.895-2.677 1.37-4.682 1.428v1.218h-1.171V62.88c-2.005-.066-3.564-.546-4.682-1.436-1.118-.89-1.675-2.116-1.675-3.682 0-1.567.557-2.793 1.675-3.683 1.114-.89 2.677-1.37 4.682-1.435v-1.181h1.171v1.18c1.993.066 3.552.55 4.674 1.444 1.122.894 1.683 2.12 1.683 3.675-.004 1.566-.561 2.792-1.675 3.69zm-9.652-.742c.899.706 2.165 1.095 3.799 1.173v-8.226c-1.654.065-2.925.455-3.816 1.156-.891.705-1.332 1.686-1.332 2.949 0 1.259.45 2.243 1.349 2.948zm8.778.008c.895-.709 1.34-1.693 1.34-2.956 0-1.26-.449-2.248-1.349-2.957-.899-.71-2.165-1.091-3.799-1.148v8.226c1.642-.07 2.912-.455 3.808-1.165zm13.418-7.77c.862.72 1.291 1.71 1.291 2.972 0 1.263-.429 2.248-1.291 2.965-.862.714-2.05 1.075-3.568 1.075h-3.193v3.732h-1.258V51.869h4.451c1.518-.004 2.71.356 3.568 1.078zm-.899 5.142c.622-.513.936-1.235.936-2.17 0-.955-.314-1.693-.936-2.206-.623-.513-1.522-.767-2.702-.767h-3.16v5.914h3.16c1.18 0 2.079-.259 2.702-.771zm4.772-6.226h1.242v9.798l7.61-9.798h1.139v11.823h-1.242v-9.78l-7.61 9.78h-1.139V51.864zm23.141 0v11.824h-1.242v-10.74h-5.742l-.136 3.953c-.058 1.632-.19 2.948-.4 3.945-.21.996-.528 1.738-.961 2.23-.429.489-1.002.735-1.716.735-.305 0-.623-.041-.953-.12l.103-1.115c.194.045.38.066.561.066a1.47 1.47 0 001.213-.59c.309-.394.549-1.005.705-1.834.157-.828.264-1.923.322-3.285l.169-5.068h8.077zm11.62 8.666h-6.625l-1.427 3.158h-1.308l5.437-11.824h1.241l5.437 11.824h-1.324l-1.431-3.158zm-.458-1.013l-2.855-6.353-2.854 6.353h5.709zm15.427-7.653v11.824h-1.242v-5.455H212.7v5.455h-1.258V51.864h1.258v5.27h7.441v-5.27h1.242zm6.022 11.151a5.684 5.684 0 01-2.223-2.153c-.536-.919-.809-1.944-.809-3.084 0-1.136.268-2.165.809-3.084a5.662 5.662 0 012.235-2.153c.953-.516 2.018-.779 3.193-.779.883 0 1.7.148 2.446.439a5.061 5.061 0 011.902 1.283l-.8.796c-.929-.935-2.1-1.403-3.519-1.403-.94 0-1.794.214-2.566.64a4.7 4.7 0 00-1.81 1.755c-.438.743-.656 1.575-.656 2.502 0 .923.218 1.755.656 2.502a4.7 4.7 0 001.81 1.755c.772.426 1.626.64 2.566.64 1.427 0 2.599-.472 3.519-1.42l.8.796a5.172 5.172 0 01-1.91 1.292 6.58 6.58 0 01-2.454.447c-1.18.004-2.244-.254-3.189-.771zm18.562-.406v1.083h-8.411V51.869h8.155v1.082h-6.896v4.208h6.15v1.062h-6.15v4.392h7.152v-.004zm10.803-9.662c.862.722 1.291 1.71 1.291 2.973s-.429 2.248-1.291 2.965c-.862.714-2.05 1.075-3.568 1.075h-3.192v3.732h-1.259V51.869h4.451c1.518-.004 2.706.356 3.568 1.078zm-.899 5.143c.623-.513.936-1.235.936-2.17 0-.955-.313-1.693-.936-2.206-.623-.513-1.522-.767-2.702-.767h-3.159v5.914h3.159c1.176 0 2.079-.259 2.702-.771zm6.954 4.917a5.797 5.797 0 01-2.243-2.153c-.541-.91-.809-1.936-.809-3.076 0-1.136.268-2.161.809-3.076a5.768 5.768 0 012.243-2.153c.957-.524 2.026-.787 3.201-.787 1.176 0 2.24.258 3.185.78a5.777 5.777 0 012.236 2.152c.544.919.816 1.944.816 3.084 0 1.136-.272 2.165-.816 3.084a5.745 5.745 0 01-2.236 2.153c-.945.517-2.009.775-3.185.775-1.175 0-2.244-.262-3.201-.783zm5.751-.964a4.597 4.597 0 001.782-1.755c.429-.75.647-1.583.647-2.51 0-.923-.214-1.76-.647-2.51a4.602 4.602 0 00-1.782-1.755c-.759-.422-1.609-.632-2.55-.632-.94 0-1.794.21-2.557.632a4.685 4.685 0 00-1.803 1.755c-.437.75-.655 1.587-.655 2.51 0 .923.218 1.76.655 2.51a4.63 4.63 0 001.803 1.755c.767.422 1.617.632 2.557.632.945 0 1.791-.21 2.55-.632zm15.633-3.461c.429.488.648 1.128.648 1.915 0 1.025-.368 1.813-1.098 2.366-.73.554-1.802.829-3.217.829h-5.268V51.869h4.946c1.267 0 2.261.258 2.974.779.714.517 1.069 1.267 1.069 2.247 0 .665-.17 1.226-.512 1.682-.338.455-.817.795-1.427 1.02.825.165 1.452.493 1.885.985zm-7.697-1.362h3.634c.916 0 1.621-.184 2.116-.557.495-.374.738-.91.738-1.62 0-.71-.247-1.251-.738-1.62-.491-.373-1.196-.558-2.116-.558h-3.634v4.355zm7.099 3.19c0-1.484-1.027-2.23-3.077-2.23h-4.026v4.511h4.026c2.054 0 3.077-.759 3.077-2.28zM154.122 72.136v11.823h-1.241v-5.454h-7.442v5.454h-1.258V72.135h1.258v5.27h7.442v-5.27h1.241zm11.62 8.666h-6.624l-1.428 3.157h-1.307l5.436-11.823h1.242l5.437 11.823h-1.324l-1.432-3.157zm-.458-1.013l-2.854-6.353-2.855 6.353h5.709zm16.446 3.088v3.732h-1.171v-2.654h-10.383l-.016 2.654h-1.172l.017-3.732h.594c.78-.045 1.324-.66 1.629-1.85.306-1.189.491-2.875.561-5.06l.136-3.835h8.019v10.745h1.786zm-9.235-2.338c-.223 1.165-.59 1.944-1.114 2.338h7.322v-9.662h-5.693l-.103 2.87c-.054 1.805-.19 3.29-.412 4.454zm13.814 2.736a5.793 5.793 0 01-2.244-2.153c-.54-.91-.809-1.936-.809-3.076s.269-2.161.809-3.076a5.764 5.764 0 012.244-2.153c.957-.525 2.025-.787 3.201-.787 1.175 0 2.24.258 3.184.775a5.771 5.771 0 012.236 2.153c.544.918.817 1.944.817 3.084s-.273 2.165-.817 3.084a5.744 5.744 0 01-2.236 2.153c-.944.516-2.009.775-3.184.775-1.176.008-2.244-.255-3.201-.78zm5.75-.964a4.597 4.597 0 001.782-1.755c.429-.75.647-1.583.647-2.51 0-.923-.214-1.76-.647-2.51a4.596 4.596 0 00-1.782-1.755c-.759-.423-1.609-.632-2.549-.632-.941 0-1.795.21-2.558.632a4.677 4.677 0 00-1.802 1.755c-.437.75-.656 1.587-.656 2.51 0 .923.219 1.76.656 2.51a4.621 4.621 0 001.802 1.755c.763.422 1.617.631 2.558.631.94.004 1.79-.209 2.549-.631zm19.045-10.175v11.823h-1.205v-9.456l-4.673 7.956h-.594l-4.674-7.907v9.407h-1.204V72.135h1.035l5.164 8.768 5.115-8.768h1.036zm13.946 0v11.823h-1.242v-5.454h-7.441v5.454h-1.258V72.135h1.258v5.27h7.441v-5.27h1.242zm12.209 5.168c.743.631 1.114 1.554 1.114 2.768 0 1.271-.392 2.239-1.18 2.895-.787.66-1.922.988-3.407.988h-4.723v-11.82h1.242v4.224h3.737c1.403-.004 2.475.312 3.217.944zm-1.002 4.933c.573-.484.858-1.198.858-2.145 0-1.812-1.122-2.719-3.366-2.719h-3.448v5.59h3.448c1.097 0 1.935-.242 2.508-.726zm4.17-10.1h1.242v11.822h-1.242V72.135zm5.367 0l3.382 4.679 3.366-4.68h1.477l-4.059 5.676 4.385 6.147h-1.477l-3.688-5.085-3.687 5.085h-1.444l4.364-6.098-4.059-5.725h1.44zm-93.59 21.349c.862.722 1.291 1.71 1.291 2.973 0 1.26-.429 2.247-1.291 2.965-.862.714-2.05 1.074-3.568 1.074h-3.192v3.732h-1.259V92.406h4.451c1.518-.004 2.706.357 3.568 1.079zm-.903 5.142c.623-.512.936-1.234.936-2.169 0-.955-.313-1.694-.936-2.206-.623-.513-1.522-.771-2.702-.771h-3.16v5.913h3.16c1.18 0 2.079-.254 2.702-.767zm11.793 2.441h-6.625l-1.427 3.157h-1.307l5.436-11.823h1.242l5.436 11.823h-1.324l-1.431-3.157zm-.462-1.013l-2.854-6.353-2.855 6.353h5.709zm5.49-7.653h8.7v1.062h-7.458v3.868h3.89c1.402 0 2.47.287 3.2.86.731.575 1.098 1.407 1.098 2.502 0 1.136-.392 2.01-1.18 2.617-.788.607-1.918.91-3.391.91h-4.859v-11.82zm4.843 10.827c1.097 0 1.926-.209 2.487-.624.561-.414.842-1.037.842-1.857 0-.812-.277-1.415-.825-1.817-.549-.398-1.386-.599-2.508-.599h-3.601v4.897h3.605zm9.52.316a5.803 5.803 0 01-2.244-2.153c-.536-.911-.808-1.936-.808-3.076 0-1.136.268-2.161.808-3.076a5.765 5.765 0 012.244-2.153c.957-.525 2.025-.787 3.201-.787 1.176 0 2.24.258 3.184.775a5.764 5.764 0 012.236 2.153c.545.918.817 1.944.817 3.084 0 1.136-.272 2.165-.817 3.084a5.744 5.744 0 01-2.236 2.153c-.948.516-2.008.775-3.184.775-1.176.004-2.244-.259-3.201-.779zm5.75-.964a4.603 4.603 0 001.782-1.755 4.973 4.973 0 00.648-2.51c0-.923-.215-1.76-.648-2.51a4.596 4.596 0 00-1.782-1.755c-.759-.423-1.609-.632-2.549-.632s-1.794.21-2.557.632a4.672 4.672 0 00-1.803 1.755c-.437.75-.656 1.587-.656 2.51 0 .923.219 1.759.656 2.51a4.624 4.624 0 001.803 1.755c.767.422 1.617.631 2.557.631s1.79-.209 2.549-.631zm14.305-9.096h-4.178v10.744h-1.242V93.485h-4.178v-1.083h9.598v1.083zm12.148-1.083v11.823h-1.242v-5.454h-7.441v5.454h-1.258V92.402h1.258v5.27h7.441v-5.27h1.242zm4.009 0h1.242v9.797l7.61-9.797h1.139v11.823h-1.242v-9.78l-7.61 9.78h-1.139V92.402zm17.94 6.402h-2.719v5.421h-1.221V92.402h1.221v5.303h2.719l4.025-5.303h1.358l-4.418 5.742 4.673 6.081h-1.443l-4.195-5.421zm9.574 4.741a5.796 5.796 0 01-2.244-2.153c-.537-.911-.809-1.936-.809-3.076 0-1.136.268-2.161.809-3.076a5.765 5.765 0 012.244-2.153c.956-.525 2.025-.787 3.2-.787 1.176 0 2.24.258 3.185.775a5.768 5.768 0 012.235 2.153c.545.918.817 1.944.817 3.084 0 1.136-.272 2.165-.817 3.084a5.74 5.74 0 01-2.235 2.153c-.949.516-2.009.775-3.185.775-1.175.004-2.244-.259-3.2-.779zm5.75-.964a4.603 4.603 0 001.782-1.755 4.972 4.972 0 00.647-2.51c0-.923-.214-1.76-.647-2.51a4.603 4.603 0 00-1.782-1.755c-.759-.423-1.609-.632-2.55-.632-.94 0-1.794.21-2.557.632a4.686 4.686 0 00-1.803 1.755c-.437.75-.655 1.587-.655 2.51 0 .923.218 1.759.655 2.51a4.637 4.637 0 001.803 1.755c.767.422 1.617.631 2.557.631.941 0 1.791-.209 2.55-.631zm15.633-3.466c.429.489.648 1.128.648 1.916 0 1.025-.368 1.812-1.098 2.366-.73.553-1.802.828-3.217.828h-5.268V92.402h4.946c1.266 0 2.261.259 2.974.78.714.516 1.069 1.267 1.069 2.247 0 .664-.17 1.226-.512 1.681-.338.455-.817.796-1.427 1.021.825.168 1.452.496 1.885.984zm-7.697-1.357h3.634c.916 0 1.621-.184 2.116-.558.495-.373.738-.91.738-1.62 0-.709-.247-1.25-.738-1.62-.491-.373-1.196-.557-2.116-.557h-3.634v4.355zm7.099 3.191c0-1.485-1.027-2.231-3.077-2.231h-4.026v4.511h4.026c2.054 0 3.077-.759 3.077-2.28z" fill="#000"/></svg>